ChamferedBeveledAngled-Narrow.ufo
<glyph name="exclamation" format="2">
  <advance width="196.8"/>
  <unicode hex="0021"/>
  <outline>
    <contour>
      <point x="38.400001525878906" y="213.3333282470703" type="line"/>
      <point x="158.4000015258789" y="213.3333282470703" type="line"/>
      <point x="158.4000015258789" y="800" type="line"/>
      <point x="38.400001525878906" y="800" type="line"/>
    </contour>
    <contour>
      <point x="38.4" y="0" type="line"/>
      <point x="158.4" y="0" type="line"/>
      <point x="158.4" y="120.0" type="line"/>
      <point x="38.4" y="120.0" type="line"/>
    </contour>
  </outline>
</glyph>
<glyph name="numbersign" format="2">
  <advance width="576.8"/>
  <unicode hex="0023"/>
  <outline>
    <contour>
      <point x="382.56407928466797" y="805" type="line"/>
      <point x="308.4000015258789" y="730.8359222412109" type="line"/>
      <point x="308.4000015258789" y="610" type="line"/>
      <point x="268.4000015258789" y="610" type="line"/>
      <point x="268.4000015258789" y="805" type="line"/>
      <point x="222.56407928466797" y="805" type="line"/>
      <point x="148.4000015258789" y="730.8359222412109" type="line"/>
      <point x="148.4000015258789" y="610" type="line"/>
      <point x="112.56407928466797" y="610" type="line"/>
      <point x="38.400001525878906" y="535.8359222412109" type="line"/>
      <point x="38.400001525878906" y="490" type="line"/>
      <point x="148.4000015258789" y="490" type="line"/>
      <point x="148.4000015258789" y="310" type="line"/>
      <point x="112.56407928466797" y="310" type="line"/>
      <point x="38.400001525878906" y="235.83592224121094" type="line"/>
      <point x="38.400001525878906" y="190" type="line"/>
      <point x="148.4000015258789" y="190" type="line"/>
      <point x="148.4000015258789" y="-5" type="line"/>
      <point x="194.23592376708984" y="-5" type="line"/>
      <point x="268.4000015258789" y="69.16407775878906" type="line"/>
      <point x="268.4000015258789" y="190" type="line"/>
      <point x="308.4000015258789" y="190" type="line"/>
      <point x="308.4000015258789" y="-5" type="line"/>
      <point x="354.23592376708984" y="-5" type="line"/>
      <point x="428.4000015258789" y="69.16407775878906" type="line"/>
      <point x="428.4000015258789" y="190" type="line"/>
      <point x="464.23592376708984" y="190" type="line"/>
      <point x="538.4000015258789" y="264.16407775878906" type="line"/>
      <point x="538.4000015258789" y="310" type="line"/>
      <point x="428.4000015258789" y="310" type="line"/>
      <point x="428.4000015258789" y="490" type="line"/>
      <point x="464.23592376708984" y="490" type="line"/>
      <point x="538.4000015258789" y="564.1640777587891" type="line"/>
      <point x="538.4000015258789" y="610" type="line"/>
      <point x="428.4000015258789" y="610" type="line"/>
      <point x="428.4000015258789" y="805" type="line"/>
    </contour>
    <contour>
      <point x="308.4000015258789" y="490" type="line"/>
      <point x="308.4000015258789" y="310" type="line"/>
      <point x="268.4000015258789" y="310" type="line"/>
      <point x="268.4000015258789" y="490" type="line"/>
    </contour>
  </outline>
</glyph>
<glyph name="dollar" format="2">
  <advance width="356.8"/>
  <unicode hex="0024"/>
  <outline>
    <contour>
      <point x="38.400001525878906" y="625.8359222412109" type="line"/>
      <point x="38.400001525878906" y="414.16407775878906" type="line"/>
      <point x="112.56407928466797" y="340" type="line"/>
      <point x="158.4000015258789" y="340" type="line"/>
      <point x="158.4000015258789" y="800" type="line"/>
      <point x="98.4000015258789" y="800" type="line"/>
      <point x="98.4000015258789" y="685.8359222412109" type="line"/>
    </contour>
    <contour>
      <point x="314.6500015258789" y="700" type="line"/>
      <point x="254.6500015258789" y="700" type="line"/>
      <point x="254.6500015258789" y="800" type="line"/>
      <point x="194.6500015258789" y="800" type="line"/>
      <point x="194.6500015258789" y="654.1640777587891" type="line"/>
      <point x="268.81407928466797" y="580" type="line"/>
      <point x="314.6500015258789" y="580" type="line"/>
    </contour>
    <contour>
      <point x="198.4000015258789" y="0" type="line"/>
      <point x="258.4000015258789" y="0" type="line"/>
      <point x="258.4000015258789" y="114.16407775878906" type="line"/>
      <point x="318.4000015258789" y="174.16407775878906" type="line"/>
      <point x="318.4000015258789" y="385.83592224121094" type="line"/>
      <point x="244.23592376708984" y="460" type="line"/>
      <point x="198.4000015258789" y="460" type="line"/>
    </contour>
    <contour>
      <point x="98.4000015258789" y="0" type="line"/>
      <point x="158.4000015258789" y="0" type="line"/>
      <point x="158.4000015258789" y="145.83592224121094" type="line"/>
      <point x="84.23592376708984" y="220" type="line"/>
      <point x="38.400001525878906" y="220" type="line"/>
      <point x="38.400001525878906" y="100" type="line"/>
      <point x="98.4000015258789" y="100" type="line"/>
    </contour>
  </outline>
</glyph>
<glyph name="ampersand" format="2">
  <advance width="476.8"/>
  <unicode hex="0026"/>
  <outline>
    <contour>
      <point x="112.56407928466797" y="400" type="line"/>
      <point x="38.400001525878906" y="325.83592224121094" type="line"/>
      <point x="38.400001525878906" y="69.16407775878906" type="line"/>
      <point x="112.56407928466797" y="-5" type="line"/>
      <point x="158.4000015258789" y="-5" type="line"/>
      <point x="158.4000015258789" y="800" type="line"/>
      <point x="112.56407928466797" y="800" type="line"/>
      <point x="38.400001525878906" y="725.8359222412109" type="line"/>
      <point x="38.400001525878906" y="474.16407775878906" type="line"/>
    </contour>
    <contour>
      <point x="310.9" y="800.0" type="line"/>
      <point x="190.9" y="800.0" type="line"/>
      <point x="190.9" y="754.16408" type="line"/>
      <point x="265.06408" y="680.0" type="line"/>
      <point x="310.9" y="680.0" type="line"/>
    </contour>
    <contour>
      <point x="198.4000015258789" y="425.83592224121094" type="line"/>
      <point x="198.4000015258789" y="-5" type="line"/>
      <point x="244.23592376708984" y="-5" type="line"/>
      <point x="318.4000015258789" y="69.16407775878906" type="line"/>
      <point x="318.4000015258789" y="380" type="line"/>
      <point x="364.23592376708984" y="380" type="line"/>
      <point x="438.4000015258789" y="454.16407775878906" type="line"/>
      <point x="438.4000015258789" y="500" type="line"/>
      <point x="272.56407928466797" y="500" type="line"/>
    </contour>
  </outline>
</glyph>
<glyph name="parenleft" format="2">
  <advance width="196.8"/>
  <unicode hex="0028"/>
  <outline>
    <contour>
      <point x="112.56407928466797" y="-100" type="line"/>
      <point x="158.4000015258789" y="-100" type="line"/>
      <point x="158.4000015258789" y="900" type="line"/>
      <point x="112.56407928466797" y="900" type="line"/>
      <point x="38.400001525878906" y="825.8359222412109" type="line"/>
      <point x="38.400001525878906" y="-25.835922241210938" type="line"/>
    </contour>
  </outline>
</glyph>
<glyph name="parenright" format="2">
  <advance width="196.8"/>
  <unicode hex="0029"/>
  <outline>
    <contour>
      <point x="84.23592376708984" y="-100" type="line"/>
      <point x="158.4000015258789" y="-25.835922241210938" type="line"/>
      <point x="158.4000015258789" y="825.8359222412109" type="line"/>
      <point x="84.23592376708984" y="900" type="line"/>
      <point x="38.400001525878906" y="900" type="line"/>
      <point x="38.400001525878906" y="-100" type="line"/>
    </contour>
  </outline>
</glyph>
<glyph name="asterisk" format="2">
  <advance width="393.92812921102035"/>
  <unicode hex="002A"/>
  <outline>
    <contour>
      <point x="156.9640655517578" y="480" type="line"/>
      <point x="236.9640655517578" y="480" type="line"/>
      <point x="236.9640655517578" y="570.7179718017578" type="line"/>
      <point x="315.5281295776367" y="525.3589859008789" type="line"/>
      <point x="355.5281295776367" y="594.6410140991211" type="line"/>
      <point x="276.9640655517578" y="640" type="line"/>
      <point x="355.5281295776367" y="685.3589859008789" type="line"/>
      <point x="315.5281295776367" y="754.6410140991211" type="line"/>
      <point x="236.9640655517578" y="709.2820281982422" type="line"/>
      <point x="236.9640655517578" y="800" type="line"/>
      <point x="156.9640655517578" y="800" type="line"/>
      <point x="156.9640655517578" y="709.2820281982422" type="line"/>
      <point x="78.4000015258789" y="754.6410140991211" type="line"/>
      <point x="38.400001525878906" y="685.3589859008789" type="line"/>
      <point x="116.96406555175781" y="640" type="line"/>
      <point x="38.400001525878906" y="594.6410140991211" type="line"/>
      <point x="78.4000015258789" y="525.3589859008789" type="line"/>
      <point x="156.9640655517578" y="570.7179718017578" type="line"/>
    </contour>
  </outline>
</glyph>
<glyph name="plus" format="2">
  <advance width="516.8"/>
  <unicode hex="002B"/>
  <outline>
    <contour>
      <point x="198.4000015258789" y="180" type="line"/>
      <point x="318.4000015258789" y="180" type="line"/>
      <point x="318.4000015258789" y="340" type="line"/>
      <point x="438.4000015258789" y="340" type="line"/>
      <point x="438.4000015258789" y="460" type="line"/>
      <point x="318.4000015258789" y="460" type="line"/>
      <point x="318.4000015258789" y="620" type="line"/>
      <point x="198.4000015258789" y="620" type="line"/>
      <point x="198.4000015258789" y="460" type="line"/>
      <point x="78.4000015258789" y="460" type="line"/>
      <point x="78.4000015258789" y="340" type="line"/>
      <point x="198.4000015258789" y="340" type="line"/>
    </contour>
  </outline>
</glyph>
<glyph name="slash" format="2">
  <advance width="396.53844694390415"/>
  <unicode hex="002F"/>
  <outline>
    <contour>
      <point x="62.666107177734375" y="39.983619689941406" type="line"/>
      <point x="38.400001525878906" y="-77.5372543334961" type="line"/>
      <point x="83.28897857666016" y="-86.80608367919922" type="line"/>
      <point x="170.91815185546875" y="-29.171470642089844" type="line"/>
      <point x="180.18698120117188" y="15.717506408691406" type="line"/>
      <point x="196.36438751220703" y="94.06475830078125" type="line"/>
      <point x="236.8079071044922" y="289.9328842163086" type="line"/>
      <point x="277.2514190673828" y="485.80101013183594" type="line"/>
      <point x="317.69493103027344" y="681.6691284179688" type="line"/>
      <point x="333.8723373413086" y="760.0163803100586" type="line"/>
      <point x="358.1384506225586" y="877.5372543334961" type="line"/>
      <point x="313.2494659423828" y="886.8060836791992" type="line"/>
      <point x="225.62029266357422" y="829.1714706420898" type="line"/>
      <point x="216.3514633178711" y="784.2824935913086" type="line"/>
      <point x="200.17405700683594" y="705.9352416992188" type="line"/>
      <point x="159.7305450439453" y="510.0671157836914" type="line"/>
      <point x="119.28702545166016" y="314.19898986816406" type="line"/>
      <point x="78.84351348876953" y="118.33087158203125" type="line"/>
    </contour>
  </outline>
</glyph>
<glyph name="one" format="2">
  <advance width="196.8"/>
  <unicode hex="0031"/>
  <outline>
    <contour>
      <point x="38.400001525878906" y="0" type="line"/>
      <point x="158.4000015258789" y="0" type="line"/>
      <point x="158.4000015258789" y="800" type="line"/>
      <point x="112.56407928466797" y="800" type="line"/>
      <point x="38.400001525878906" y="725.8359222412109" type="line"/>
    </contour>
  </outline>
</glyph>
<glyph name="two" format="2">
  <advance width="356.8"/>
  <unicode hex="0032"/>
  <outline>
    <contour>
      <point x="158.4" y="685.0" type="line"/>
      <point x="158.4" y="805.0" type="line"/>
      <point x="112.56407999999999" y="805.0" type="line"/>
      <point x="38.4" y="730.83592" type="line"/>
      <point x="38.4" y="685.0" type="line"/>
    </contour>
    <contour>
      <point x="244.23592376708984" y="178.3333282470703" type="line"/>
      <point x="318.4000015258789" y="252.4974136352539" type="line"/>
      <point x="318.4000015258789" y="730.8359222412109" type="line"/>
      <point x="244.23592376708984" y="805" type="line"/>
      <point x="198.4000015258789" y="805" type="line"/>
      <point x="198.4000015258789" y="178.3333282470703" type="line"/>
    </contour>
    <contour>
      <point x="38.400001525878906" y="45.83592224121094" type="line"/>
      <point x="38.400001525878906" y="0" type="line"/>
      <point x="318.4000015258789" y="0" type="line"/>
      <point x="318.4000015258789" y="120" type="line"/>
      <point x="112.56407928466797" y="120" type="line"/>
    </contour>
  </outline>
</glyph>
<glyph name="four" format="2">
  <advance width="356.8"/>
  <unicode hex="0034"/>
  <outline>
    <contour>
      <point x="84.23592376708984" y="300" type="line"/>
      <point x="158.4000015258789" y="374.16407775878906" type="line"/>
      <point x="158.4000015258789" y="800" type="line"/>
      <point x="38.400001525878906" y="800" type="line"/>
      <point x="38.400001525878906" y="300" type="line"/>
    </contour>
    <contour>
      <point x="198.4000015258789" y="0" type="line"/>
      <point x="318.4000015258789" y="0" type="line"/>
      <point x="318.4000015258789" y="500" type="line"/>
      <point x="198.4000015258789" y="500" type="line"/>
    </contour>
  </outline>
</glyph>
<glyph name="five" format="2">
  <advance width="356.8"/>
  <unicode hex="0035"/>
  <outline>
    <contour>
      <point x="116.31407928466797" y="340" type="line"/>
      <point x="162.1500015258789" y="340" type="line"/>
      <point x="162.1500015258789" y="800" type="line"/>
      <point x="42.150001525878906" y="800" type="line"/>
      <point x="42.150001525878906" y="414.16407775878906" type="line"/>
    </contour>
    <contour>
      <point x="314.65" y="800.0" type="line"/>
      <point x="194.65" y="800.0" type="line"/>
      <point x="194.65" y="754.16408" type="line"/>
      <point x="268.81408" y="680.0" type="line"/>
      <point x="314.65" y="680.0" type="line"/>
    </contour>
    <contour>
      <point x="244.23592376708984" y="-5" type="line"/>
      <point x="318.4000015258789" y="69.16407775878906" type="line"/>
      <point x="318.4000015258789" y="385.83592224121094" type="line"/>
      <point x="244.23592376708984" y="460" type="line"/>
      <point x="198.4000015258789" y="460" type="line"/>
      <point x="198.4000015258789" y="-5" type="line"/>
    </contour>
    <contour>
      <point x="158.4" y="115.0" type="line"/>
      <point x="38.4" y="115.0" type="line"/>
      <point x="38.4" y="69.16408" type="line"/>
      <point x="112.56407999999999" y="-5.0" type="line"/>
      <point x="158.4" y="-5.0" type="line"/>
    </contour>
  </outline>
</glyph>
<glyph name="six" format="2">
  <advance width="356.8"/>
  <unicode hex="0036"/>
  <outline>
    <contour>
      <point x="112.56407928466797" y="-5" type="line"/>
      <point x="158.4000015258789" y="-5" type="line"/>
      <point x="158.4000015258789" y="805" type="line"/>
      <point x="112.56407928466797" y="805" type="line"/>
      <point x="38.400001525878906" y="730.8359222412109" type="line"/>
      <point x="38.400001525878906" y="69.16407775878906" type="line"/>
    </contour>
    <contour>
      <point x="198.4" y="685.0" type="line"/>
      <point x="318.4" y="685.0" type="line"/>
      <point x="318.4" y="730.83592" type="line"/>
      <point x="244.23592" y="805.0" type="line"/>
      <point x="198.4" y="805.0" type="line"/>
    </contour>
    <contour>
      <point x="244.23592376708984" y="-5" type="line"/>
      <point x="318.4000015258789" y="69.16407775878906" type="line"/>
      <point x="318.4000015258789" y="425.83592224121094" type="line"/>
      <point x="244.23592376708984" y="500" type="line"/>
      <point x="198.4000015258789" y="500" type="line"/>
      <point x="198.4000015258789" y="-5" type="line"/>
    </contour>
  </outline>
</glyph>
<glyph name="nine" format="2">
  <advance width="356.8"/>
  <unicode hex="0039"/>
  <outline>
    <contour>
      <point x="112.56407928466797" y="300" type="line"/>
      <point x="158.4000015258789" y="300" type="line"/>
      <point x="158.4000015258789" y="805" type="line"/>
      <point x="112.56407928466797" y="805" type="line"/>
      <point x="38.400001525878906" y="730.8359222412109" type="line"/>
      <point x="38.400001525878906" y="374.16407775878906" type="line"/>
    </contour>
    <contour>
      <point x="244.23592376708984" y="-5" type="line"/>
      <point x="318.4000015258789" y="69.16407775878906" type="line"/>
      <point x="318.4000015258789" y="730.8359222412109" type="line"/>
      <point x="244.23592376708984" y="805" type="line"/>
      <point x="198.4000015258789" y="805" type="line"/>
      <point x="198.4000015258789" y="-5" type="line"/>
    </contour>
    <contour>
      <point x="158.4" y="115.0" type="line"/>
      <point x="38.4" y="115.0" type="line"/>
      <point x="38.4" y="69.16408" type="line"/>
      <point x="112.56407999999999" y="-5.0" type="line"/>
      <point x="158.4" y="-5.0" type="line"/>
    </contour>
  </outline>
</glyph>
<glyph name="colon" format="2">
  <advance width="196.8"/>
  <unicode hex="003A"/>
  <outline>
    <contour>
      <point x="38.4" y="480.0" type="line"/>
      <point x="158.4" y="480.0" type="line"/>
      <point x="158.4" y="600.0" type="line"/>
      <point x="38.4" y="600.0" type="line"/>
    </contour>
    <contour>
      <point x="38.4" y="0" type="line"/>
      <point x="158.4" y="0" type="line"/>
      <point x="158.4" y="120.0" type="line"/>
      <point x="38.4" y="120.0" type="line"/>
    </contour>
  </outline>
</glyph>
<glyph name="semicolon" format="2">
  <advance width="196.8"/>
  <unicode hex="003B"/>
  <outline>
    <contour>
      <point x="38.4" y="480.0" type="line"/>
      <point x="158.4" y="480.0" type="line"/>
      <point x="158.4" y="600.0" type="line"/>
      <point x="38.4" y="600.0" type="line"/>
    </contour>
    <contour>
      <point x="84.23592376708984" y="-100" type="line"/>
      <point x="158.4000015258789" y="-25.835922241210938" type="line"/>
      <point x="158.4000015258789" y="120" type="line"/>
      <point x="38.400001525878906" y="120" type="line"/>
      <point x="38.400001525878906" y="-100" type="line"/>
    </contour>
  </outline>
</glyph>
<glyph name="less" format="2">
  <advance width="316.8"/>
  <unicode hex="003C"/>
  <outline>
    <contour>
      <point x="38.400001525878906" y="625.8359222412109" type="line"/>
      <point x="38.400001525878906" y="174.16407775878906" type="line"/>
      <point x="112.56407928466797" y="100" type="line"/>
      <point x="278.4000015258789" y="100" type="line"/>
      <point x="278.4000015258789" y="145.83592224121094" type="line"/>
      <point x="204.23592376708984" y="220" type="line"/>
      <point x="158.4000015258789" y="220" type="line"/>
      <point x="158.4000015258789" y="580" type="line"/>
      <point x="204.23592376708984" y="580" type="line"/>
      <point x="278.4000015258789" y="654.1640777587891" type="line"/>
      <point x="278.4000015258789" y="700" type="line"/>
      <point x="112.56407928466797" y="700" type="line"/>
    </contour>
  </outline>
</glyph>
<glyph name="equal" format="2">
  <advance width="516.8"/>
  <unicode hex="003D"/>
  <outline>
    <contour>
      <point x="78.4000015258789" y="450" type="line"/>
      <point x="438.4000015258789" y="450" type="line"/>
      <point x="438.4000015258789" y="570" type="line"/>
      <point x="78.4000015258789" y="570" type="line"/>
    </contour>
    <contour>
      <point x="78.4000015258789" y="230" type="line"/>
      <point x="438.4000015258789" y="230" type="line"/>
      <point x="438.4000015258789" y="350" type="line"/>
      <point x="78.4000015258789" y="350" type="line"/>
    </contour>
  </outline>
</glyph>
<glyph name="greater" format="2">
  <advance width="316.8"/>
  <unicode hex="003E"/>
  <outline>
    <contour>
      <point x="158.4000015258789" y="220" type="line"/>
      <point x="112.56407928466797" y="220" type="line"/>
      <point x="38.400001525878906" y="145.83592224121094" type="line"/>
      <point x="38.400001525878906" y="100" type="line"/>
      <point x="204.23592376708984" y="100" type="line"/>
      <point x="278.4000015258789" y="174.16407775878906" type="line"/>
      <point x="278.4000015258789" y="625.8359222412109" type="line"/>
      <point x="204.23592376708984" y="700" type="line"/>
      <point x="38.400001525878906" y="700" type="line"/>
      <point x="38.400001525878906" y="654.1640777587891" type="line"/>
      <point x="112.56407928466797" y="580" type="line"/>
      <point x="158.4000015258789" y="580" type="line"/>
    </contour>
  </outline>
</glyph>
<glyph name="question" format="2">
  <advance width="356.8"/>
  <unicode hex="003F"/>
  <outline>
    <contour>
      <point x="38.4" y="805.0" type="line"/>
      <point x="38.4" y="685.0" type="line"/>
      <point x="84.23592" y="685.0" type="line"/>
      <point x="158.4" y="759.16408" type="line"/>
      <point x="158.4" y="805.0" type="line"/>
    </contour>
    <contour>
      <point x="244.23592376708984" y="405" type="line"/>
      <point x="318.4000015258789" y="479.16407775878906" type="line"/>
      <point x="318.4000015258789" y="730.8359222412109" type="line"/>
      <point x="244.23592376708984" y="805" type="line"/>
      <point x="198.4000015258789" y="805" type="line"/>
      <point x="198.4000015258789" y="405" type="line"/>
    </contour>
    <contour>
      <point x="38.400001525878906" y="213.3333282470703" type="line"/>
      <point x="158.4000015258789" y="213.3333282470703" type="line"/>
      <point x="158.4000015258789" y="515" type="line"/>
      <point x="112.56407928466797" y="515" type="line"/>
      <point x="38.400001525878906" y="440.83592224121094" type="line"/>
    </contour>
    <contour>
      <point x="38.4" y="0" type="line"/>
      <point x="158.4" y="0" type="line"/>
      <point x="158.4" y="120.0" type="line"/>
      <point x="38.4" y="120.0" type="line"/>
    </contour>
  </outline>
</glyph>
<glyph name="at" format="2">
  <advance width="896.51422"/>
  <unicode hex="0040"/>
  <outline>
    <contour>
      <point x="798.1142199999999" y="544.91556" type="line"/>
      <point x="593.17267" y="749.85711" type="line"/>
      <point x="303.34155" y="749.85711" type="line"/>
      <point x="98.4" y="544.91556" type="line"/>
      <point x="98.4" y="255.08444" type="line"/>
      <point x="303.34155" y="50.14289" type="line"/>
      <point x="593.17267" y="50.14289" type="line"/>
      <point x="798.1142199999999" y="255.08444" type="line"/>
    </contour>
    <contour>
      <point x="374.9211883544922" y="200" type="line"/>
      <point x="300.7571105957031" y="274.16407775878906" type="line"/>
      <point x="300.7571105957031" y="525.8359222412109" type="line"/>
      <point x="374.9211883544922" y="600" type="line"/>
      <point x="420.7571105957031" y="600" type="line"/>
      <point x="420.7571105957031" y="200" type="line"/>
    </contour>
    <contour>
      <point x="534.9211883544922" y="200" type="line"/>
      <point x="460.7571105957031" y="274.16407775878906" type="line"/>
      <point x="460.7571105957031" y="600" type="line"/>
      <point x="580.7571105957031" y="600" type="line"/>
      <point x="580.7571105957031" y="200" type="line"/>
    </contour>
  </outline>
</glyph>
<glyph name="E" format="2">
  <advance width="356.8"/>
  <unicode hex="0045"/>
  <outline>
    <contour>
      <point x="38.400001525878906" y="0" type="line"/>
      <point x="158.4000015258789" y="0" type="line"/>
      <point x="158.4000015258789" y="800" type="line"/>
      <point x="38.400001525878906" y="800" type="line"/>
    </contour>
    <contour>
      <point x="318.4" y="800.0" type="line"/>
      <point x="198.4" y="800.0" type="line"/>
      <point x="198.4" y="754.16408" type="line"/>
      <point x="272.56408" y="680.0" type="line"/>
      <point x="318.4" y="680.0" type="line"/>
    </contour>
    <contour>
      <point x="318.4" y="460.0" type="line"/>
      <point x="198.4" y="460.0" type="line"/>
      <point x="198.4" y="414.16408" type="line"/>
      <point x="272.56408" y="340.0" type="line"/>
      <point x="318.4" y="340.0" type="line"/>
    </contour>
    <contour>
      <point x="318.4" y="0.0" type="line"/>
      <point x="318.4" y="120.0" type="line"/>
      <point x="272.56408" y="120.0" type="line"/>
      <point x="198.4" y="45.83592" type="line"/>
      <point x="198.4" y="0.0" type="line"/>
    </contour>
  </outline>
</glyph>
<glyph name="G" format="2">
  <advance width="356.8"/>
  <unicode hex="0047"/>
  <outline>
    <contour>
      <point x="112.56407928466797" y="0" type="line"/>
      <point x="158.4000015258789" y="0" type="line"/>
      <point x="158.4000015258789" y="800" type="line"/>
      <point x="112.56407928466797" y="800" type="line"/>
      <point x="38.400001525878906" y="725.8359222412109" type="line"/>
      <point x="38.400001525878906" y="74.16407775878906" type="line"/>
    </contour>
    <contour>
      <point x="318.4" y="800.0" type="line"/>
      <point x="198.4" y="800.0" type="line"/>
      <point x="198.4" y="754.16408" type="line"/>
      <point x="272.56408" y="680.0" type="line"/>
      <point x="318.4" y="680.0" type="line"/>
    </contour>
    <contour>
      <point x="272.56407928466797" y="0" type="line"/>
      <point x="318.4000015258789" y="0" type="line"/>
      <point x="318.4000015258789" y="400" type="line"/>
      <point x="198.4000015258789" y="400" type="line"/>
      <point x="198.4000015258789" y="74.16407775878906" type="line"/>
    </contour>
  </outline>
</glyph>
<glyph name="H" format="2">
  <advance width="516.8"/>
  <unicode hex="0048"/>
  <outline>
    <contour>
      <point x="38.400001525878906" y="0" type="line"/>
      <point x="158.4000015258789" y="0" type="line"/>
      <point x="158.4000015258789" y="800" type="line"/>
      <point x="38.400001525878906" y="800" type="line"/>
    </contour>
    <contour>
      <point x="358.4000015258789" y="0" type="line"/>
      <point x="478.4000015258789" y="0" type="line"/>
      <point x="478.4000015258789" y="800" type="line"/>
      <point x="358.4000015258789" y="800" type="line"/>
    </contour>
    <contour>
      <point x="318.4" y="460.0" type="line"/>
      <point x="198.4" y="460.0" type="line"/>
      <point x="198.4" y="414.16408" type="line"/>
      <point x="272.56408" y="340.0" type="line"/>
      <point x="318.4" y="340.0" type="line"/>
    </contour>
  </outline>
</glyph>
<glyph name="J" format="2">
  <advance width="356.8"/>
  <unicode hex="004A"/>
  <outline>
    <contour>
      <point x="244.23592376708984" y="-5" type="line"/>
      <point x="318.4000015258789" y="69.16407775878906" type="line"/>
      <point x="318.4000015258789" y="800" type="line"/>
      <point x="198.4000015258789" y="800" type="line"/>
      <point x="198.4000015258789" y="-5" type="line"/>
    </contour>
    <contour>
      <point x="158.4" y="115.0" type="line"/>
      <point x="38.4" y="115.0" type="line"/>
      <point x="38.4" y="69.16408" type="line"/>
      <point x="112.56407999999999" y="-5.0" type="line"/>
      <point x="158.4" y="-5.0" type="line"/>
    </contour>
  </outline>
</glyph>
<glyph name="M" format="2">
  <advance width="516.8"/>
  <unicode hex="004D"/>
  <outline>
    <contour>
      <point x="38.400001525878906" y="0" type="line"/>
      <point x="158.4000015258789" y="0" type="line"/>
      <point x="158.4000015258789" y="800" type="line"/>
      <point x="38.400001525878906" y="800" type="line"/>
    </contour>
    <contour>
      <point x="198.4000015258789" y="0" type="line"/>
      <point x="318.4000015258789" y="0" type="line"/>
      <point x="318.4000015258789" y="800" type="line"/>
      <point x="198.4000015258789" y="800" type="line"/>
    </contour>
    <contour>
      <point x="358.4000015258789" y="0" type="line"/>
      <point x="478.4000015258789" y="0" type="line"/>
      <point x="478.4000015258789" y="725.8359222412109" type="line"/>
      <point x="404.23592376708984" y="800" type="line"/>
      <point x="358.4000015258789" y="800" type="line"/>
    </contour>
  </outline>
</glyph>
<glyph name="O" format="2">
  <advance width="356.8"/>
  <unicode hex="004F"/>
  <outline>
    <contour>
      <point x="112.56407928466797" y="-5" type="line"/>
      <point x="158.4000015258789" y="-5" type="line"/>
      <point x="158.4000015258789" y="805" type="line"/>
      <point x="112.56407928466797" y="805" type="line"/>
      <point x="38.400001525878906" y="730.8359222412109" type="line"/>
      <point x="38.400001525878906" y="69.16407775878906" type="line"/>
    </contour>
    <contour>
      <point x="244.23592376708984" y="-5" type="line"/>
      <point x="318.4000015258789" y="69.16407775878906" type="line"/>
      <point x="318.4000015258789" y="730.8359222412109" type="line"/>
      <point x="244.23592376708984" y="805" type="line"/>
      <point x="198.4000015258789" y="805" type="line"/>
      <point x="198.4000015258789" y="-5" type="line"/>
    </contour>
  </outline>
</glyph>
<glyph name="P" format="2">
  <advance width="356.8"/>
  <unicode hex="0050"/>
  <outline>
    <contour>
      <point x="38.400001525878906" y="0" type="line"/>
      <point x="158.4000015258789" y="0" type="line"/>
      <point x="158.4000015258789" y="800" type="line"/>
      <point x="38.400001525878906" y="800" type="line"/>
    </contour>
    <contour>
      <point x="244.23592376708984" y="200" type="line"/>
      <point x="318.4000015258789" y="274.16407775878906" type="line"/>
      <point x="318.4000015258789" y="725.8359222412109" type="line"/>
      <point x="244.23592376708984" y="800" type="line"/>
      <point x="198.4000015258789" y="800" type="line"/>
      <point x="198.4000015258789" y="200" type="line"/>
    </contour>
  </outline>
</glyph>
<glyph name="T" format="2">
  <advance width="516.8"/>
  <unicode hex="0054"/>
  <outline>
    <contour>
      <point x="38.4" y="800.0" type="line"/>
      <point x="38.4" y="680.0" type="line"/>
      <point x="84.23592" y="680.0" type="line"/>
      <point x="158.4" y="754.16408" type="line"/>
      <point x="158.4" y="800.0" type="line"/>
    </contour>
    <contour>
      <point x="198.4000015258789" y="0" type="line"/>
      <point x="318.4000015258789" y="0" type="line"/>
      <point x="318.4000015258789" y="800" type="line"/>
      <point x="198.4000015258789" y="800" type="line"/>
    </contour>
    <contour>
      <point x="478.4" y="800.0" type="line"/>
      <point x="358.4" y="800.0" type="line"/>
      <point x="358.4" y="754.16408" type="line"/>
      <point x="432.56408" y="680.0" type="line"/>
      <point x="478.4" y="680.0" type="line"/>
    </contour>
  </outline>
</glyph>
<glyph name="V" format="2">
  <advance width="356.8"/>
  <unicode hex="0056"/>
  <outline>
    <contour>
      <point x="112.56407928466797" y="-5" type="line"/>
      <point x="158.4000015258789" y="-5" type="line"/>
      <point x="158.4000015258789" y="725.8359222412109" type="line"/>
      <point x="84.23592376708984" y="800" type="line"/>
      <point x="38.400001525878906" y="800" type="line"/>
      <point x="38.400001525878906" y="69.16407775878906" type="line"/>
    </contour>
    <contour>
      <point x="244.23592376708984" y="-5" type="line"/>
      <point x="318.4000015258789" y="69.16407775878906" type="line"/>
      <point x="318.4000015258789" y="800" type="line"/>
      <point x="198.4000015258789" y="800" type="line"/>
      <point x="198.4000015258789" y="-5" type="line"/>
    </contour>
  </outline>
</glyph>
<glyph name="Z" format="2">
  <advance width="356.8"/>
  <unicode hex="005A"/>
  <outline>
    <contour>
      <point x="38.4" y="800.0" type="line"/>
      <point x="38.4" y="680.0" type="line"/>
      <point x="84.23592" y="680.0" type="line"/>
      <point x="158.4" y="754.16408" type="line"/>
      <point x="158.4" y="800.0" type="line"/>
    </contour>
    <contour>
      <point x="244.23592376708984" y="340" type="line"/>
      <point x="318.4000015258789" y="414.16407775878906" type="line"/>
      <point x="318.4000015258789" y="800" type="line"/>
      <point x="198.4000015258789" y="800" type="line"/>
      <point x="198.4000015258789" y="340" type="line"/>
    </contour>
    <contour>
      <point x="38.400001525878906" y="0" type="line"/>
      <point x="158.4000015258789" y="0" type="line"/>
      <point x="158.4000015258789" y="460" type="line"/>
      <point x="112.56407928466797" y="460" type="line"/>
      <point x="38.400001525878906" y="385.83592224121094" type="line"/>
    </contour>
    <contour>
      <point x="318.4" y="0.0" type="line"/>
      <point x="318.4" y="120.0" type="line"/>
      <point x="272.56408" y="120.0" type="line"/>
      <point x="198.4" y="45.83592" type="line"/>
      <point x="198.4" y="0.0" type="line"/>
    </contour>
  </outline>
</glyph>
<glyph name="bracketleft" format="2">
  <advance width="316.8"/>
  <unicode hex="005B"/>
  <outline>
    <contour>
      <point x="38.400001525878906" y="-100" type="line"/>
      <point x="278.4000015258789" y="-100" type="line"/>
      <point x="278.4000015258789" y="-54.16407775878906" type="line"/>
      <point x="204.23592376708984" y="20" type="line"/>
      <point x="158.4000015258789" y="20" type="line"/>
      <point x="158.4000015258789" y="780" type="line"/>
      <point x="204.23592376708984" y="780" type="line"/>
      <point x="278.4000015258789" y="854.1640777587891" type="line"/>
      <point x="278.4000015258789" y="900" type="line"/>
      <point x="38.400001525878906" y="900" type="line"/>
    </contour>
  </outline>
</glyph>
<glyph name="bracketright" format="2">
  <advance width="316.8"/>
  <unicode hex="005D"/>
  <outline>
    <contour>
      <point x="38.400001525878906" y="854.1640777587891" type="line"/>
      <point x="112.56407928466797" y="780" type="line"/>
      <point x="158.4000015258789" y="780" type="line"/>
      <point x="158.4000015258789" y="20" type="line"/>
      <point x="112.56407928466797" y="20" type="line"/>
      <point x="38.400001525878906" y="-54.16407775878906" type="line"/>
      <point x="38.400001525878906" y="-100" type="line"/>
      <point x="278.4000015258789" y="-100" type="line"/>
      <point x="278.4000015258789" y="900" type="line"/>
      <point x="38.400001525878906" y="900" type="line"/>
    </contour>
  </outline>
</glyph>
<glyph name="asciicircum" format="2">
  <advance width="316.8"/>
  <unicode hex="005E"/>
  <outline>
    <contour>
      <point x="38.400001525878906" y="820" type="line"/>
      <point x="38.400001525878906" y="700" type="line"/>
      <point x="84.23592376708984" y="700" type="line"/>
      <point x="158.4000015258789" y="774.1640777587891" type="line"/>
      <point x="232.56407928466797" y="700" type="line"/>
      <point x="278.4000015258789" y="700" type="line"/>
      <point x="278.4000015258789" y="820" type="line"/>
    </contour>
  </outline>
</glyph>
<glyph name="underscore" format="2">
  <advance width="356.8"/>
  <unicode hex="005F"/>
  <outline>
    <contour>
      <point x="38.400001525878906" y="-160" type="line"/>
      <point x="318.4000015258789" y="-160" type="line"/>
      <point x="318.4000015258789" y="-40" type="line"/>
      <point x="38.400001525878906" y="-40" type="line"/>
    </contour>
  </outline>
</glyph>
<glyph name="grave" format="2">
  <advance width="196.8"/>
  <unicode hex="0060"/>
  <outline>
    <contour>
      <point x="105.9" y="920.0" type="line"/>
      <point x="-14.100000000000001" y="920.0" type="line"/>
      <point x="-14.100000000000001" y="874.16408" type="line"/>
      <point x="60.06408" y="800.0" type="line"/>
      <point x="105.9" y="800.0" type="line"/>
    </contour>
  </outline>
</glyph>
<glyph name="c" format="2">
  <advance width="356.8"/>
  <unicode hex="0063"/>
  <outline>
    <contour>
      <point x="112.56407928466797" y="0" type="line"/>
      <point x="158.4000015258789" y="0" type="line"/>
      <point x="158.4000015258789" y="600" type="line"/>
      <point x="112.56407928466797" y="600" type="line"/>
      <point x="38.400001525878906" y="525.8359222412109" type="line"/>
      <point x="38.400001525878906" y="74.16407775878906" type="line"/>
    </contour>
    <contour>
      <point x="318.4" y="600.0" type="line"/>
      <point x="198.4" y="600.0" type="line"/>
      <point x="198.4" y="554.16408" type="line"/>
      <point x="272.56408" y="480.0" type="line"/>
      <point x="318.4" y="480.0" type="line"/>
    </contour>
    <contour>
      <point x="316.525" y="0.0" type="line"/>
      <point x="316.525" y="120.0" type="line"/>
      <point x="270.68908" y="120.0" type="line"/>
      <point x="196.525" y="45.83592" type="line"/>
      <point x="196.525" y="0.0" type="line"/>
    </contour>
  </outline>
</glyph>
<glyph name="d" format="2">
  <advance width="356.8"/>
  <unicode hex="0064"/>
  <outline>
    <contour>
      <point x="198.4000015258789" y="0" type="line"/>
      <point x="318.4000015258789" y="0" type="line"/>
      <point x="318.4000015258789" y="800" type="line"/>
      <point x="198.4000015258789" y="800" type="line"/>
    </contour>
    <contour>
      <point x="112.56407928466797" y="0" type="line"/>
      <point x="158.4000015258789" y="0" type="line"/>
      <point x="158.4000015258789" y="605" type="line"/>
      <point x="112.56407928466797" y="605" type="line"/>
      <point x="38.400001525878906" y="530.8359222412109" type="line"/>
      <point x="38.400001525878906" y="74.16407775878906" type="line"/>
    </contour>
  </outline>
</glyph>
<glyph name="f" format="2">
  <advance width="356.8"/>
  <unicode hex="0066"/>
  <outline>
    <contour>
      <point x="38.400001525878906" y="0" type="line"/>
      <point x="158.4000015258789" y="0" type="line"/>
      <point x="158.4000015258789" y="800" type="line"/>
      <point x="112.56407928466797" y="800" type="line"/>
      <point x="38.400001525878906" y="725.8359222412109" type="line"/>
    </contour>
    <contour>
      <point x="318.4" y="800.0" type="line"/>
      <point x="198.4" y="800.0" type="line"/>
      <point x="198.4" y="754.16408" type="line"/>
      <point x="272.56408" y="680.0" type="line"/>
      <point x="318.4" y="680.0" type="line"/>
    </contour>
    <contour>
      <point x="318.4" y="587.5" type="line"/>
      <point x="198.4" y="587.5" type="line"/>
      <point x="198.4" y="541.66408" type="line"/>
      <point x="272.56408" y="467.5" type="line"/>
      <point x="318.4" y="467.5" type="line"/>
    </contour>
  </outline>
</glyph>
<glyph name="i" format="2">
  <advance width="196.8"/>
  <unicode hex="0069"/>
  <outline>
    <contour>
      <point x="38.4" y="644.44444" type="line"/>
      <point x="158.4" y="644.44444" type="line"/>
      <point x="158.4" y="764.44444" type="line"/>
      <point x="38.4" y="764.44444" type="line"/>
    </contour>
    <contour>
      <point x="38.400001525878906" y="0" type="line"/>
      <point x="158.4000015258789" y="0" type="line"/>
      <point x="158.4000015258789" y="600" type="line"/>
      <point x="38.400001525878906" y="600" type="line"/>
    </contour>
  </outline>
</glyph>
<glyph name="j" format="2">
  <advance width="356.8"/>
  <unicode hex="006A"/>
  <outline>
    <contour>
      <point x="198.4" y="644.44444" type="line"/>
      <point x="318.4" y="644.44444" type="line"/>
      <point x="318.4" y="764.44444" type="line"/>
      <point x="198.4" y="764.44444" type="line"/>
    </contour>
    <contour>
      <point x="244.23592376708984" y="-210" type="line"/>
      <point x="318.4000015258789" y="-135.83592224121094" type="line"/>
      <point x="318.4000015258789" y="600" type="line"/>
      <point x="198.4000015258789" y="600" type="line"/>
      <point x="198.4000015258789" y="-210" type="line"/>
    </contour>
    <contour>
      <point x="158.4" y="-90.0" type="line"/>
      <point x="38.4" y="-90.0" type="line"/>
      <point x="38.4" y="-135.83592" type="line"/>
      <point x="112.56407999999999" y="-210.0" type="line"/>
      <point x="158.4" y="-210.0" type="line"/>
    </contour>
  </outline>
</glyph>
<glyph name="k" format="2">
  <advance width="356.8"/>
  <unicode hex="006B"/>
  <outline>
    <contour>
      <point x="38.400001525878906" y="0" type="line"/>
      <point x="158.4000015258789" y="0" type="line"/>
      <point x="158.4000015258789" y="800" type="line"/>
      <point x="38.400001525878906" y="800" type="line"/>
    </contour>
    <contour>
      <point x="198.4000015258789" y="0" type="line"/>
      <point x="318.4000015258789" y="0" type="line"/>
      <point x="318.4000015258789" y="225.83592224121094" type="line"/>
      <point x="244.23592376708984" y="300" type="line"/>
      <point x="318.4000015258789" y="374.16407775878906" type="line"/>
      <point x="318.4000015258789" y="600" type="line"/>
      <point x="198.4000015258789" y="600" type="line"/>
    </contour>
  </outline>
</glyph>
<glyph name="l" format="2">
  <advance width="196.8"/>
  <unicode hex="006C"/>
  <outline>
    <contour>
      <point x="112.56407928466797" y="-5" type="line"/>
      <point x="158.4000015258789" y="-5" type="line"/>
      <point x="158.4000015258789" y="800" type="line"/>
      <point x="38.400001525878906" y="800" type="line"/>
      <point x="38.400001525878906" y="69.16407775878906" type="line"/>
    </contour>
  </outline>
</glyph>
<glyph name="m" format="2">
  <advance width="516.8"/>
  <unicode hex="006D"/>
  <outline>
    <contour>
      <point x="38.400001525878906" y="0" type="line"/>
      <point x="158.4000015258789" y="0" type="line"/>
      <point x="158.4000015258789" y="600" type="line"/>
      <point x="38.400001525878906" y="600" type="line"/>
    </contour>
    <contour>
      <point x="198.4000015258789" y="0" type="line"/>
      <point x="318.4000015258789" y="0" type="line"/>
      <point x="318.4000015258789" y="600" type="line"/>
      <point x="198.4000015258789" y="600" type="line"/>
    </contour>
    <contour>
      <point x="358.4000015258789" y="0" type="line"/>
      <point x="478.4000015258789" y="0" type="line"/>
      <point x="478.4000015258789" y="525.8359222412109" type="line"/>
      <point x="404.23592376708984" y="600" type="line"/>
      <point x="358.4000015258789" y="600" type="line"/>
    </contour>
  </outline>
</glyph>
<glyph name="n" format="2">
  <advance width="356.8"/>
  <unicode hex="006E"/>
  <outline>
    <contour>
      <point x="38.400001525878906" y="0" type="line"/>
      <point x="158.4000015258789" y="0" type="line"/>
      <point x="158.4000015258789" y="600" type="line"/>
      <point x="38.400001525878906" y="600" type="line"/>
    </contour>
    <contour>
      <point x="198.4000015258789" y="0" type="line"/>
      <point x="318.4000015258789" y="0" type="line"/>
      <point x="318.4000015258789" y="525.8359222412109" type="line"/>
      <point x="244.23592376708984" y="600" type="line"/>
      <point x="198.4000015258789" y="600" type="line"/>
    </contour>
  </outline>
</glyph>
<glyph name="t" format="2">
  <advance width="356.8"/>
  <unicode hex="0074"/>
  <outline>
    <contour>
      <point x="38.400001525878906" y="0" type="line"/>
      <point x="158.4000015258789" y="0" type="line"/>
      <point x="158.4000015258789" y="800" type="line"/>
      <point x="112.56407928466797" y="800" type="line"/>
      <point x="38.400001525878906" y="725.8359222412109" type="line"/>
    </contour>
    <contour>
      <point x="198.4" y="600.0" type="line"/>
      <point x="198.4" y="480.0" type="line"/>
      <point x="244.23592" y="480.0" type="line"/>
      <point x="318.4" y="554.16408" type="line"/>
      <point x="318.4" y="600.0" type="line"/>
    </contour>
  </outline>
</glyph>
<glyph name="v" format="2">
  <advance width="356.8"/>
  <unicode hex="0076"/>
  <outline>
    <contour>
      <point x="112.56407928466797" y="-5" type="line"/>
      <point x="158.4000015258789" y="-5" type="line"/>
      <point x="158.4000015258789" y="530.8359222412109" type="line"/>
      <point x="84.23592376708984" y="605" type="line"/>
      <point x="38.400001525878906" y="605" type="line"/>
      <point x="38.400001525878906" y="69.16407775878906" type="line"/>
    </contour>
    <contour>
      <point x="244.23592376708984" y="-5" type="line"/>
      <point x="318.4000015258789" y="69.16407775878906" type="line"/>
      <point x="318.4000015258789" y="600" type="line"/>
      <point x="198.4000015258789" y="600" type="line"/>
      <point x="198.4000015258789" y="-5" type="line"/>
    </contour>
  </outline>
</glyph>
<glyph name="w" format="2">
  <advance width="516.8"/>
  <unicode hex="0077"/>
  <outline>
    <contour>
      <point x="112.56407928466797" y="0" type="line"/>
      <point x="158.4000015258789" y="0" type="line"/>
      <point x="158.4000015258789" y="525.8359222412109" type="line"/>
      <point x="84.23592376708984" y="600" type="line"/>
      <point x="38.400001525878906" y="600" type="line"/>
      <point x="38.400001525878906" y="74.16407775878906" type="line"/>
    </contour>
    <contour>
      <point x="198.4000015258789" y="0" type="line"/>
      <point x="318.4000015258789" y="0" type="line"/>
      <point x="318.4000015258789" y="525.8359222412109" type="line"/>
      <point x="244.23592376708984" y="600" type="line"/>
      <point x="198.4000015258789" y="600" type="line"/>
    </contour>
    <contour>
      <point x="404.23592376708984" y="0" type="line"/>
      <point x="478.4000015258789" y="74.16407775878906" type="line"/>
      <point x="478.4000015258789" y="600" type="line"/>
      <point x="358.4000015258789" y="600" type="line"/>
      <point x="358.4000015258789" y="0" type="line"/>
    </contour>
  </outline>
</glyph>
<glyph name="braceleft" format="2">
  <advance width="196.8"/>
  <unicode hex="007B"/>
  <outline>
    <contour>
      <point x="112.56407928466797" y="-100" type="line"/>
      <point x="158.4000015258789" y="-100" type="line"/>
      <point x="158.4000015258789" y="325.83592224121094" type="line"/>
      <point x="84.23592376708984" y="400" type="line"/>
      <point x="158.4000015258789" y="474.16407775878906" type="line"/>
      <point x="158.4000015258789" y="900" type="line"/>
      <point x="112.56407928466797" y="900" type="line"/>
      <point x="38.400001525878906" y="825.8359222412109" type="line"/>
      <point x="38.400001525878906" y="-25.835922241210938" type="line"/>
    </contour>
  </outline>
</glyph>
<glyph name="bar" format="2">
  <advance width="196.8"/>
  <unicode hex="007C"/>
  <outline>
    <contour>
      <point x="38.400001525878906" y="-100" type="line"/>
      <point x="158.4000015258789" y="-100" type="line"/>
      <point x="158.4000015258789" y="900" type="line"/>
      <point x="38.400001525878906" y="900" type="line"/>
    </contour>
  </outline>
</glyph>
<glyph name="braceright" format="2">
  <advance width="196.8"/>
  <unicode hex="007D"/>
  <outline>
    <contour>
      <point x="112.56407928466797" y="400" type="line"/>
      <point x="38.400001525878906" y="325.83592224121094" type="line"/>
      <point x="38.400001525878906" y="-100" type="line"/>
      <point x="84.23592376708984" y="-100" type="line"/>
      <point x="158.4000015258789" y="-25.835922241210938" type="line"/>
      <point x="158.4000015258789" y="825.8359222412109" type="line"/>
      <point x="84.23592376708984" y="900" type="line"/>
      <point x="38.400001525878906" y="900" type="line"/>
      <point x="38.400001525878906" y="474.16407775878906" type="line"/>
    </contour>
  </outline>
</glyph>
<glyph name="tilde" format="2">
  <advance width="356.8"/>
  <unicode hex="007E"/>
  <outline>
    <contour>
      <point x="38.400001525878906" y="385.83592224121094" type="line"/>
      <point x="38.400001525878906" y="340" type="line"/>
      <point x="244.23592376708984" y="340" type="line"/>
      <point x="318.4000015258789" y="414.16407775878906" type="line"/>
      <point x="318.4000015258789" y="460" type="line"/>
      <point x="112.56407928466797" y="460" type="line"/>
    </contour>
  </outline>
</glyph>
<glyph name="invexclamation" format="2">
  <advance width="196.8"/>
  <unicode hex="00A1"/>
  <outline>
    <contour>
      <point x="38.4" y="480.0" type="line"/>
      <point x="158.4" y="480.0" type="line"/>
      <point x="158.4" y="600.0" type="line"/>
      <point x="38.4" y="600.0" type="line"/>
    </contour>
    <contour>
      <point x="38.400001525878906" y="-200" type="line"/>
      <point x="158.4000015258789" y="-200" type="line"/>
      <point x="158.4000015258789" y="386.6666717529297" type="line"/>
      <point x="38.400001525878906" y="386.6666717529297" type="line"/>
    </contour>
  </outline>
</glyph>
<glyph name="cent" format="2">
  <advance width="356.8"/>
  <unicode hex="00A2"/>
  <outline>
    <contour>
      <point x="98.4000015258789" y="0" type="line"/>
      <point x="158.4000015258789" y="0" type="line"/>
      <point x="158.4000015258789" y="600" type="line"/>
      <point x="98.4000015258789" y="600" type="line"/>
      <point x="98.4000015258789" y="490.83592224121094" type="line"/>
      <point x="38.400001525878906" y="430.83592224121094" type="line"/>
      <point x="38.400001525878906" y="169.16407775878906" type="line"/>
      <point x="98.4000015258789" y="109.16407775878906" type="line"/>
    </contour>
    <contour>
      <point x="318.4000015258789" y="510" type="line"/>
      <point x="258.4000015258789" y="510" type="line"/>
      <point x="258.4000015258789" y="600" type="line"/>
      <point x="198.4000015258789" y="600" type="line"/>
      <point x="198.4000015258789" y="464.16407775878906" type="line"/>
      <point x="272.56407928466797" y="390" type="line"/>
      <point x="318.4000015258789" y="390" type="line"/>
    </contour>
    <contour>
      <point x="198.4000015258789" y="0" type="line"/>
      <point x="258.4000015258789" y="0" type="line"/>
      <point x="258.4000015258789" y="90" type="line"/>
      <point x="318.4000015258789" y="90" type="line"/>
      <point x="318.4000015258789" y="210" type="line"/>
      <point x="272.56407928466797" y="210" type="line"/>
      <point x="198.4000015258789" y="135.83592224121094" type="line"/>
    </contour>
  </outline>
</glyph>
<glyph name="pound" format="2">
  <advance width="461.8"/>
  <unicode hex="00A3"/>
  <outline>
    <contour>
      <point x="138.4000015258789" y="0" type="line"/>
      <point x="258.4000015258789" y="0" type="line"/>
      <point x="258.4000015258789" y="805" type="line"/>
      <point x="212.56407928466797" y="805" type="line"/>
      <point x="138.4000015258789" y="730.8359222412109" type="line"/>
    </contour>
    <contour>
      <point x="423.4" y="764.82779" type="line"/>
      <point x="383.22778999999997" y="805.0" type="line"/>
      <point x="333.57221" y="805.0" type="line"/>
      <point x="293.4" y="764.82779" type="line"/>
      <point x="293.4" y="715.17221" type="line"/>
      <point x="333.57221" y="675.0" type="line"/>
      <point x="383.22778999999997" y="675.0" type="line"/>
      <point x="423.4" y="715.17221" type="line"/>
    </contour>
    <contour>
      <point x="38.4" y="370.0" type="line"/>
      <point x="98.4" y="370.0" type="line"/>
      <point x="98.4" y="430.0" type="line"/>
      <point x="38.4" y="430.0" type="line"/>
    </contour>
    <contour>
      <point x="298.4000015258789" y="370" type="line"/>
      <point x="388.4000015258789" y="370" type="line"/>
      <point x="388.4000015258789" y="430" type="line"/>
      <point x="298.4000015258789" y="430" type="line"/>
    </contour>
    <contour>
      <point x="418.4" y="0.0" type="line"/>
      <point x="418.4" y="120.0" type="line"/>
      <point x="372.56408" y="120.0" type="line"/>
      <point x="298.4" y="45.83592" type="line"/>
      <point x="298.4" y="0.0" type="line"/>
    </contour>
    <contour>
      <point x="38.4" y="0" type="line"/>
      <point x="98.4" y="0" type="line"/>
      <point x="98.4" y="60.0" type="line"/>
      <point x="38.4" y="60.0" type="line"/>
    </contour>
  </outline>
</glyph>
<glyph name="currency" format="2">
  <advance width="356.8"/>
  <unicode hex="00A4"/>
  <outline>
    <contour>
      <point x="38.400001525878906" y="220" type="line"/>
      <point x="98.4000015258789" y="220" type="line"/>
      <point x="98.4000015258789" y="254.16407775878906" type="line"/>
      <point x="112.56407928466797" y="240" type="line"/>
      <point x="158.4000015258789" y="240" type="line"/>
      <point x="158.4000015258789" y="560" type="line"/>
      <point x="112.56407928466797" y="560" type="line"/>
      <point x="98.4000015258789" y="545.8359222412109" type="line"/>
      <point x="98.4000015258789" y="580" type="line"/>
      <point x="38.400001525878906" y="580" type="line"/>
      <point x="38.400001525878906" y="520" type="line"/>
      <point x="72.56407928466797" y="520" type="line"/>
      <point x="38.400001525878906" y="485.83592224121094" type="line"/>
      <point x="38.400001525878906" y="314.16407775878906" type="line"/>
      <point x="72.56407928466797" y="280" type="line"/>
      <point x="38.400001525878906" y="280" type="line"/>
    </contour>
    <contour>
      <point x="258.4000015258789" y="220" type="line"/>
      <point x="318.4000015258789" y="220" type="line"/>
      <point x="318.4000015258789" y="280" type="line"/>
      <point x="284.23592376708984" y="280" type="line"/>
      <point x="318.4000015258789" y="314.16407775878906" type="line"/>
      <point x="318.4000015258789" y="485.83592224121094" type="line"/>
      <point x="284.23592376708984" y="520" type="line"/>
      <point x="318.4000015258789" y="520" type="line"/>
      <point x="318.4000015258789" y="580" type="line"/>
      <point x="258.4000015258789" y="580" type="line"/>
      <point x="258.4000015258789" y="545.8359222412109" type="line"/>
      <point x="244.23592376708984" y="560" type="line"/>
      <point x="198.4000015258789" y="560" type="line"/>
      <point x="198.4000015258789" y="240" type="line"/>
      <point x="244.23592376708984" y="240" type="line"/>
      <point x="258.4000015258789" y="254.16407775878906" type="line"/>
    </contour>
  </outline>
</glyph>
<glyph name="yen" format="2">
  <advance width="556.8"/>
  <unicode hex="00A5"/>
  <outline>
    <contour>
      <point x="212.56407928466797" y="200" type="line"/>
      <point x="258.4000015258789" y="200" type="line"/>
      <point x="258.4000015258789" y="730.8359222412109" type="line"/>
      <point x="184.23592376708984" y="805" type="line"/>
      <point x="138.4000015258789" y="805" type="line"/>
      <point x="138.4000015258789" y="274.16407775878906" type="line"/>
    </contour>
    <contour>
      <point x="344.23592376708984" y="-5" type="line"/>
      <point x="418.4000015258789" y="69.16407775878906" type="line"/>
      <point x="418.4000015258789" y="800" type="line"/>
      <point x="298.4000015258789" y="800" type="line"/>
      <point x="298.4000015258789" y="-5" type="line"/>
    </contour>
    <contour>
      <point x="38.4" y="545.0" type="line"/>
      <point x="98.4" y="545.0" type="line"/>
      <point x="98.4" y="605.0" type="line"/>
      <point x="38.4" y="605.0" type="line"/>
    </contour>
    <contour>
      <point x="458.4" y="545.0" type="line"/>
      <point x="518.4" y="545.0" type="line"/>
      <point x="518.4" y="605.0" type="line"/>
      <point x="458.4" y="605.0" type="line"/>
    </contour>
    <contour>
      <point x="38.4" y="395.0" type="line"/>
      <point x="98.4" y="395.0" type="line"/>
      <point x="98.4" y="455.0" type="line"/>
      <point x="38.4" y="455.0" type="line"/>
    </contour>
    <contour>
      <point x="458.4" y="395.0" type="line"/>
      <point x="518.4" y="395.0" type="line"/>
      <point x="518.4" y="455.0" type="line"/>
      <point x="458.4" y="455.0" type="line"/>
    </contour>
  </outline>
</glyph>
<glyph name="brokenbar" format="2">
  <advance width="196.8"/>
  <unicode hex="00A6"/>
  <outline>
    <contour>
      <point x="38.400001525878906" y="500" type="line"/>
      <point x="158.4000015258789" y="500" type="line"/>
      <point x="158.4000015258789" y="900" type="line"/>
      <point x="38.400001525878906" y="900" type="line"/>
    </contour>
    <contour>
      <point x="38.400001525878906" y="-100" type="line"/>
      <point x="158.4000015258789" y="-100" type="line"/>
      <point x="158.4000015258789" y="300" type="line"/>
      <point x="38.400001525878906" y="300" type="line"/>
    </contour>
  </outline>
</glyph>
<glyph name="section" format="2">
  <advance width="356.8"/>
  <unicode hex="00A7"/>
  <outline>
    <contour>
      <point x="38.400001525878906" y="425.83592224121094" type="line"/>
      <point x="38.400001525878906" y="174.16407775878906" type="line"/>
      <point x="112.56407928466797" y="100" type="line"/>
      <point x="158.4000015258789" y="100" type="line"/>
      <point x="158.4000015258789" y="800" type="line"/>
      <point x="112.56407928466797" y="800" type="line"/>
      <point x="38.400001525878906" y="725.8359222412109" type="line"/>
      <point x="38.400001525878906" y="514.1640777587891" type="line"/>
      <point x="82.56407928466797" y="470" type="line"/>
    </contour>
    <contour>
      <point x="318.4" y="800.0" type="line"/>
      <point x="198.4" y="800.0" type="line"/>
      <point x="198.4" y="754.16408" type="line"/>
      <point x="272.56408" y="680.0" type="line"/>
      <point x="318.4" y="680.0" type="line"/>
    </contour>
    <contour>
      <point x="244.23592376708984" y="-200" type="line"/>
      <point x="318.4000015258789" y="-125.83592224121094" type="line"/>
      <point x="318.4000015258789" y="85.83592224121094" type="line"/>
      <point x="274.23592376708984" y="130" type="line"/>
      <point x="318.4000015258789" y="174.16407775878906" type="line"/>
      <point x="318.4000015258789" y="425.83592224121094" type="line"/>
      <point x="244.23592376708984" y="500" type="line"/>
      <point x="198.4000015258789" y="500" type="line"/>
      <point x="198.4000015258789" y="-200" type="line"/>
    </contour>
    <contour>
      <point x="38.4" y="-200" type="line"/>
      <point x="158.4" y="-200" type="line"/>
      <point x="158.4" y="-154.16408" type="line"/>
      <point x="84.23592" y="-80.0" type="line"/>
      <point x="38.4" y="-80.0" type="line"/>
    </contour>
  </outline>
</glyph>
<glyph name="diaeresis" format="2">
  <advance width="356.8"/>
  <unicode hex="00A8"/>
  <outline>
    <contour>
      <point x="38.4" y="880.0" type="line"/>
      <point x="158.4" y="880.0" type="line"/>
      <point x="158.4" y="1000.0" type="line"/>
      <point x="38.4" y="1000.0" type="line"/>
    </contour>
    <contour>
      <point x="198.4" y="880.0" type="line"/>
      <point x="318.4" y="880.0" type="line"/>
      <point x="318.4" y="1000.0" type="line"/>
      <point x="198.4" y="1000.0" type="line"/>
    </contour>
  </outline>
</glyph>
<glyph name="copyright" format="2">
  <advance width="896.51422"/>
  <unicode hex="00A9"/>
  <outline>
    <contour>
      <point x="798.1142199999999" y="544.91556" type="line"/>
      <point x="593.17267" y="749.85711" type="line"/>
      <point x="303.34155" y="749.85711" type="line"/>
      <point x="98.4" y="544.91556" type="line"/>
      <point x="98.4" y="255.08444" type="line"/>
      <point x="303.34155" y="50.14289" type="line"/>
      <point x="593.17267" y="50.14289" type="line"/>
      <point x="798.1142199999999" y="255.08444" type="line"/>
    </contour>
    <contour>
      <point x="374.9211883544922" y="190" type="line"/>
      <point x="300.7571105957031" y="264.16407775878906" type="line"/>
      <point x="300.7571105957031" y="535.8359222412109" type="line"/>
      <point x="374.9211883544922" y="610" type="line"/>
      <point x="420.7571105957031" y="610" type="line"/>
      <point x="420.7571105957031" y="190" type="line"/>
    </contour>
    <contour>
      <point x="580.75711" y="610.0" type="line"/>
      <point x="580.75711" y="490.0" type="line"/>
      <point x="534.92119" y="490.0" type="line"/>
      <point x="460.75711" y="564.16408" type="line"/>
      <point x="460.75711" y="610.0" type="line"/>
    </contour>
    <contour>
      <point x="580.75711" y="190.0" type="line"/>
      <point x="460.75711" y="190.0" type="line"/>
      <point x="460.75711" y="235.83592" type="line"/>
      <point x="534.92119" y="310.0" type="line"/>
      <point x="580.75711" y="310.0" type="line"/>
    </contour>
  </outline>
</glyph>
<glyph name="ordinalfeminine" format="2">
  <advance width="356.8"/>
  <unicode hex="00AA"/>
  <outline>
    <contour>
      <point x="112.56407928466797" y="400" type="line"/>
      <point x="158.4000015258789" y="400" type="line"/>
      <point x="158.4000015258789" y="800" type="line"/>
      <point x="112.56407928466797" y="800" type="line"/>
      <point x="38.400001525878906" y="725.8359222412109" type="line"/>
      <point x="38.400001525878906" y="474.16407775878906" type="line"/>
    </contour>
    <contour>
      <point x="272.56407928466797" y="400" type="line"/>
      <point x="318.4000015258789" y="400" type="line"/>
      <point x="318.4000015258789" y="800" type="line"/>
      <point x="198.4000015258789" y="800" type="line"/>
      <point x="198.4000015258789" y="474.16407775878906" type="line"/>
    </contour>
  </outline>
</glyph>
<glyph name="registered" format="2">
  <advance width="896.51422"/>
  <unicode hex="00AE"/>
  <outline>
    <contour>
      <point x="798.1142199999999" y="544.91556" type="line"/>
      <point x="593.17267" y="749.85711" type="line"/>
      <point x="303.34155" y="749.85711" type="line"/>
      <point x="98.4" y="544.91556" type="line"/>
      <point x="98.4" y="255.08444" type="line"/>
      <point x="303.34155" y="50.14289" type="line"/>
      <point x="593.17267" y="50.14289" type="line"/>
      <point x="798.1142199999999" y="255.08444" type="line"/>
    </contour>
    <contour>
      <point x="323.2571105957031" y="200" type="line"/>
      <point x="323.2571105957031" y="600" type="line"/>
      <point x="443.2571105957031" y="600" type="line"/>
      <point x="443.2571105957031" y="200" type="line"/>
    </contour>
    <contour>
      <point x="603.25711" y="600.0" type="line"/>
      <point x="603.25711" y="480.0" type="line"/>
      <point x="557.42119" y="480.0" type="line"/>
      <point x="483.25711" y="554.16408" type="line"/>
      <point x="483.25711" y="600.0" type="line"/>
    </contour>
  </outline>
</glyph>
<glyph name="degree" format="2">
  <advance width="246.8"/>
  <unicode hex="00B0"/>
  <outline>
    <contour>
      <point x="103.4" y="805.0" type="line"/>
      <point x="78.57221000000001" y="805.0" type="line"/>
      <point x="38.4" y="764.82779" type="line"/>
      <point x="38.4" y="715.17221" type="line"/>
      <point x="78.57221000000001" y="675.0" type="line"/>
      <point x="103.4" y="675.0" type="line"/>
    </contour>
    <contour>
      <point x="143.4" y="675.0" type="line"/>
      <point x="168.22779" y="675.0" type="line"/>
      <point x="208.4" y="715.17221" type="line"/>
      <point x="208.4" y="764.82779" type="line"/>
      <point x="168.22779" y="805.0" type="line"/>
      <point x="143.4" y="805.0" type="line"/>
    </contour>
  </outline>
</glyph>
<glyph name="plus_minus" format="2">
  <advance width="516.8"/>
  <unicode hex="00B1"/>
  <outline>
    <contour>
      <point x="198.4000015258789" y="300" type="line"/>
      <point x="318.4000015258789" y="300" type="line"/>
      <point x="318.4000015258789" y="440" type="line"/>
      <point x="438.4000015258789" y="440" type="line"/>
      <point x="438.4000015258789" y="560" type="line"/>
      <point x="318.4000015258789" y="560" type="line"/>
      <point x="318.4000015258789" y="700" type="line"/>
      <point x="198.4000015258789" y="700" type="line"/>
      <point x="198.4000015258789" y="560" type="line"/>
      <point x="78.4000015258789" y="560" type="line"/>
      <point x="78.4000015258789" y="440" type="line"/>
      <point x="198.4000015258789" y="440" type="line"/>
    </contour>
    <contour>
      <point x="78.4000015258789" y="140" type="line"/>
      <point x="438.4000015258789" y="140" type="line"/>
      <point x="438.4000015258789" y="260" type="line"/>
      <point x="78.4000015258789" y="260" type="line"/>
    </contour>
  </outline>
</glyph>
<glyph name="sup_two" format="2">
  <advance width="356.8"/>
  <unicode hex="00B2"/>
  <outline>
    <contour>
      <point x="158.4" y="685.0" type="line"/>
      <point x="158.4" y="805.0" type="line"/>
      <point x="112.56407999999999" y="805.0" type="line"/>
      <point x="38.4" y="730.83592" type="line"/>
      <point x="38.4" y="685.0" type="line"/>
    </contour>
    <contour>
      <point x="244.23592376708984" y="357" type="line"/>
      <point x="318.4000015258789" y="431.16407775878906" type="line"/>
      <point x="318.4000015258789" y="730.8359222412109" type="line"/>
      <point x="244.23592376708984" y="805" type="line"/>
      <point x="198.4000015258789" y="805" type="line"/>
      <point x="198.4000015258789" y="357" type="line"/>
    </contour>
    <contour>
      <point x="38.400001525878906" y="245.83592224121094" type="line"/>
      <point x="38.400001525878906" y="200" type="line"/>
      <point x="318.4000015258789" y="200" type="line"/>
      <point x="318.4000015258789" y="320" type="line"/>
      <point x="112.56407928466797" y="320" type="line"/>
    </contour>
  </outline>
</glyph>
<glyph name="sup_three" format="2">
  <advance width="356.8"/>
  <unicode hex="00B3"/>
  <outline>
    <contour>
      <point x="38.4" y="800.0" type="line"/>
      <point x="38.4" y="680.0" type="line"/>
      <point x="84.23592" y="680.0" type="line"/>
      <point x="158.4" y="754.16408" type="line"/>
      <point x="158.4" y="800.0" type="line"/>
    </contour>
    <contour>
      <point x="244.23592376708984" y="195" type="line"/>
      <point x="318.4000015258789" y="269.16407775878906" type="line"/>
      <point x="318.4000015258789" y="525.8359222412109" type="line"/>
      <point x="244.23592376708984" y="600" type="line"/>
      <point x="318.4000015258789" y="674.1640777587891" type="line"/>
      <point x="318.4000015258789" y="800" type="line"/>
      <point x="198.4000015258789" y="800" type="line"/>
      <point x="198.4000015258789" y="195" type="line"/>
    </contour>
    <contour>
      <point x="158.4" y="315.0" type="line"/>
      <point x="38.4" y="315.0" type="line"/>
      <point x="38.4" y="269.16408" type="line"/>
      <point x="112.56407999999999" y="195.0" type="line"/>
      <point x="158.4" y="195.0" type="line"/>
    </contour>
  </outline>
</glyph>
<glyph name="acute" format="2">
  <advance width="196.8"/>
  <unicode hex="00B4"/>
  <outline>
    <contour>
      <point x="90.9" y="920.0" type="line"/>
      <point x="90.9" y="800.0" type="line"/>
      <point x="136.73592" y="800.0" type="line"/>
      <point x="210.9" y="874.16408" type="line"/>
      <point x="210.9" y="920.0" type="line"/>
    </contour>
  </outline>
</glyph>
<glyph name="mu" format="2">
  <advance width="396.8"/>
  <unicode hex="00B5"/>
  <outline>
    <contour>
      <point x="38.400001525878906" y="-200" type="line"/>
      <point x="158.4000015258789" y="-200" type="line"/>
      <point x="158.4000015258789" y="600" type="line"/>
      <point x="38.400001525878906" y="600" type="line"/>
    </contour>
    <contour>
      <point x="272.56407928466797" y="0" type="line"/>
      <point x="358.4000015258789" y="0" type="line"/>
      <point x="358.4000015258789" y="120" type="line"/>
      <point x="318.4000015258789" y="120" type="line"/>
      <point x="318.4000015258789" y="600" type="line"/>
      <point x="198.4000015258789" y="600" type="line"/>
      <point x="198.4000015258789" y="74.16407775878906" type="line"/>
    </contour>
  </outline>
</glyph>
<glyph name="periodcentered" format="2">
  <advance width="196.8"/>
  <unicode hex="00B7"/>
  <outline>
    <contour>
      <point x="38.4" y="340.0" type="line"/>
      <point x="158.4" y="340.0" type="line"/>
      <point x="158.4" y="460.0" type="line"/>
      <point x="38.4" y="460.0" type="line"/>
    </contour>
  </outline>
</glyph>
<glyph name="cedilla" format="2">
  <advance width="196.8"/>
  <unicode hex="00B8"/>
  <outline>
    <contour>
      <point x="90.9" y="-120.0" type="line"/>
      <point x="210.9" y="-120.0" type="line"/>
      <point x="210.9" y="-74.16408" type="line"/>
      <point x="136.73592" y="0.0" type="line"/>
      <point x="90.9" y="0.0" type="line"/>
    </contour>
  </outline>
</glyph>
<glyph name="angledblright" format="2">
  <advance width="356.8"/>
  <unicode hex="00BB"/>
  <outline>
    <contour>
      <point x="84.23592376708984" y="280" type="line"/>
      <point x="158.4000015258789" y="354.16407775878906" type="line"/>
      <point x="158.4000015258789" y="445.83592224121094" type="line"/>
      <point x="84.23592376708984" y="520" type="line"/>
      <point x="38.400001525878906" y="520" type="line"/>
      <point x="38.400001525878906" y="280" type="line"/>
    </contour>
    <contour>
      <point x="244.23592376708984" y="280" type="line"/>
      <point x="318.4000015258789" y="354.16407775878906" type="line"/>
      <point x="318.4000015258789" y="445.83592224121094" type="line"/>
      <point x="244.23592376708984" y="520" type="line"/>
      <point x="198.4000015258789" y="520" type="line"/>
      <point x="198.4000015258789" y="280" type="line"/>
    </contour>
  </outline>
</glyph>
<glyph name="one_over_four" format="2">
  <advance width="676.8"/>
  <unicode hex="00BC"/>
  <outline>
    <contour>
      <point x="18.400001525878906" y="200" type="line"/>
      <point x="138.4000015258789" y="200" type="line"/>
      <point x="138.4000015258789" y="800" type="line"/>
      <point x="18.400001525878906" y="800" type="line"/>
    </contour>
    <contour>
      <point x="244.23592376708984" y="-200" type="line"/>
      <point x="318.4000015258789" y="-125.83592224121094" type="line"/>
      <point x="318.4000015258789" y="800" type="line"/>
      <point x="272.56407928466797" y="800" type="line"/>
      <point x="198.4000015258789" y="725.8359222412109" type="line"/>
      <point x="198.4000015258789" y="-200" type="line"/>
    </contour>
    <contour>
      <point x="424.23592376708984" y="0" type="line"/>
      <point x="498.4000015258789" y="74.16407775878906" type="line"/>
      <point x="498.4000015258789" y="400" type="line"/>
      <point x="378.4000015258789" y="400" type="line"/>
      <point x="378.4000015258789" y="0" type="line"/>
    </contour>
    <contour>
      <point x="538.4000015258789" y="-200" type="line"/>
      <point x="658.4000015258789" y="-200" type="line"/>
      <point x="658.4000015258789" y="200" type="line"/>
      <point x="538.4000015258789" y="200" type="line"/>
    </contour>
  </outline>
</glyph>
<glyph name="three_over_four" format="2">
  <advance width="836.8"/>
  <unicode hex="00BE"/>
  <outline>
    <contour>
      <point x="18.4" y="800.0" type="line"/>
      <point x="18.4" y="680.0" type="line"/>
      <point x="64.23592" y="680.0" type="line"/>
      <point x="138.4" y="754.16408" type="line"/>
      <point x="138.4" y="800.0" type="line"/>
    </contour>
    <contour>
      <point x="224.23592376708984" y="195" type="line"/>
      <point x="298.4000015258789" y="269.16407775878906" type="line"/>
      <point x="298.4000015258789" y="525.8359222412109" type="line"/>
      <point x="224.23592376708984" y="600" type="line"/>
      <point x="298.4000015258789" y="674.1640777587891" type="line"/>
      <point x="298.4000015258789" y="800" type="line"/>
      <point x="178.4000015258789" y="800" type="line"/>
      <point x="178.4000015258789" y="195" type="line"/>
    </contour>
    <contour>
      <point x="404.23592376708984" y="-200" type="line"/>
      <point x="478.4000015258789" y="-125.83592224121094" type="line"/>
      <point x="478.4000015258789" y="800" type="line"/>
      <point x="432.56407928466797" y="800" type="line"/>
      <point x="358.4000015258789" y="725.8359222412109" type="line"/>
      <point x="358.4000015258789" y="-200" type="line"/>
    </contour>
    <contour>
      <point x="584.2359237670898" y="0" type="line"/>
      <point x="658.4000015258789" y="74.16407775878906" type="line"/>
      <point x="658.4000015258789" y="400" type="line"/>
      <point x="538.4000015258789" y="400" type="line"/>
      <point x="538.4000015258789" y="0" type="line"/>
    </contour>
    <contour>
      <point x="138.4" y="315.0" type="line"/>
      <point x="18.4" y="315.0" type="line"/>
      <point x="18.4" y="269.16408" type="line"/>
      <point x="92.56407999999999" y="195.0" type="line"/>
      <point x="138.4" y="195.0" type="line"/>
    </contour>
    <contour>
      <point x="698.4000015258789" y="-200" type="line"/>
      <point x="818.4000015258789" y="-200" type="line"/>
      <point x="818.4000015258789" y="200" type="line"/>
      <point x="698.4000015258789" y="200" type="line"/>
    </contour>
  </outline>
</glyph>
<glyph name="invquestion" format="2">
  <advance width="356.8"/>
  <unicode hex="00BF"/>
  <outline>
    <contour>
      <point x="198.4" y="480.0" type="line"/>
      <point x="318.4" y="480.0" type="line"/>
      <point x="318.4" y="600.0" type="line"/>
      <point x="198.4" y="600.0" type="line"/>
    </contour>
    <contour>
      <point x="198.4000015258789" y="386.6666717529297" type="line"/>
      <point x="198.4000015258789" y="85" type="line"/>
      <point x="244.23592376708984" y="85" type="line"/>
      <point x="318.4000015258789" y="159.16407775878906" type="line"/>
      <point x="318.4000015258789" y="386.6666717529297" type="line"/>
    </contour>
    <contour>
      <point x="112.56407928466797" y="-205" type="line"/>
      <point x="158.4000015258789" y="-205" type="line"/>
      <point x="158.4000015258789" y="195" type="line"/>
      <point x="112.56407928466797" y="195" type="line"/>
      <point x="38.400001525878906" y="120.83592224121094" type="line"/>
      <point x="38.400001525878906" y="-130.83592224121094" type="line"/>
    </contour>
    <contour>
      <point x="318.4" y="-205.0" type="line"/>
      <point x="318.4" y="-85.0" type="line"/>
      <point x="272.56408" y="-85.0" type="line"/>
      <point x="198.4" y="-159.16408" type="line"/>
      <point x="198.4" y="-205.0" type="line"/>
    </contour>
  </outline>
</glyph>
<glyph name="A_with_circumflex" format="2">
  <advance width="356.8"/>
  <unicode hex="00C2"/>
  <outline>
    <contour>
      <point x="54.650000000000006" y="964.4444444444445" type="line"/>
      <point x="54.650000000000006" y="844.4444444444445" type="line"/>
      <point x="100.48592000000001" y="844.4444444444445" type="line"/>
      <point x="174.65" y="918.6085244444445" type="line"/>
      <point x="174.65" y="964.4444444444445" type="line"/>
    </contour>
    <contour>
      <point x="302.15" y="964.4444444444445" type="line"/>
      <point x="182.15" y="964.4444444444445" type="line"/>
      <point x="182.15" y="918.6085244444445" type="line"/>
      <point x="256.31408" y="844.4444444444445" type="line"/>
      <point x="302.15" y="844.4444444444445" type="line"/>
    </contour>
    <contour>
      <point x="38.400001525878906" y="0" type="line"/>
      <point x="158.4000015258789" y="0" type="line"/>
      <point x="158.4000015258789" y="805" type="line"/>
      <point x="112.56407928466797" y="805" type="line"/>
      <point x="38.400001525878906" y="730.8359222412109" type="line"/>
    </contour>
    <contour>
      <point x="198.4000015258789" y="0" type="line"/>
      <point x="318.4000015258789" y="0" type="line"/>
      <point x="318.4000015258789" y="730.8359222412109" type="line"/>
      <point x="244.23592376708984" y="805" type="line"/>
      <point x="198.4000015258789" y="805" type="line"/>
    </contour>
  </outline>
</glyph>
<glyph name="A_with_diaeresis" format="2">
  <advance width="356.8"/>
  <unicode hex="00C4"/>
  <outline>
    <contour>
      <point x="38.400000000000006" y="924.4444444444445" type="line"/>
      <point x="158.4" y="924.4444444444445" type="line"/>
      <point x="158.4" y="1044.4444444444443" type="line"/>
      <point x="38.400000000000006" y="1044.4444444444443" type="line"/>
    </contour>
    <contour>
      <point x="198.4" y="924.4444444444445" type="line"/>
      <point x="318.4" y="924.4444444444445" type="line"/>
      <point x="318.4" y="1044.4444444444443" type="line"/>
      <point x="198.4" y="1044.4444444444443" type="line"/>
    </contour>
    <contour>
      <point x="38.400001525878906" y="0" type="line"/>
      <point x="158.4000015258789" y="0" type="line"/>
      <point x="158.4000015258789" y="805" type="line"/>
      <point x="112.56407928466797" y="805" type="line"/>
      <point x="38.400001525878906" y="730.8359222412109" type="line"/>
    </contour>
    <contour>
      <point x="198.4000015258789" y="0" type="line"/>
      <point x="318.4000015258789" y="0" type="line"/>
      <point x="318.4000015258789" y="730.8359222412109" type="line"/>
      <point x="244.23592376708984" y="805" type="line"/>
      <point x="198.4000015258789" y="805" type="line"/>
    </contour>
  </outline>
</glyph>
<glyph name="A_with_ring" format="2">
  <advance width="356.8"/>
  <unicode hex="00C5"/>
  <outline>
    <contour>
      <point x="158.4" y="969.4444444444445" type="line"/>
      <point x="133.57221" y="969.4444444444445" type="line"/>
      <point x="93.4" y="929.2722344444444" type="line"/>
      <point x="93.4" y="879.6166544444444" type="line"/>
      <point x="133.57221" y="839.4444444444445" type="line"/>
      <point x="158.4" y="839.4444444444445" type="line"/>
    </contour>
    <contour>
      <point x="198.4" y="839.4444444444445" type="line"/>
      <point x="223.22779" y="839.4444444444445" type="line"/>
      <point x="263.4" y="879.6166544444444" type="line"/>
      <point x="263.4" y="929.2722344444444" type="line"/>
      <point x="223.22779" y="969.4444444444445" type="line"/>
      <point x="198.4" y="969.4444444444445" type="line"/>
    </contour>
    <contour>
      <point x="38.400001525878906" y="0" type="line"/>
      <point x="158.4000015258789" y="0" type="line"/>
      <point x="158.4000015258789" y="805" type="line"/>
      <point x="112.56407928466797" y="805" type="line"/>
      <point x="38.400001525878906" y="730.8359222412109" type="line"/>
    </contour>
    <contour>
      <point x="198.4000015258789" y="0" type="line"/>
      <point x="318.4000015258789" y="0" type="line"/>
      <point x="318.4000015258789" y="730.8359222412109" type="line"/>
      <point x="244.23592376708984" y="805" type="line"/>
      <point x="198.4000015258789" y="805" type="line"/>
    </contour>
  </outline>
</glyph>
<glyph name="AE" format="2">
  <advance width="676.8"/>
  <unicode hex="00C6"/>
  <outline>
    <contour>
      <point x="38.400001525878906" y="0" type="line"/>
      <point x="158.4000015258789" y="0" type="line"/>
      <point x="158.4000015258789" y="805" type="line"/>
      <point x="112.56407928466797" y="805" type="line"/>
      <point x="38.400001525878906" y="730.8359222412109" type="line"/>
    </contour>
    <contour>
      <point x="198.4000015258789" y="0" type="line"/>
      <point x="318.4000015258789" y="0" type="line"/>
      <point x="318.4000015258789" y="730.8359222412109" type="line"/>
      <point x="244.23592376708984" y="805" type="line"/>
      <point x="198.4000015258789" y="805" type="line"/>
    </contour>
    <contour>
      <point x="358.4000015258789" y="0" type="line"/>
      <point x="478.4000015258789" y="0" type="line"/>
      <point x="478.4000015258789" y="800" type="line"/>
      <point x="358.4000015258789" y="800" type="line"/>
    </contour>
    <contour>
      <point x="638.4" y="800.0" type="line"/>
      <point x="518.4" y="800.0" type="line"/>
      <point x="518.4" y="754.16408" type="line"/>
      <point x="592.56408" y="680.0" type="line"/>
      <point x="638.4" y="680.0" type="line"/>
    </contour>
    <contour>
      <point x="638.4" y="500.0" type="line"/>
      <point x="518.4" y="500.0" type="line"/>
      <point x="518.4" y="454.16408" type="line"/>
      <point x="592.56408" y="380.0" type="line"/>
      <point x="638.4" y="380.0" type="line"/>
    </contour>
    <contour>
      <point x="638.4" y="0.0" type="line"/>
      <point x="638.4" y="120.0" type="line"/>
      <point x="592.56408" y="120.0" type="line"/>
      <point x="518.4" y="45.83592" type="line"/>
      <point x="518.4" y="0.0" type="line"/>
    </contour>
  </outline>
</glyph>
<glyph name="C_with_cedilla" format="2">
  <advance width="356.8"/>
  <unicode hex="00C7"/>
  <outline>
    <contour>
      <point x="112.56407928466797" y="0" type="line"/>
      <point x="158.4000015258789" y="0" type="line"/>
      <point x="158.4000015258789" y="800" type="line"/>
      <point x="112.56407928466797" y="800" type="line"/>
      <point x="38.400001525878906" y="725.8359222412109" type="line"/>
      <point x="38.400001525878906" y="74.16407775878906" type="line"/>
    </contour>
    <contour>
      <point x="272.56407928466797" y="480" type="line"/>
      <point x="318.4000015258789" y="480" type="line"/>
      <point x="318.4000015258789" y="800" type="line"/>
      <point x="198.4000015258789" y="800" type="line"/>
      <point x="198.4000015258789" y="554.1640777587891" type="line"/>
    </contour>
    <contour>
      <point x="318.4" y="0.0" type="line"/>
      <point x="318.4" y="120.0" type="line"/>
      <point x="272.56408" y="120.0" type="line"/>
      <point x="198.4" y="45.83592" type="line"/>
      <point x="198.4" y="0.0" type="line"/>
    </contour>
    <contour>
      <point x="170.9" y="-145.0" type="line"/>
      <point x="290.9" y="-145.0" type="line"/>
      <point x="290.9" y="-99.16408" type="line"/>
      <point x="216.73592000000002" y="-25.0" type="line"/>
      <point x="170.9" y="-25.0" type="line"/>
    </contour>
  </outline>
</glyph>
<glyph name="I_with_grave" format="2">
  <advance width="196.8"/>
  <unicode hex="00CC"/>
  <outline>
    <contour>
      <point x="105.9" y="964.4444444444445" type="line"/>
      <point x="-14.099999999999994" y="964.4444444444445" type="line"/>
      <point x="-14.099999999999994" y="918.6085244444445" type="line"/>
      <point x="60.064080000000004" y="844.4444444444445" type="line"/>
      <point x="105.9" y="844.4444444444445" type="line"/>
    </contour>
    <contour>
      <point x="38.400001525878906" y="0" type="line"/>
      <point x="158.4000015258789" y="0" type="line"/>
      <point x="158.4000015258789" y="800" type="line"/>
      <point x="38.400001525878906" y="800" type="line"/>
    </contour>
  </outline>
</glyph>
<glyph name="I_with_acute" format="2">
  <advance width="196.8"/>
  <unicode hex="00CD"/>
  <outline>
    <contour>
      <point x="90.9" y="964.4444444444445" type="line"/>
      <point x="90.9" y="844.4444444444445" type="line"/>
      <point x="136.73592000000002" y="844.4444444444445" type="line"/>
      <point x="210.9" y="918.6085244444445" type="line"/>
      <point x="210.9" y="964.4444444444445" type="line"/>
    </contour>
    <contour>
      <point x="38.400001525878906" y="0" type="line"/>
      <point x="158.4000015258789" y="0" type="line"/>
      <point x="158.4000015258789" y="800" type="line"/>
      <point x="38.400001525878906" y="800" type="line"/>
    </contour>
  </outline>
</glyph>
<glyph name="I_with_circumflex" format="2">
  <advance width="196.8"/>
  <unicode hex="00CE"/>
  <outline>
    <contour>
      <point x="-25.349999999999994" y="964.4444444444445" type="line"/>
      <point x="-25.349999999999994" y="844.4444444444445" type="line"/>
      <point x="20.485920000000007" y="844.4444444444445" type="line"/>
      <point x="94.65" y="918.6085244444445" type="line"/>
      <point x="94.65" y="964.4444444444445" type="line"/>
    </contour>
    <contour>
      <point x="222.15" y="964.4444444444445" type="line"/>
      <point x="102.15" y="964.4444444444445" type="line"/>
      <point x="102.15" y="918.6085244444445" type="line"/>
      <point x="176.31408000000002" y="844.4444444444445" type="line"/>
      <point x="222.15" y="844.4444444444445" type="line"/>
    </contour>
    <contour>
      <point x="38.400001525878906" y="0" type="line"/>
      <point x="158.4000015258789" y="0" type="line"/>
      <point x="158.4000015258789" y="800" type="line"/>
      <point x="38.400001525878906" y="800" type="line"/>
    </contour>
  </outline>
</glyph>
<glyph name="I_with_diaeresis" format="2">
  <advance width="196.8"/>
  <unicode hex="00CF"/>
  <outline>
    <contour>
      <point x="-41.599999999999994" y="924.4444444444445" type="line"/>
      <point x="78.4" y="924.4444444444445" type="line"/>
      <point x="78.4" y="1044.4444444444443" type="line"/>
      <point x="-41.599999999999994" y="1044.4444444444443" type="line"/>
    </contour>
    <contour>
      <point x="118.4" y="924.4444444444445" type="line"/>
      <point x="238.4" y="924.4444444444445" type="line"/>
      <point x="238.4" y="1044.4444444444443" type="line"/>
      <point x="118.4" y="1044.4444444444443" type="line"/>
    </contour>
    <contour>
      <point x="38.400001525878906" y="0" type="line"/>
      <point x="158.4000015258789" y="0" type="line"/>
      <point x="158.4000015258789" y="800" type="line"/>
      <point x="38.400001525878906" y="800" type="line"/>
    </contour>
  </outline>
</glyph>
<glyph name="ETH" format="2">
  <advance width="516.8"/>
  <unicode hex="00D0"/>
  <outline>
    <contour>
      <point x="198.4000015258789" y="0" type="line"/>
      <point x="318.4000015258789" y="0" type="line"/>
      <point x="318.4000015258789" y="800" type="line"/>
      <point x="198.4000015258789" y="800" type="line"/>
      <point x="198.4000015258789" y="460" type="line"/>
      <point x="187.56407928466797" y="460" type="line"/>
      <point x="113.4000015258789" y="385.83592224121094" type="line"/>
      <point x="113.4000015258789" y="340" type="line"/>
      <point x="198.4000015258789" y="340" type="line"/>
    </contour>
    <contour>
      <point x="404.23592376708984" y="0" type="line"/>
      <point x="478.4000015258789" y="74.16407775878906" type="line"/>
      <point x="478.4000015258789" y="725.8359222412109" type="line"/>
      <point x="404.23592376708984" y="800" type="line"/>
      <point x="358.4000015258789" y="800" type="line"/>
      <point x="358.4000015258789" y="0" type="line"/>
    </contour>
  </outline>
</glyph>
<glyph name="N_with_smalltilde" format="2">
  <advance width="356.8"/>
  <unicode hex="00D1"/>
  <outline>
    <contour>
      <point x="58.400001525878906" y="890.2803649902344" type="line"/>
      <point x="58.400001525878906" y="844.4444427490234" type="line"/>
      <point x="224.23592376708984" y="844.4444427490234" type="line"/>
      <point x="298.4000015258789" y="918.608528137207" type="line"/>
      <point x="298.4000015258789" y="964.4444427490234" type="line"/>
      <point x="132.56407928466797" y="964.4444427490234" type="line"/>
    </contour>
    <contour>
      <point x="38.400001525878906" y="0" type="line"/>
      <point x="158.4000015258789" y="0" type="line"/>
      <point x="158.4000015258789" y="800" type="line"/>
      <point x="38.400001525878906" y="800" type="line"/>
    </contour>
    <contour>
      <point x="198.4000015258789" y="0" type="line"/>
      <point x="318.4000015258789" y="0" type="line"/>
      <point x="318.4000015258789" y="725.8359222412109" type="line"/>
      <point x="244.23592376708984" y="800" type="line"/>
      <point x="198.4000015258789" y="800" type="line"/>
    </contour>
  </outline>
</glyph>
<glyph name="multiply" format="2">
  <advance width="356.8"/>
  <unicode hex="00D7"/>
  <outline>
    <contour>
      <point x="38.400001525878906" y="200" type="line"/>
      <point x="158.4000015258789" y="200" type="line"/>
      <point x="158.4000015258789" y="600" type="line"/>
      <point x="38.400001525878906" y="600" type="line"/>
      <point x="38.400001525878906" y="474.16407775878906" type="line"/>
      <point x="112.56407928466797" y="400" type="line"/>
      <point x="38.400001525878906" y="325.83592224121094" type="line"/>
    </contour>
    <contour>
      <point x="198.4000015258789" y="200" type="line"/>
      <point x="318.4000015258789" y="200" type="line"/>
      <point x="318.4000015258789" y="325.83592224121094" type="line"/>
      <point x="244.23592376708984" y="400" type="line"/>
      <point x="318.4000015258789" y="474.16407775878906" type="line"/>
      <point x="318.4000015258789" y="600" type="line"/>
      <point x="198.4000015258789" y="600" type="line"/>
    </contour>
  </outline>
</glyph>
<glyph name="O_with_stroke" format="2">
  <advance width="356.8"/>
  <unicode hex="00D8"/>
  <outline>
    <contour>
      <point x="228.4000015258789" y="860" type="line"/>
      <point x="228.4000015258789" y="805" type="line"/>
      <point x="198.4000015258789" y="805" type="line"/>
      <point x="198.4000015258789" y="-5" type="line"/>
      <point x="244.23592376708984" y="-5" type="line"/>
      <point x="318.4000015258789" y="69.16407775878906" type="line"/>
      <point x="318.4000015258789" y="730.8359222412109" type="line"/>
      <point x="291.73592376708984" y="757.5" type="line"/>
      <point x="348.4000015258789" y="814.1640777587891" type="line"/>
      <point x="348.4000015258789" y="860" type="line"/>
    </contour>
    <contour>
      <point x="128.4000015258789" y="-60" type="line"/>
      <point x="128.4000015258789" y="-5" type="line"/>
      <point x="158.4000015258789" y="-5" type="line"/>
      <point x="158.4000015258789" y="805" type="line"/>
      <point x="112.56407928466797" y="805" type="line"/>
      <point x="38.400001525878906" y="730.8359222412109" type="line"/>
      <point x="38.400001525878906" y="69.16407775878906" type="line"/>
      <point x="65.06407928466797" y="42.5" type="line"/>
      <point x="8.400001525878906" y="-14.164077758789062" type="line"/>
      <point x="8.400001525878906" y="-60" type="line"/>
    </contour>
  </outline>
</glyph>
<glyph name="THORN" format="2">
  <advance width="356.8"/>
  <unicode hex="00DE"/>
  <outline>
    <contour>
      <point x="38.400001525878906" y="0" type="line"/>
      <point x="158.4000015258789" y="0" type="line"/>
      <point x="158.4000015258789" y="800" type="line"/>
      <point x="38.400001525878906" y="800" type="line"/>
    </contour>
    <contour>
      <point x="244.23592376708984" y="100" type="line"/>
      <point x="318.4000015258789" y="174.16407775878906" type="line"/>
      <point x="318.4000015258789" y="625.8359222412109" type="line"/>
      <point x="244.23592376708984" y="700" type="line"/>
      <point x="198.4000015258789" y="700" type="line"/>
      <point x="198.4000015258789" y="100" type="line"/>
    </contour>
  </outline>
</glyph>
<glyph name="ae" format="2">
  <advance width="676.8"/>
  <unicode hex="00E6"/>
  <outline>
    <contour>
      <point x="244.23592376708984" y="-5" type="line"/>
      <point x="318.4000015258789" y="69.16407775878906" type="line"/>
      <point x="318.4000015258789" y="530.8359222412109" type="line"/>
      <point x="244.23592376708984" y="605" type="line"/>
      <point x="198.4000015258789" y="605" type="line"/>
      <point x="198.4000015258789" y="-5" type="line"/>
    </contour>
    <contour>
      <point x="432.56407928466797" y="-5" type="line"/>
      <point x="478.4000015258789" y="-5" type="line"/>
      <point x="478.4000015258789" y="605" type="line"/>
      <point x="432.56407928466797" y="605" type="line"/>
      <point x="358.4000015258789" y="530.8359222412109" type="line"/>
      <point x="358.4000015258789" y="69.16407775878906" type="line"/>
    </contour>
    <contour>
      <point x="518.4000015258789" y="195" type="line"/>
      <point x="638.4000015258789" y="195" type="line"/>
      <point x="638.4000015258789" y="530.8359222412109" type="line"/>
      <point x="564.2359237670898" y="605" type="line"/>
      <point x="518.4000015258789" y="605" type="line"/>
    </contour>
    <contour>
      <point x="40.275" y="600.0" type="line"/>
      <point x="40.275" y="480.0" type="line"/>
      <point x="86.11092" y="480.0" type="line"/>
      <point x="160.275" y="554.16408" type="line"/>
      <point x="160.275" y="600.0" type="line"/>
    </contour>
    <contour>
      <point x="112.56407928466797" y="-5" type="line"/>
      <point x="158.4000015258789" y="-5" type="line"/>
      <point x="158.4000015258789" y="395" type="line"/>
      <point x="112.56407928466797" y="395" type="line"/>
      <point x="38.400001525878906" y="320.83592224121094" type="line"/>
      <point x="38.400001525878906" y="69.16407775878906" type="line"/>
    </contour>
  </outline>
</glyph>
<glyph name="i_with_circumflex" format="2">
  <advance width="196.8"/>
  <unicode hex="00EE"/>
  <outline>
    <contour>
      <point x="-25.349999999999994" y="764.4444444444445" type="line"/>
      <point x="-25.349999999999994" y="644.4444444444445" type="line"/>
      <point x="20.485920000000007" y="644.4444444444445" type="line"/>
      <point x="94.65" y="718.6085244444445" type="line"/>
      <point x="94.65" y="764.4444444444445" type="line"/>
    </contour>
    <contour>
      <point x="222.15" y="764.4444444444445" type="line"/>
      <point x="102.15" y="764.4444444444445" type="line"/>
      <point x="102.15" y="718.6085244444445" type="line"/>
      <point x="176.31408000000002" y="644.4444444444445" type="line"/>
      <point x="222.15" y="644.4444444444445" type="line"/>
    </contour>
    <contour>
      <point x="38.400001525878906" y="0" type="line"/>
      <point x="158.4000015258789" y="0" type="line"/>
      <point x="158.4000015258789" y="600" type="line"/>
      <point x="38.400001525878906" y="600" type="line"/>
    </contour>
  </outline>
</glyph>
<glyph name="i_with_diaeresis" format="2">
  <advance width="196.8"/>
  <unicode hex="00EF"/>
  <outline>
    <contour>
      <point x="-41.599999999999994" y="724.4444444444445" type="line"/>
      <point x="78.4" y="724.4444444444445" type="line"/>
      <point x="78.4" y="844.4444444444445" type="line"/>
      <point x="-41.599999999999994" y="844.4444444444445" type="line"/>
    </contour>
    <contour>
      <point x="118.4" y="724.4444444444445" type="line"/>
      <point x="238.4" y="724.4444444444445" type="line"/>
      <point x="238.4" y="844.4444444444445" type="line"/>
      <point x="118.4" y="844.4444444444445" type="line"/>
    </contour>
    <contour>
      <point x="38.400001525878906" y="0" type="line"/>
      <point x="158.4000015258789" y="0" type="line"/>
      <point x="158.4000015258789" y="600" type="line"/>
      <point x="38.400001525878906" y="600" type="line"/>
    </contour>
  </outline>
</glyph>
<glyph name="divide" format="2">
  <advance width="516.8"/>
  <unicode hex="00F7"/>
  <outline>
    <contour>
      <point x="198.4" y="550.0" type="line"/>
      <point x="318.4" y="550.0" type="line"/>
      <point x="318.4" y="670.0" type="line"/>
      <point x="198.4" y="670.0" type="line"/>
    </contour>
    <contour>
      <point x="78.4000015258789" y="340" type="line"/>
      <point x="438.4000015258789" y="340" type="line"/>
      <point x="438.4000015258789" y="460" type="line"/>
      <point x="78.4000015258789" y="460" type="line"/>
    </contour>
    <contour>
      <point x="198.4" y="130.0" type="line"/>
      <point x="318.4" y="130.0" type="line"/>
      <point x="318.4" y="250.0" type="line"/>
      <point x="198.4" y="250.0" type="line"/>
    </contour>
  </outline>
</glyph>
<glyph name="o_with_stroke" format="2">
  <advance width="356.8"/>
  <unicode hex="00F8"/>
  <outline>
    <contour>
      <point x="228.4000015258789" y="660" type="line"/>
      <point x="228.4000015258789" y="605" type="line"/>
      <point x="198.4000015258789" y="605" type="line"/>
      <point x="198.4000015258789" y="-5" type="line"/>
      <point x="244.23592376708984" y="-5" type="line"/>
      <point x="318.4000015258789" y="69.16407775878906" type="line"/>
      <point x="318.4000015258789" y="530.8359222412109" type="line"/>
      <point x="291.73592376708984" y="557.5" type="line"/>
      <point x="348.4000015258789" y="614.1640777587891" type="line"/>
      <point x="348.4000015258789" y="660" type="line"/>
    </contour>
    <contour>
      <point x="128.4000015258789" y="-60" type="line"/>
      <point x="128.4000015258789" y="-5" type="line"/>
      <point x="158.4000015258789" y="-5" type="line"/>
      <point x="158.4000015258789" y="605" type="line"/>
      <point x="112.56407928466797" y="605" type="line"/>
      <point x="38.400001525878906" y="530.8359222412109" type="line"/>
      <point x="38.400001525878906" y="69.16407775878906" type="line"/>
      <point x="65.06407928466797" y="42.5" type="line"/>
      <point x="8.400001525878906" y="-14.164077758789062" type="line"/>
      <point x="8.400001525878906" y="-60" type="line"/>
    </contour>
  </outline>
</glyph>
<glyph name="u_with_grave" format="2">
  <advance width="356.8"/>
  <unicode hex="00F9"/>
  <outline>
    <contour>
      <point x="185.9" y="764.4444444444445" type="line"/>
      <point x="65.9" y="764.4444444444445" type="line"/>
      <point x="65.9" y="718.6085244444445" type="line"/>
      <point x="140.06408" y="644.4444444444445" type="line"/>
      <point x="185.9" y="644.4444444444445" type="line"/>
    </contour>
    <contour>
      <point x="112.56407928466797" y="-5" type="line"/>
      <point x="158.4000015258789" y="-5" type="line"/>
      <point x="158.4000015258789" y="600" type="line"/>
      <point x="38.400001525878906" y="600" type="line"/>
      <point x="38.400001525878906" y="69.16407775878906" type="line"/>
    </contour>
    <contour>
      <point x="244.23592376708984" y="-5" type="line"/>
      <point x="318.4000015258789" y="69.16407775878906" type="line"/>
      <point x="318.4000015258789" y="600" type="line"/>
      <point x="198.4000015258789" y="600" type="line"/>
      <point x="198.4000015258789" y="-5" type="line"/>
    </contour>
  </outline>
</glyph>
<glyph name="u_with_circumflex" format="2">
  <advance width="356.8"/>
  <unicode hex="00FB"/>
  <outline>
    <contour>
      <point x="54.650000000000006" y="764.4444444444445" type="line"/>
      <point x="54.650000000000006" y="644.4444444444445" type="line"/>
      <point x="100.48592000000001" y="644.4444444444445" type="line"/>
      <point x="174.65" y="718.6085244444445" type="line"/>
      <point x="174.65" y="764.4444444444445" type="line"/>
    </contour>
    <contour>
      <point x="302.15" y="764.4444444444445" type="line"/>
      <point x="182.15" y="764.4444444444445" type="line"/>
      <point x="182.15" y="718.6085244444445" type="line"/>
      <point x="256.31408" y="644.4444444444445" type="line"/>
      <point x="302.15" y="644.4444444444445" type="line"/>
    </contour>
    <contour>
      <point x="112.56407928466797" y="-5" type="line"/>
      <point x="158.4000015258789" y="-5" type="line"/>
      <point x="158.4000015258789" y="600" type="line"/>
      <point x="38.400001525878906" y="600" type="line"/>
      <point x="38.400001525878906" y="69.16407775878906" type="line"/>
    </contour>
    <contour>
      <point x="244.23592376708984" y="-5" type="line"/>
      <point x="318.4000015258789" y="69.16407775878906" type="line"/>
      <point x="318.4000015258789" y="600" type="line"/>
      <point x="198.4000015258789" y="600" type="line"/>
      <point x="198.4000015258789" y="-5" type="line"/>
    </contour>
  </outline>
</glyph>
<glyph name="thorn" format="2">
  <advance width="356.8"/>
  <unicode hex="00FE"/>
  <outline>
    <contour>
      <point x="38.400001525878906" y="-200" type="line"/>
      <point x="158.4000015258789" y="-200" type="line"/>
      <point x="158.4000015258789" y="800" type="line"/>
      <point x="38.400001525878906" y="800" type="line"/>
    </contour>
    <contour>
      <point x="244.23592376708984" y="0" type="line"/>
      <point x="318.4000015258789" y="74.16407775878906" type="line"/>
      <point x="318.4000015258789" y="525.8359222412109" type="line"/>
      <point x="244.23592376708984" y="600" type="line"/>
      <point x="198.4000015258789" y="600" type="line"/>
      <point x="198.4000015258789" y="0" type="line"/>
    </contour>
  </outline>
</glyph>
<glyph name="y_with_diaeresis" format="2">
  <advance width="356.8"/>
  <unicode hex="00FF"/>
  <outline>
    <contour>
      <point x="38.400000000000006" y="724.4444444444445" type="line"/>
      <point x="158.4" y="724.4444444444445" type="line"/>
      <point x="158.4" y="844.4444444444445" type="line"/>
      <point x="38.400000000000006" y="844.4444444444445" type="line"/>
    </contour>
    <contour>
      <point x="198.4" y="724.4444444444445" type="line"/>
      <point x="318.4" y="724.4444444444445" type="line"/>
      <point x="318.4" y="844.4444444444445" type="line"/>
      <point x="198.4" y="844.4444444444445" type="line"/>
    </contour>
    <contour>
      <point x="112.56407928466797" y="5" type="line"/>
      <point x="158.4000015258789" y="5" type="line"/>
      <point x="158.4000015258789" y="525.8359222412109" type="line"/>
      <point x="84.23592376708984" y="600" type="line"/>
      <point x="38.400001525878906" y="600" type="line"/>
      <point x="38.400001525878906" y="79.16407775878906" type="line"/>
    </contour>
    <contour>
      <point x="244.23592376708984" y="-210" type="line"/>
      <point x="318.4000015258789" y="-135.83592224121094" type="line"/>
      <point x="318.4000015258789" y="600" type="line"/>
      <point x="198.4000015258789" y="600" type="line"/>
      <point x="198.4000015258789" y="-210" type="line"/>
    </contour>
    <contour>
      <point x="158.4" y="-90.0" type="line"/>
      <point x="38.4" y="-90.0" type="line"/>
      <point x="38.4" y="-135.83592" type="line"/>
      <point x="112.56407999999999" y="-210.0" type="line"/>
      <point x="158.4" y="-210.0" type="line"/>
    </contour>
  </outline>
</glyph>
<glyph name="A_with_breve" format="2">
  <advance width="356.8"/>
  <unicode hex="0102"/>
  <outline>
    <contour>
      <point x="58.400001525878906" y="918.608528137207" type="line"/>
      <point x="132.56407928466797" y="844.4444427490234" type="line"/>
      <point x="224.23592376708984" y="844.4444427490234" type="line"/>
      <point x="298.4000015258789" y="918.608528137207" type="line"/>
      <point x="298.4000015258789" y="964.4444427490234" type="line"/>
      <point x="58.400001525878906" y="964.4444427490234" type="line"/>
    </contour>
    <contour>
      <point x="38.400001525878906" y="0" type="line"/>
      <point x="158.4000015258789" y="0" type="line"/>
      <point x="158.4000015258789" y="805" type="line"/>
      <point x="112.56407928466797" y="805" type="line"/>
      <point x="38.400001525878906" y="730.8359222412109" type="line"/>
    </contour>
    <contour>
      <point x="198.4000015258789" y="0" type="line"/>
      <point x="318.4000015258789" y="0" type="line"/>
      <point x="318.4000015258789" y="730.8359222412109" type="line"/>
      <point x="244.23592376708984" y="805" type="line"/>
      <point x="198.4000015258789" y="805" type="line"/>
    </contour>
  </outline>
</glyph>
<glyph name="A_with_ogonek" format="2">
  <advance width="356.8"/>
  <unicode hex="0104"/>
  <outline>
    <contour>
      <point x="38.400001525878906" y="0" type="line"/>
      <point x="158.4000015258789" y="0" type="line"/>
      <point x="158.4000015258789" y="805" type="line"/>
      <point x="112.56407928466797" y="805" type="line"/>
      <point x="38.400001525878906" y="730.8359222412109" type="line"/>
    </contour>
    <contour>
      <point x="198.4000015258789" y="0" type="line"/>
      <point x="318.4000015258789" y="0" type="line"/>
      <point x="318.4000015258789" y="730.8359222412109" type="line"/>
      <point x="244.23592376708984" y="805" type="line"/>
      <point x="198.4000015258789" y="805" type="line"/>
    </contour>
    <contour>
      <point x="318.4" y="-145.0" type="line"/>
      <point x="318.4" y="-25.0" type="line"/>
      <point x="272.56408" y="-25.0" type="line"/>
      <point x="198.39999999999998" y="-99.16408" type="line"/>
      <point x="198.39999999999998" y="-145.0" type="line"/>
    </contour>
  </outline>
</glyph>
<glyph name="a_with_ogonek" format="2">
  <advance width="356.8"/>
  <unicode hex="0105"/>
  <outline>
    <contour>
      <point x="38.4" y="600.0" type="line"/>
      <point x="38.4" y="480.0" type="line"/>
      <point x="84.23592" y="480.0" type="line"/>
      <point x="158.4" y="554.16408" type="line"/>
      <point x="158.4" y="600.0" type="line"/>
    </contour>
    <contour>
      <point x="272.56407928466797" y="-5" type="line"/>
      <point x="318.4000015258789" y="-5" type="line"/>
      <point x="318.4000015258789" y="525.8359222412109" type="line"/>
      <point x="244.23592376708984" y="600" type="line"/>
      <point x="198.4000015258789" y="600" type="line"/>
      <point x="198.4000015258789" y="69.16407775878906" type="line"/>
    </contour>
    <contour>
      <point x="112.56407928466797" y="0" type="line"/>
      <point x="158.4000015258789" y="0" type="line"/>
      <point x="158.4000015258789" y="400" type="line"/>
      <point x="112.56407928466797" y="400" type="line"/>
      <point x="38.400001525878906" y="325.83592224121094" type="line"/>
      <point x="38.400001525878906" y="74.16407775878906" type="line"/>
    </contour>
    <contour>
      <point x="318.4" y="-150.0" type="line"/>
      <point x="318.4" y="-30.0" type="line"/>
      <point x="272.56408" y="-30.0" type="line"/>
      <point x="198.39999999999998" y="-104.16408" type="line"/>
      <point x="198.39999999999998" y="-150.0" type="line"/>
    </contour>
  </outline>
</glyph>
<glyph name="C_with_acute" format="2">
  <advance width="356.8"/>
  <unicode hex="0106"/>
  <outline>
    <contour>
      <point x="170.9" y="964.4444444444445" type="line"/>
      <point x="170.9" y="844.4444444444445" type="line"/>
      <point x="216.73592000000002" y="844.4444444444445" type="line"/>
      <point x="290.9" y="918.6085244444445" type="line"/>
      <point x="290.9" y="964.4444444444445" type="line"/>
    </contour>
    <contour>
      <point x="112.56407928466797" y="0" type="line"/>
      <point x="158.4000015258789" y="0" type="line"/>
      <point x="158.4000015258789" y="800" type="line"/>
      <point x="112.56407928466797" y="800" type="line"/>
      <point x="38.400001525878906" y="725.8359222412109" type="line"/>
      <point x="38.400001525878906" y="74.16407775878906" type="line"/>
    </contour>
    <contour>
      <point x="272.56407928466797" y="480" type="line"/>
      <point x="318.4000015258789" y="480" type="line"/>
      <point x="318.4000015258789" y="800" type="line"/>
      <point x="198.4000015258789" y="800" type="line"/>
      <point x="198.4000015258789" y="554.1640777587891" type="line"/>
    </contour>
    <contour>
      <point x="318.4" y="0.0" type="line"/>
      <point x="318.4" y="120.0" type="line"/>
      <point x="272.56408" y="120.0" type="line"/>
      <point x="198.4" y="45.83592" type="line"/>
      <point x="198.4" y="0.0" type="line"/>
    </contour>
  </outline>
</glyph>
<glyph name="c_with_caron" format="2">
  <advance width="356.8"/>
  <unicode hex="010D"/>
  <outline>
    <contour>
      <point x="54.650000000000006" y="644.4444444444445" type="line"/>
      <point x="174.65" y="644.4444444444445" type="line"/>
      <point x="174.65" y="690.2803644444444" type="line"/>
      <point x="100.48592000000001" y="764.4444444444445" type="line"/>
      <point x="54.650000000000006" y="764.4444444444445" type="line"/>
    </contour>
    <contour>
      <point x="302.15" y="644.4444444444445" type="line"/>
      <point x="302.15" y="764.4444444444445" type="line"/>
      <point x="256.31408" y="764.4444444444445" type="line"/>
      <point x="182.15" y="690.2803644444444" type="line"/>
      <point x="182.15" y="644.4444444444445" type="line"/>
    </contour>
    <contour>
      <point x="112.56407928466797" y="0" type="line"/>
      <point x="158.4000015258789" y="0" type="line"/>
      <point x="158.4000015258789" y="600" type="line"/>
      <point x="112.56407928466797" y="600" type="line"/>
      <point x="38.400001525878906" y="525.8359222412109" type="line"/>
      <point x="38.400001525878906" y="74.16407775878906" type="line"/>
    </contour>
    <contour>
      <point x="318.4" y="600.0" type="line"/>
      <point x="198.4" y="600.0" type="line"/>
      <point x="198.4" y="554.16408" type="line"/>
      <point x="272.56408" y="480.0" type="line"/>
      <point x="318.4" y="480.0" type="line"/>
    </contour>
    <contour>
      <point x="316.525" y="0.0" type="line"/>
      <point x="316.525" y="120.0" type="line"/>
      <point x="270.68908" y="120.0" type="line"/>
      <point x="196.525" y="45.83592" type="line"/>
      <point x="196.525" y="0.0" type="line"/>
    </contour>
  </outline>
</glyph>
<glyph name="e_with_dotabove" format="2">
  <advance width="356.8"/>
  <unicode hex="0117"/>
  <outline>
    <contour>
      <point x="118.4" y="724.4444444444445" type="line"/>
      <point x="238.4" y="724.4444444444445" type="line"/>
      <point x="238.4" y="844.4444444444445" type="line"/>
      <point x="118.4" y="844.4444444444445" type="line"/>
    </contour>
    <contour>
      <point x="112.56407928466797" y="-5" type="line"/>
      <point x="158.4000015258789" y="-5" type="line"/>
      <point x="158.4000015258789" y="605" type="line"/>
      <point x="112.56407928466797" y="605" type="line"/>
      <point x="38.400001525878906" y="530.8359222412109" type="line"/>
      <point x="38.400001525878906" y="69.16407775878906" type="line"/>
    </contour>
    <contour>
      <point x="198.4000015258789" y="195" type="line"/>
      <point x="318.4000015258789" y="195" type="line"/>
      <point x="318.4000015258789" y="530.8359222412109" type="line"/>
      <point x="244.23592376708984" y="605" type="line"/>
      <point x="198.4000015258789" y="605" type="line"/>
    </contour>
  </outline>
</glyph>
<glyph name="g_with_breve" format="2">
  <advance width="356.8"/>
  <unicode hex="011F"/>
  <outline>
    <contour>
      <point x="58.400001525878906" y="718.608528137207" type="line"/>
      <point x="132.56407928466797" y="644.4444427490234" type="line"/>
      <point x="224.23592376708984" y="644.4444427490234" type="line"/>
      <point x="298.4000015258789" y="718.608528137207" type="line"/>
      <point x="298.4000015258789" y="764.4444427490234" type="line"/>
      <point x="58.400001525878906" y="764.4444427490234" type="line"/>
    </contour>
    <contour>
      <point x="112.56407928466797" y="5" type="line"/>
      <point x="158.4000015258789" y="5" type="line"/>
      <point x="158.4000015258789" y="600" type="line"/>
      <point x="112.56407928466797" y="600" type="line"/>
      <point x="38.400001525878906" y="525.8359222412109" type="line"/>
      <point x="38.400001525878906" y="79.16407775878906" type="line"/>
    </contour>
    <contour>
      <point x="244.23592376708984" y="-210" type="line"/>
      <point x="318.4000015258789" y="-135.83592224121094" type="line"/>
      <point x="318.4000015258789" y="600" type="line"/>
      <point x="198.4000015258789" y="600" type="line"/>
      <point x="198.4000015258789" y="-210" type="line"/>
    </contour>
    <contour>
      <point x="158.4" y="-90.0" type="line"/>
      <point x="38.4" y="-90.0" type="line"/>
      <point x="38.4" y="-135.83592" type="line"/>
      <point x="112.56407999999999" y="-210.0" type="line"/>
      <point x="158.4" y="-210.0" type="line"/>
    </contour>
  </outline>
</glyph>
<glyph name="g_with_dotabove" format="2">
  <advance width="356.8"/>
  <unicode hex="0121"/>
  <outline>
    <contour>
      <point x="118.4" y="724.4444444444445" type="line"/>
      <point x="238.4" y="724.4444444444445" type="line"/>
      <point x="238.4" y="844.4444444444445" type="line"/>
      <point x="118.4" y="844.4444444444445" type="line"/>
    </contour>
    <contour>
      <point x="112.56407928466797" y="5" type="line"/>
      <point x="158.4000015258789" y="5" type="line"/>
      <point x="158.4000015258789" y="600" type="line"/>
      <point x="112.56407928466797" y="600" type="line"/>
      <point x="38.400001525878906" y="525.8359222412109" type="line"/>
      <point x="38.400001525878906" y="79.16407775878906" type="line"/>
    </contour>
    <contour>
      <point x="244.23592376708984" y="-210" type="line"/>
      <point x="318.4000015258789" y="-135.83592224121094" type="line"/>
      <point x="318.4000015258789" y="600" type="line"/>
      <point x="198.4000015258789" y="600" type="line"/>
      <point x="198.4000015258789" y="-210" type="line"/>
    </contour>
    <contour>
      <point x="158.4" y="-90.0" type="line"/>
      <point x="38.4" y="-90.0" type="line"/>
      <point x="38.4" y="-135.83592" type="line"/>
      <point x="112.56407999999999" y="-210.0" type="line"/>
      <point x="158.4" y="-210.0" type="line"/>
    </contour>
  </outline>
</glyph>
<glyph name="I_with_smalltilde" format="2">
  <advance width="196.8"/>
  <unicode hex="0128"/>
  <outline>
    <contour>
      <point x="-21.599998474121094" y="890.2803649902344" type="line"/>
      <point x="-21.599998474121094" y="844.4444427490234" type="line"/>
      <point x="144.23592376708984" y="844.4444427490234" type="line"/>
      <point x="218.4000015258789" y="918.608528137207" type="line"/>
      <point x="218.4000015258789" y="964.4444427490234" type="line"/>
      <point x="52.56407928466797" y="964.4444427490234" type="line"/>
    </contour>
    <contour>
      <point x="38.400001525878906" y="0" type="line"/>
      <point x="158.4000015258789" y="0" type="line"/>
      <point x="158.4000015258789" y="800" type="line"/>
      <point x="38.400001525878906" y="800" type="line"/>
    </contour>
  </outline>
</glyph>
<glyph name="i_with_smalltilde" format="2">
  <advance width="196.8"/>
  <unicode hex="0129"/>
  <outline>
    <contour>
      <point x="-21.599998474121094" y="690.2803649902344" type="line"/>
      <point x="-21.599998474121094" y="644.4444427490234" type="line"/>
      <point x="144.23592376708984" y="644.4444427490234" type="line"/>
      <point x="218.4000015258789" y="718.608528137207" type="line"/>
      <point x="218.4000015258789" y="764.4444427490234" type="line"/>
      <point x="52.56407928466797" y="764.4444427490234" type="line"/>
    </contour>
    <contour>
      <point x="38.400001525878906" y="0" type="line"/>
      <point x="158.4000015258789" y="0" type="line"/>
      <point x="158.4000015258789" y="600" type="line"/>
      <point x="38.400001525878906" y="600" type="line"/>
    </contour>
  </outline>
</glyph>
<glyph name="I_with_breve" format="2">
  <advance width="196.8"/>
  <unicode hex="012C"/>
  <outline>
    <contour>
      <point x="-21.599998474121094" y="918.608528137207" type="line"/>
      <point x="52.56407928466797" y="844.4444427490234" type="line"/>
      <point x="144.23592376708984" y="844.4444427490234" type="line"/>
      <point x="218.4000015258789" y="918.608528137207" type="line"/>
      <point x="218.4000015258789" y="964.4444427490234" type="line"/>
      <point x="-21.599998474121094" y="964.4444427490234" type="line"/>
    </contour>
    <contour>
      <point x="38.400001525878906" y="0" type="line"/>
      <point x="158.4000015258789" y="0" type="line"/>
      <point x="158.4000015258789" y="800" type="line"/>
      <point x="38.400001525878906" y="800" type="line"/>
    </contour>
  </outline>
</glyph>
<glyph name="I_with_ogonek" format="2">
  <advance width="196.8"/>
  <unicode hex="012E"/>
  <outline>
    <contour>
      <point x="38.400001525878906" y="0" type="line"/>
      <point x="158.4000015258789" y="0" type="line"/>
      <point x="158.4000015258789" y="800" type="line"/>
      <point x="38.400001525878906" y="800" type="line"/>
    </contour>
    <contour>
      <point x="158.4" y="-145.0" type="line"/>
      <point x="158.4" y="-25.0" type="line"/>
      <point x="112.56408" y="-25.0" type="line"/>
      <point x="38.400000000000006" y="-99.16408" type="line"/>
      <point x="38.400000000000006" y="-145.0" type="line"/>
    </contour>
  </outline>
</glyph>
<glyph name="I_with_dotabove" format="2">
  <advance width="196.8"/>
  <unicode hex="0130"/>
  <outline>
    <contour>
      <point x="38.400000000000006" y="924.4444444444445" type="line"/>
      <point x="158.4" y="924.4444444444445" type="line"/>
      <point x="158.4" y="1044.4444444444443" type="line"/>
      <point x="38.400000000000006" y="1044.4444444444443" type="line"/>
    </contour>
    <contour>
      <point x="38.400001525878906" y="0" type="line"/>
      <point x="158.4000015258789" y="0" type="line"/>
      <point x="158.4000015258789" y="800" type="line"/>
      <point x="38.400001525878906" y="800" type="line"/>
    </contour>
  </outline>
</glyph>
<glyph name="ij" format="2">
  <advance width="356.8"/>
  <unicode hex="0133"/>
  <outline>
    <contour>
      <point x="30.9" y="644.44444" type="line"/>
      <point x="150.9" y="644.44444" type="line"/>
      <point x="150.9" y="764.44444" type="line"/>
      <point x="30.9" y="764.44444" type="line"/>
    </contour>
    <contour>
      <point x="198.4" y="644.44444" type="line"/>
      <point x="318.4" y="644.44444" type="line"/>
      <point x="318.4" y="764.44444" type="line"/>
      <point x="198.4" y="764.44444" type="line"/>
    </contour>
    <contour>
      <point x="30.900001525878906" y="0" type="line"/>
      <point x="150.9000015258789" y="0" type="line"/>
      <point x="150.9000015258789" y="600" type="line"/>
      <point x="30.900001525878906" y="600" type="line"/>
    </contour>
    <contour>
      <point x="244.23592376708984" y="-210" type="line"/>
      <point x="318.4000015258789" y="-135.83592224121094" type="line"/>
      <point x="318.4000015258789" y="600" type="line"/>
      <point x="198.4000015258789" y="600" type="line"/>
      <point x="198.4000015258789" y="-210" type="line"/>
    </contour>
    <contour>
      <point x="162.15" y="-90.0" type="line"/>
      <point x="42.15" y="-90.0" type="line"/>
      <point x="42.15" y="-135.83592" type="line"/>
      <point x="116.31407999999999" y="-210.0" type="line"/>
      <point x="162.15" y="-210.0" type="line"/>
    </contour>
  </outline>
</glyph>
<glyph name="J_with_circumflex" format="2">
  <advance width="356.8"/>
  <unicode hex="0134"/>
  <outline>
    <contour>
      <point x="132.15" y="964.4444444444445" type="line"/>
      <point x="132.15" y="844.4444444444445" type="line"/>
      <point x="177.98592000000002" y="844.4444444444445" type="line"/>
      <point x="252.15" y="918.6085244444445" type="line"/>
      <point x="252.15" y="964.4444444444445" type="line"/>
    </contour>
    <contour>
      <point x="379.65" y="964.4444444444445" type="line"/>
      <point x="259.65" y="964.4444444444445" type="line"/>
      <point x="259.65" y="918.6085244444445" type="line"/>
      <point x="333.81408" y="844.4444444444445" type="line"/>
      <point x="379.65" y="844.4444444444445" type="line"/>
    </contour>
    <contour>
      <point x="244.23592376708984" y="-5" type="line"/>
      <point x="318.4000015258789" y="69.16407775878906" type="line"/>
      <point x="318.4000015258789" y="800" type="line"/>
      <point x="198.4000015258789" y="800" type="line"/>
      <point x="198.4000015258789" y="-5" type="line"/>
    </contour>
    <contour>
      <point x="158.4" y="115.0" type="line"/>
      <point x="38.4" y="115.0" type="line"/>
      <point x="38.4" y="69.16408" type="line"/>
      <point x="112.56407999999999" y="-5.0" type="line"/>
      <point x="158.4" y="-5.0" type="line"/>
    </contour>
  </outline>
</glyph>
<glyph name="j_with_circumflex" format="2">
  <advance width="356.8"/>
  <unicode hex="0135"/>
  <outline>
    <contour>
      <point x="134.025" y="764.4444444444445" type="line"/>
      <point x="134.025" y="644.4444444444445" type="line"/>
      <point x="179.86092000000002" y="644.4444444444445" type="line"/>
      <point x="254.025" y="718.6085244444445" type="line"/>
      <point x="254.025" y="764.4444444444445" type="line"/>
    </contour>
    <contour>
      <point x="381.525" y="764.4444444444445" type="line"/>
      <point x="261.525" y="764.4444444444445" type="line"/>
      <point x="261.525" y="718.6085244444445" type="line"/>
      <point x="335.68908" y="644.4444444444445" type="line"/>
      <point x="381.525" y="644.4444444444445" type="line"/>
    </contour>
    <contour>
      <point x="244.23592376708984" y="-210" type="line"/>
      <point x="318.4000015258789" y="-135.83592224121094" type="line"/>
      <point x="318.4000015258789" y="600" type="line"/>
      <point x="198.4000015258789" y="600" type="line"/>
      <point x="198.4000015258789" y="-210" type="line"/>
    </contour>
    <contour>
      <point x="162.15" y="-90.0" type="line"/>
      <point x="42.15" y="-90.0" type="line"/>
      <point x="42.15" y="-135.83592" type="line"/>
      <point x="116.31407999999999" y="-210.0" type="line"/>
      <point x="162.15" y="-210.0" type="line"/>
    </contour>
  </outline>
</glyph>
<glyph name="K_with_cedilla" format="2">
  <advance width="356.8"/>
  <unicode hex="0136"/>
  <outline>
    <contour>
      <point x="38.400001525878906" y="0" type="line"/>
      <point x="158.4000015258789" y="0" type="line"/>
      <point x="158.4000015258789" y="800" type="line"/>
      <point x="38.400001525878906" y="800" type="line"/>
    </contour>
    <contour>
      <point x="198.4000015258789" y="0" type="line"/>
      <point x="318.4000015258789" y="0" type="line"/>
      <point x="318.4000015258789" y="325.83592224121094" type="line"/>
      <point x="244.23592376708984" y="400" type="line"/>
      <point x="318.4000015258789" y="474.16407775878906" type="line"/>
      <point x="318.4000015258789" y="800" type="line"/>
      <point x="198.4000015258789" y="800" type="line"/>
    </contour>
    <contour>
      <point x="170.9" y="-145.0" type="line"/>
      <point x="290.9" y="-145.0" type="line"/>
      <point x="290.9" y="-99.16408" type="line"/>
      <point x="216.73592000000002" y="-25.0" type="line"/>
      <point x="170.9" y="-25.0" type="line"/>
    </contour>
  </outline>
</glyph>
<glyph name="L_with_acute" format="2">
  <advance width="356.8"/>
  <unicode hex="0139"/>
  <outline>
    <contour>
      <point x="170.9" y="964.4444444444445" type="line"/>
      <point x="170.9" y="844.4444444444445" type="line"/>
      <point x="216.73592000000002" y="844.4444444444445" type="line"/>
      <point x="290.9" y="918.6085244444445" type="line"/>
      <point x="290.9" y="964.4444444444445" type="line"/>
    </contour>
    <contour>
      <point x="38.400001525878906" y="0" type="line"/>
      <point x="158.4000015258789" y="0" type="line"/>
      <point x="158.4000015258789" y="800" type="line"/>
      <point x="38.400001525878906" y="800" type="line"/>
    </contour>
    <contour>
      <point x="318.4" y="0.0" type="line"/>
      <point x="318.4" y="120.0" type="line"/>
      <point x="272.56408" y="120.0" type="line"/>
      <point x="198.4" y="45.83592" type="line"/>
      <point x="198.4" y="0.0" type="line"/>
    </contour>
  </outline>
</glyph>
<glyph name="l_with_acute" format="2">
  <advance width="196.8"/>
  <unicode hex="013A"/>
  <outline>
    <contour>
      <point x="90.9" y="964.4444444444445" type="line"/>
      <point x="90.9" y="844.4444444444445" type="line"/>
      <point x="136.73592000000002" y="844.4444444444445" type="line"/>
      <point x="210.9" y="918.6085244444445" type="line"/>
      <point x="210.9" y="964.4444444444445" type="line"/>
    </contour>
    <contour>
      <point x="112.56407928466797" y="-5" type="line"/>
      <point x="158.4000015258789" y="-5" type="line"/>
      <point x="158.4000015258789" y="800" type="line"/>
      <point x="38.400001525878906" y="800" type="line"/>
      <point x="38.400001525878906" y="69.16407775878906" type="line"/>
    </contour>
  </outline>
</glyph>
<glyph name="L_with_cedilla" format="2">
  <advance width="356.8"/>
  <unicode hex="013B"/>
  <outline>
    <contour>
      <point x="38.400001525878906" y="0" type="line"/>
      <point x="158.4000015258789" y="0" type="line"/>
      <point x="158.4000015258789" y="800" type="line"/>
      <point x="38.400001525878906" y="800" type="line"/>
    </contour>
    <contour>
      <point x="318.4" y="0.0" type="line"/>
      <point x="318.4" y="120.0" type="line"/>
      <point x="272.56408" y="120.0" type="line"/>
      <point x="198.4" y="45.83592" type="line"/>
      <point x="198.4" y="0.0" type="line"/>
    </contour>
    <contour>
      <point x="170.9" y="-145.0" type="line"/>
      <point x="290.9" y="-145.0" type="line"/>
      <point x="290.9" y="-99.16408" type="line"/>
      <point x="216.73592000000002" y="-25.0" type="line"/>
      <point x="170.9" y="-25.0" type="line"/>
    </contour>
  </outline>
</glyph>
<glyph name="l_with_cedilla" format="2">
  <advance width="196.8"/>
  <unicode hex="013C"/>
  <outline>
    <contour>
      <point x="112.56407928466797" y="-5" type="line"/>
      <point x="158.4000015258789" y="-5" type="line"/>
      <point x="158.4000015258789" y="800" type="line"/>
      <point x="38.400001525878906" y="800" type="line"/>
      <point x="38.400001525878906" y="69.16407775878906" type="line"/>
    </contour>
    <contour>
      <point x="90.9" y="-150.0" type="line"/>
      <point x="210.9" y="-150.0" type="line"/>
      <point x="210.9" y="-104.16408" type="line"/>
      <point x="136.73592000000002" y="-30.0" type="line"/>
      <point x="90.9" y="-30.0" type="line"/>
    </contour>
  </outline>
</glyph>
<glyph name="L_with_stroke" format="2">
  <advance width="371.8"/>
  <unicode hex="0141"/>
  <outline>
    <contour>
      <point x="53.400001525878906" y="0" type="line"/>
      <point x="173.4000015258789" y="0" type="line"/>
      <point x="173.4000015258789" y="480" type="line"/>
      <point x="174.23592376708984" y="480" type="line"/>
      <point x="248.4000015258789" y="554.1640777587891" type="line"/>
      <point x="248.4000015258789" y="600" type="line"/>
      <point x="173.4000015258789" y="600" type="line"/>
      <point x="173.4000015258789" y="800" type="line"/>
      <point x="53.400001525878906" y="800" type="line"/>
      <point x="53.400001525878906" y="500" type="line"/>
      <point x="52.56407928466797" y="500" type="line"/>
      <point x="-21.599998474121094" y="425.83592224121094" type="line"/>
      <point x="-21.599998474121094" y="380" type="line"/>
      <point x="53.400001525878906" y="380" type="line"/>
    </contour>
    <contour>
      <point x="333.4" y="0.0" type="line"/>
      <point x="333.4" y="120.0" type="line"/>
      <point x="287.56408" y="120.0" type="line"/>
      <point x="213.4" y="45.83592" type="line"/>
      <point x="213.4" y="0.0" type="line"/>
    </contour>
  </outline>
</glyph>
<glyph name="l_with_stroke" format="2">
  <advance width="226.8"/>
  <unicode hex="0142"/>
  <outline>
    <contour>
      <point x="52.56407928466797" y="500" type="line"/>
      <point x="-21.599998474121094" y="425.83592224121094" type="line"/>
      <point x="-21.599998474121094" y="380" type="line"/>
      <point x="53.400001525878906" y="380" type="line"/>
      <point x="53.400001525878906" y="69.16407775878906" type="line"/>
      <point x="127.56407928466797" y="-5" type="line"/>
      <point x="173.4000015258789" y="-5" type="line"/>
      <point x="173.4000015258789" y="480" type="line"/>
      <point x="174.23592376708984" y="480" type="line"/>
      <point x="248.4000015258789" y="554.1640777587891" type="line"/>
      <point x="248.4000015258789" y="600" type="line"/>
      <point x="173.4000015258789" y="600" type="line"/>
      <point x="173.4000015258789" y="800" type="line"/>
      <point x="53.400001525878906" y="800" type="line"/>
      <point x="53.400001525878906" y="500" type="line"/>
    </contour>
  </outline>
</glyph>
<glyph name="n_with_acute" format="2">
  <advance width="356.8"/>
  <unicode hex="0144"/>
  <outline>
    <contour>
      <point x="170.9" y="764.4444444444445" type="line"/>
      <point x="170.9" y="644.4444444444445" type="line"/>
      <point x="216.73592000000002" y="644.4444444444445" type="line"/>
      <point x="290.9" y="718.6085244444445" type="line"/>
      <point x="290.9" y="764.4444444444445" type="line"/>
    </contour>
    <contour>
      <point x="38.400001525878906" y="0" type="line"/>
      <point x="158.4000015258789" y="0" type="line"/>
      <point x="158.4000015258789" y="600" type="line"/>
      <point x="38.400001525878906" y="600" type="line"/>
    </contour>
    <contour>
      <point x="198.4000015258789" y="0" type="line"/>
      <point x="318.4000015258789" y="0" type="line"/>
      <point x="318.4000015258789" y="525.8359222412109" type="line"/>
      <point x="244.23592376708984" y="600" type="line"/>
      <point x="198.4000015258789" y="600" type="line"/>
    </contour>
  </outline>
</glyph>
<glyph name="o_with_macron" format="2">
  <advance width="356.8"/>
  <unicode hex="014D"/>
  <outline>
    <contour>
      <point x="58.400001525878906" y="644.4444427490234" type="line"/>
      <point x="298.4000015258789" y="644.4444427490234" type="line"/>
      <point x="298.4000015258789" y="764.4444427490234" type="line"/>
      <point x="58.400001525878906" y="764.4444427490234" type="line"/>
    </contour>
    <contour>
      <point x="112.56407928466797" y="-5" type="line"/>
      <point x="158.4000015258789" y="-5" type="line"/>
      <point x="158.4000015258789" y="605" type="line"/>
      <point x="112.56407928466797" y="605" type="line"/>
      <point x="38.400001525878906" y="530.8359222412109" type="line"/>
      <point x="38.400001525878906" y="69.16407775878906" type="line"/>
    </contour>
    <contour>
      <point x="244.23592376708984" y="-5" type="line"/>
      <point x="318.4000015258789" y="69.16407775878906" type="line"/>
      <point x="318.4000015258789" y="530.8359222412109" type="line"/>
      <point x="244.23592376708984" y="605" type="line"/>
      <point x="198.4000015258789" y="605" type="line"/>
      <point x="198.4000015258789" y="-5" type="line"/>
    </contour>
  </outline>
</glyph>
<glyph name="oe" format="2">
  <advance width="676.8"/>
  <unicode hex="0153"/>
  <outline>
    <contour>
      <point x="112.56407928466797" y="-5" type="line"/>
      <point x="158.4000015258789" y="-5" type="line"/>
      <point x="158.4000015258789" y="605" type="line"/>
      <point x="112.56407928466797" y="605" type="line"/>
      <point x="38.400001525878906" y="530.8359222412109" type="line"/>
      <point x="38.400001525878906" y="69.16407775878906" type="line"/>
    </contour>
    <contour>
      <point x="244.23592376708984" y="-5" type="line"/>
      <point x="318.4000015258789" y="69.16407775878906" type="line"/>
      <point x="318.4000015258789" y="530.8359222412109" type="line"/>
      <point x="244.23592376708984" y="605" type="line"/>
      <point x="198.4000015258789" y="605" type="line"/>
      <point x="198.4000015258789" y="-5" type="line"/>
    </contour>
    <contour>
      <point x="432.56407928466797" y="-5" type="line"/>
      <point x="478.4000015258789" y="-5" type="line"/>
      <point x="478.4000015258789" y="605" type="line"/>
      <point x="432.56407928466797" y="605" type="line"/>
      <point x="358.4000015258789" y="530.8359222412109" type="line"/>
      <point x="358.4000015258789" y="69.16407775878906" type="line"/>
    </contour>
    <contour>
      <point x="518.4000015258789" y="195" type="line"/>
      <point x="638.4000015258789" y="195" type="line"/>
      <point x="638.4000015258789" y="530.8359222412109" type="line"/>
      <point x="564.2359237670898" y="605" type="line"/>
      <point x="518.4000015258789" y="605" type="line"/>
    </contour>
  </outline>
</glyph>
<glyph name="r_with_cedilla" format="2">
  <advance width="356.8"/>
  <unicode hex="0157"/>
  <outline>
    <contour>
      <point x="38.400001525878906" y="0" type="line"/>
      <point x="158.4000015258789" y="0" type="line"/>
      <point x="158.4000015258789" y="600" type="line"/>
      <point x="38.400001525878906" y="600" type="line"/>
    </contour>
    <contour>
      <point x="318.4" y="600.0" type="line"/>
      <point x="198.4" y="600.0" type="line"/>
      <point x="198.4" y="554.16408" type="line"/>
      <point x="272.56408" y="480.0" type="line"/>
      <point x="318.4" y="480.0" type="line"/>
    </contour>
    <contour>
      <point x="170.9" y="-145.0" type="line"/>
      <point x="290.9" y="-145.0" type="line"/>
      <point x="290.9" y="-99.16408" type="line"/>
      <point x="216.73592000000002" y="-25.0" type="line"/>
      <point x="170.9" y="-25.0" type="line"/>
    </contour>
  </outline>
</glyph>
<glyph name="S_with_circumflex" format="2">
  <advance width="356.8"/>
  <unicode hex="015C"/>
  <outline>
    <contour>
      <point x="54.650000000000006" y="964.4444444444445" type="line"/>
      <point x="54.650000000000006" y="844.4444444444445" type="line"/>
      <point x="100.48592000000001" y="844.4444444444445" type="line"/>
      <point x="174.65" y="918.6085244444445" type="line"/>
      <point x="174.65" y="964.4444444444445" type="line"/>
    </contour>
    <contour>
      <point x="302.15" y="964.4444444444445" type="line"/>
      <point x="182.15" y="964.4444444444445" type="line"/>
      <point x="182.15" y="918.6085244444445" type="line"/>
      <point x="256.31408" y="844.4444444444445" type="line"/>
      <point x="302.15" y="844.4444444444445" type="line"/>
    </contour>
    <contour>
      <point x="112.56407928466797" y="340" type="line"/>
      <point x="158.4000015258789" y="340" type="line"/>
      <point x="158.4000015258789" y="800" type="line"/>
      <point x="112.56407928466797" y="800" type="line"/>
      <point x="38.400001525878906" y="725.8359222412109" type="line"/>
      <point x="38.400001525878906" y="414.16407775878906" type="line"/>
    </contour>
    <contour>
      <point x="314.65" y="800.0" type="line"/>
      <point x="194.65" y="800.0" type="line"/>
      <point x="194.65" y="754.16408" type="line"/>
      <point x="268.81408" y="680.0" type="line"/>
      <point x="314.65" y="680.0" type="line"/>
    </contour>
    <contour>
      <point x="244.23592376708984" y="0" type="line"/>
      <point x="318.4000015258789" y="74.16407775878906" type="line"/>
      <point x="318.4000015258789" y="385.83592224121094" type="line"/>
      <point x="244.23592376708984" y="460" type="line"/>
      <point x="198.4000015258789" y="460" type="line"/>
      <point x="198.4000015258789" y="0" type="line"/>
    </contour>
    <contour>
      <point x="40.275" y="0" type="line"/>
      <point x="160.275" y="0" type="line"/>
      <point x="160.275" y="45.83592" type="line"/>
      <point x="86.11092" y="120.0" type="line"/>
      <point x="40.275" y="120.0" type="line"/>
    </contour>
  </outline>
</glyph>
<glyph name="s_with_caron" format="2">
  <advance width="356.8"/>
  <unicode hex="0161"/>
  <outline>
    <contour>
      <point x="54.650000000000006" y="644.4444444444445" type="line"/>
      <point x="174.65" y="644.4444444444445" type="line"/>
      <point x="174.65" y="690.2803644444444" type="line"/>
      <point x="100.48592000000001" y="764.4444444444445" type="line"/>
      <point x="54.650000000000006" y="764.4444444444445" type="line"/>
    </contour>
    <contour>
      <point x="302.15" y="644.4444444444445" type="line"/>
      <point x="302.15" y="764.4444444444445" type="line"/>
      <point x="256.31408" y="764.4444444444445" type="line"/>
      <point x="182.15" y="690.2803644444444" type="line"/>
      <point x="182.15" y="644.4444444444445" type="line"/>
    </contour>
    <contour>
      <point x="112.56407928466797" y="240" type="line"/>
      <point x="158.4000015258789" y="240" type="line"/>
      <point x="158.4000015258789" y="600" type="line"/>
      <point x="112.56407928466797" y="600" type="line"/>
      <point x="38.400001525878906" y="525.8359222412109" type="line"/>
      <point x="38.400001525878906" y="314.16407775878906" type="line"/>
    </contour>
    <contour>
      <point x="314.65" y="600.0" type="line"/>
      <point x="194.65" y="600.0" type="line"/>
      <point x="194.65" y="554.16408" type="line"/>
      <point x="268.81408" y="480.0" type="line"/>
      <point x="314.65" y="480.0" type="line"/>
    </contour>
    <contour>
      <point x="244.23592376708984" y="-5" type="line"/>
      <point x="318.4000015258789" y="69.16407775878906" type="line"/>
      <point x="318.4000015258789" y="280.83592224121094" type="line"/>
      <point x="244.23592376708984" y="355" type="line"/>
      <point x="198.4000015258789" y="355" type="line"/>
      <point x="198.4000015258789" y="-5" type="line"/>
    </contour>
    <contour>
      <point x="40.275" y="0" type="line"/>
      <point x="160.275" y="0" type="line"/>
      <point x="160.275" y="45.83592" type="line"/>
      <point x="86.11092" y="120.0" type="line"/>
      <point x="40.275" y="120.0" type="line"/>
    </contour>
  </outline>
</glyph>
<glyph name="T_with_cedilla" format="2">
  <advance width="516.8"/>
  <unicode hex="0162"/>
  <outline>
    <contour>
      <point x="38.4" y="800.0" type="line"/>
      <point x="38.4" y="680.0" type="line"/>
      <point x="84.23592" y="680.0" type="line"/>
      <point x="158.4" y="754.16408" type="line"/>
      <point x="158.4" y="800.0" type="line"/>
    </contour>
    <contour>
      <point x="198.4000015258789" y="0" type="line"/>
      <point x="318.4000015258789" y="0" type="line"/>
      <point x="318.4000015258789" y="800" type="line"/>
      <point x="198.4000015258789" y="800" type="line"/>
    </contour>
    <contour>
      <point x="478.4" y="800.0" type="line"/>
      <point x="358.4" y="800.0" type="line"/>
      <point x="358.4" y="754.16408" type="line"/>
      <point x="432.56408" y="680.0" type="line"/>
      <point x="478.4" y="680.0" type="line"/>
    </contour>
    <contour>
      <point x="250.89999999999998" y="-145.0" type="line"/>
      <point x="370.9" y="-145.0" type="line"/>
      <point x="370.9" y="-99.16408" type="line"/>
      <point x="296.73591999999996" y="-25.0" type="line"/>
      <point x="250.89999999999998" y="-25.0" type="line"/>
    </contour>
  </outline>
</glyph>
<glyph name="t_with_cedilla" format="2">
  <advance width="356.8"/>
  <unicode hex="0163"/>
  <outline>
    <contour>
      <point x="38.400001525878906" y="0" type="line"/>
      <point x="158.4000015258789" y="0" type="line"/>
      <point x="158.4000015258789" y="800" type="line"/>
      <point x="112.56407928466797" y="800" type="line"/>
      <point x="38.400001525878906" y="725.8359222412109" type="line"/>
    </contour>
    <contour>
      <point x="198.4" y="600.0" type="line"/>
      <point x="198.4" y="480.0" type="line"/>
      <point x="244.23592" y="480.0" type="line"/>
      <point x="318.4" y="554.16408" type="line"/>
      <point x="318.4" y="600.0" type="line"/>
    </contour>
    <contour>
      <point x="100.9" y="-145.0" type="line"/>
      <point x="220.9" y="-145.0" type="line"/>
      <point x="220.9" y="-99.16408" type="line"/>
      <point x="146.73592000000002" y="-25.0" type="line"/>
      <point x="100.9" y="-25.0" type="line"/>
    </contour>
  </outline>
</glyph>
<glyph name="u_with_breve" format="2">
  <advance width="356.8"/>
  <unicode hex="016D"/>
  <outline>
    <contour>
      <point x="58.400001525878906" y="718.608528137207" type="line"/>
      <point x="132.56407928466797" y="644.4444427490234" type="line"/>
      <point x="224.23592376708984" y="644.4444427490234" type="line"/>
      <point x="298.4000015258789" y="718.608528137207" type="line"/>
      <point x="298.4000015258789" y="764.4444427490234" type="line"/>
      <point x="58.400001525878906" y="764.4444427490234" type="line"/>
    </contour>
    <contour>
      <point x="112.56407928466797" y="-5" type="line"/>
      <point x="158.4000015258789" y="-5" type="line"/>
      <point x="158.4000015258789" y="600" type="line"/>
      <point x="38.400001525878906" y="600" type="line"/>
      <point x="38.400001525878906" y="69.16407775878906" type="line"/>
    </contour>
    <contour>
      <point x="244.23592376708984" y="-5" type="line"/>
      <point x="318.4000015258789" y="69.16407775878906" type="line"/>
      <point x="318.4000015258789" y="600" type="line"/>
      <point x="198.4000015258789" y="600" type="line"/>
      <point x="198.4000015258789" y="-5" type="line"/>
    </contour>
  </outline>
</glyph>
<glyph name="U_with_ring" format="2">
  <advance width="356.8"/>
  <unicode hex="016E"/>
  <outline>
    <contour>
      <point x="158.4" y="969.4444444444445" type="line"/>
      <point x="133.57221" y="969.4444444444445" type="line"/>
      <point x="93.4" y="929.2722344444444" type="line"/>
      <point x="93.4" y="879.6166544444444" type="line"/>
      <point x="133.57221" y="839.4444444444445" type="line"/>
      <point x="158.4" y="839.4444444444445" type="line"/>
    </contour>
    <contour>
      <point x="198.4" y="839.4444444444445" type="line"/>
      <point x="223.22779" y="839.4444444444445" type="line"/>
      <point x="263.4" y="879.6166544444444" type="line"/>
      <point x="263.4" y="929.2722344444444" type="line"/>
      <point x="223.22779" y="969.4444444444445" type="line"/>
      <point x="198.4" y="969.4444444444445" type="line"/>
    </contour>
    <contour>
      <point x="112.56407928466797" y="-5" type="line"/>
      <point x="158.4000015258789" y="-5" type="line"/>
      <point x="158.4000015258789" y="800" type="line"/>
      <point x="38.400001525878906" y="800" type="line"/>
      <point x="38.400001525878906" y="69.16407775878906" type="line"/>
    </contour>
    <contour>
      <point x="244.23592376708984" y="-5" type="line"/>
      <point x="318.4000015258789" y="69.16407775878906" type="line"/>
      <point x="318.4000015258789" y="800" type="line"/>
      <point x="198.4000015258789" y="800" type="line"/>
      <point x="198.4000015258789" y="-5" type="line"/>
    </contour>
  </outline>
</glyph>
<glyph name="u_with_ring" format="2">
  <advance width="356.8"/>
  <unicode hex="016F"/>
  <outline>
    <contour>
      <point x="158.4" y="769.4444444444445" type="line"/>
      <point x="133.57221" y="769.4444444444445" type="line"/>
      <point x="93.4" y="729.2722344444444" type="line"/>
      <point x="93.4" y="679.6166544444444" type="line"/>
      <point x="133.57221" y="639.4444444444445" type="line"/>
      <point x="158.4" y="639.4444444444445" type="line"/>
    </contour>
    <contour>
      <point x="198.4" y="639.4444444444445" type="line"/>
      <point x="223.22779" y="639.4444444444445" type="line"/>
      <point x="263.4" y="679.6166544444444" type="line"/>
      <point x="263.4" y="729.2722344444444" type="line"/>
      <point x="223.22779" y="769.4444444444445" type="line"/>
      <point x="198.4" y="769.4444444444445" type="line"/>
    </contour>
    <contour>
      <point x="112.56407928466797" y="-5" type="line"/>
      <point x="158.4000015258789" y="-5" type="line"/>
      <point x="158.4000015258789" y="600" type="line"/>
      <point x="38.400001525878906" y="600" type="line"/>
      <point x="38.400001525878906" y="69.16407775878906" type="line"/>
    </contour>
    <contour>
      <point x="244.23592376708984" y="-5" type="line"/>
      <point x="318.4000015258789" y="69.16407775878906" type="line"/>
      <point x="318.4000015258789" y="600" type="line"/>
      <point x="198.4000015258789" y="600" type="line"/>
      <point x="198.4000015258789" y="-5" type="line"/>
    </contour>
  </outline>
</glyph>
<glyph name="U_with_acutedbl" format="2">
  <advance width="356.8"/>
  <unicode hex="0170"/>
  <outline>
    <contour>
      <point x="38.400000000000006" y="964.4444444444445" type="line"/>
      <point x="38.400000000000006" y="844.4444444444445" type="line"/>
      <point x="84.23592000000001" y="844.4444444444445" type="line"/>
      <point x="158.4" y="918.6085244444445" type="line"/>
      <point x="158.4" y="964.4444444444445" type="line"/>
    </contour>
    <contour>
      <point x="198.4" y="964.4444444444445" type="line"/>
      <point x="198.4" y="844.4444444444445" type="line"/>
      <point x="244.23592" y="844.4444444444445" type="line"/>
      <point x="318.4" y="918.6085244444445" type="line"/>
      <point x="318.4" y="964.4444444444445" type="line"/>
    </contour>
    <contour>
      <point x="112.56407928466797" y="-5" type="line"/>
      <point x="158.4000015258789" y="-5" type="line"/>
      <point x="158.4000015258789" y="800" type="line"/>
      <point x="38.400001525878906" y="800" type="line"/>
      <point x="38.400001525878906" y="69.16407775878906" type="line"/>
    </contour>
    <contour>
      <point x="244.23592376708984" y="-5" type="line"/>
      <point x="318.4000015258789" y="69.16407775878906" type="line"/>
      <point x="318.4000015258789" y="800" type="line"/>
      <point x="198.4000015258789" y="800" type="line"/>
      <point x="198.4000015258789" y="-5" type="line"/>
    </contour>
  </outline>
</glyph>
<glyph name="u_with_ogonek" format="2">
  <advance width="356.8"/>
  <unicode hex="0173"/>
  <outline>
    <contour>
      <point x="112.56407928466797" y="-5" type="line"/>
      <point x="158.4000015258789" y="-5" type="line"/>
      <point x="158.4000015258789" y="600" type="line"/>
      <point x="38.400001525878906" y="600" type="line"/>
      <point x="38.400001525878906" y="69.16407775878906" type="line"/>
    </contour>
    <contour>
      <point x="244.23592376708984" y="-5" type="line"/>
      <point x="318.4000015258789" y="69.16407775878906" type="line"/>
      <point x="318.4000015258789" y="600" type="line"/>
      <point x="198.4000015258789" y="600" type="line"/>
      <point x="198.4000015258789" y="-5" type="line"/>
    </contour>
    <contour>
      <point x="178.39999999999998" y="-150.0" type="line"/>
      <point x="178.39999999999998" y="-30.0" type="line"/>
      <point x="132.56408" y="-30.0" type="line"/>
      <point x="58.39999999999998" y="-104.16408" type="line"/>
      <point x="58.39999999999998" y="-150.0" type="line"/>
    </contour>
  </outline>
</glyph>
<glyph name="W_with_circumflex" format="2">
  <advance width="516.8"/>
  <unicode hex="0174"/>
  <outline>
    <contour>
      <point x="134.64999999999998" y="964.4444444444445" type="line"/>
      <point x="134.64999999999998" y="844.4444444444445" type="line"/>
      <point x="180.48591999999996" y="844.4444444444445" type="line"/>
      <point x="254.64999999999998" y="918.6085244444445" type="line"/>
      <point x="254.64999999999998" y="964.4444444444445" type="line"/>
    </contour>
    <contour>
      <point x="382.15" y="964.4444444444445" type="line"/>
      <point x="262.15" y="964.4444444444445" type="line"/>
      <point x="262.15" y="918.6085244444445" type="line"/>
      <point x="336.31408" y="844.4444444444445" type="line"/>
      <point x="382.15" y="844.4444444444445" type="line"/>
    </contour>
    <contour>
      <point x="112.56407928466797" y="0" type="line"/>
      <point x="158.4000015258789" y="0" type="line"/>
      <point x="158.4000015258789" y="725.8359222412109" type="line"/>
      <point x="84.23592376708984" y="800" type="line"/>
      <point x="38.400001525878906" y="800" type="line"/>
      <point x="38.400001525878906" y="74.16407775878906" type="line"/>
    </contour>
    <contour>
      <point x="198.4000015258789" y="0" type="line"/>
      <point x="318.4000015258789" y="0" type="line"/>
      <point x="318.4000015258789" y="725.8359222412109" type="line"/>
      <point x="244.23592376708984" y="800" type="line"/>
      <point x="198.4000015258789" y="800" type="line"/>
    </contour>
    <contour>
      <point x="404.23592376708984" y="0" type="line"/>
      <point x="478.4000015258789" y="74.16407775878906" type="line"/>
      <point x="478.4000015258789" y="800" type="line"/>
      <point x="358.4000015258789" y="800" type="line"/>
      <point x="358.4000015258789" y="0" type="line"/>
    </contour>
  </outline>
</glyph>
<glyph name="z_with_acute" format="2">
  <advance width="356.8"/>
  <unicode hex="017A"/>
  <outline>
    <contour>
      <point x="170.9" y="764.4444444444445" type="line"/>
      <point x="170.9" y="644.4444444444445" type="line"/>
      <point x="216.73592000000002" y="644.4444444444445" type="line"/>
      <point x="290.9" y="718.6085244444445" type="line"/>
      <point x="290.9" y="764.4444444444445" type="line"/>
    </contour>
    <contour>
      <point x="38.4" y="600.0" type="line"/>
      <point x="38.4" y="480.0" type="line"/>
      <point x="84.23592" y="480.0" type="line"/>
      <point x="158.4" y="554.16408" type="line"/>
      <point x="158.4" y="600.0" type="line"/>
    </contour>
    <contour>
      <point x="244.23592376708984" y="240" type="line"/>
      <point x="318.4000015258789" y="314.16407775878906" type="line"/>
      <point x="318.4000015258789" y="600" type="line"/>
      <point x="198.4000015258789" y="600" type="line"/>
      <point x="198.4000015258789" y="240" type="line"/>
    </contour>
    <contour>
      <point x="38.400001525878906" y="0" type="line"/>
      <point x="158.4000015258789" y="0" type="line"/>
      <point x="158.4000015258789" y="360" type="line"/>
      <point x="112.56407928466797" y="360" type="line"/>
      <point x="38.400001525878906" y="285.83592224121094" type="line"/>
    </contour>
    <contour>
      <point x="318.4" y="0.0" type="line"/>
      <point x="318.4" y="120.0" type="line"/>
      <point x="272.56408" y="120.0" type="line"/>
      <point x="198.4" y="45.83592" type="line"/>
      <point x="198.4" y="0.0" type="line"/>
    </contour>
  </outline>
</glyph>
<glyph name="florin" format="2">
  <advance width="516.8"/>
  <unicode hex="0192"/>
  <outline>
    <contour>
      <point x="244.23592376708984" y="0" type="line"/>
      <point x="318.4000015258789" y="74.16407775878906" type="line"/>
      <point x="318.4000015258789" y="805" type="line"/>
      <point x="272.56407928466797" y="805" type="line"/>
      <point x="198.4000015258789" y="730.8359222412109" type="line"/>
      <point x="198.4000015258789" y="0" type="line"/>
    </contour>
    <contour>
      <point x="483.4" y="764.82779" type="line"/>
      <point x="443.22778999999997" y="805.0" type="line"/>
      <point x="393.57221" y="805.0" type="line"/>
      <point x="353.4" y="764.82779" type="line"/>
      <point x="353.4" y="715.17221" type="line"/>
      <point x="393.57221" y="675.0" type="line"/>
      <point x="443.22778999999997" y="675.0" type="line"/>
      <point x="483.4" y="715.17221" type="line"/>
    </contour>
    <contour>
      <point x="83.4000015258789" y="420" type="line"/>
      <point x="158.4000015258789" y="420" type="line"/>
      <point x="158.4000015258789" y="480" type="line"/>
      <point x="83.4000015258789" y="480" type="line"/>
    </contour>
    <contour>
      <point x="358.4000015258789" y="420" type="line"/>
      <point x="448.4000015258789" y="420" type="line"/>
      <point x="448.4000015258789" y="480" type="line"/>
      <point x="358.4000015258789" y="480" type="line"/>
    </contour>
    <contour>
      <point x="163.4" y="84.82779" type="line"/>
      <point x="123.22779" y="125.0" type="line"/>
      <point x="73.57221" y="125.0" type="line"/>
      <point x="33.4" y="84.82779" type="line"/>
      <point x="33.4" y="35.17221" type="line"/>
      <point x="73.57221" y="-5.0" type="line"/>
      <point x="123.22779" y="-5.0" type="line"/>
      <point x="163.4" y="35.17221" type="line"/>
    </contour>
  </outline>
</glyph>
<glyph name="AE_with_acute" format="2">
  <advance width="676.8"/>
  <unicode hex="01FC"/>
  <outline>
    <contour>
      <point x="330.9" y="964.4444444444445" type="line"/>
      <point x="330.9" y="844.4444444444445" type="line"/>
      <point x="376.73591999999996" y="844.4444444444445" type="line"/>
      <point x="450.9" y="918.6085244444445" type="line"/>
      <point x="450.9" y="964.4444444444445" type="line"/>
    </contour>
    <contour>
      <point x="38.400001525878906" y="0" type="line"/>
      <point x="158.4000015258789" y="0" type="line"/>
      <point x="158.4000015258789" y="805" type="line"/>
      <point x="112.56407928466797" y="805" type="line"/>
      <point x="38.400001525878906" y="730.8359222412109" type="line"/>
    </contour>
    <contour>
      <point x="198.4000015258789" y="0" type="line"/>
      <point x="318.4000015258789" y="0" type="line"/>
      <point x="318.4000015258789" y="730.8359222412109" type="line"/>
      <point x="244.23592376708984" y="805" type="line"/>
      <point x="198.4000015258789" y="805" type="line"/>
    </contour>
    <contour>
      <point x="358.4000015258789" y="0" type="line"/>
      <point x="478.4000015258789" y="0" type="line"/>
      <point x="478.4000015258789" y="800" type="line"/>
      <point x="358.4000015258789" y="800" type="line"/>
    </contour>
    <contour>
      <point x="638.4" y="800.0" type="line"/>
      <point x="518.4" y="800.0" type="line"/>
      <point x="518.4" y="754.16408" type="line"/>
      <point x="592.56408" y="680.0" type="line"/>
      <point x="638.4" y="680.0" type="line"/>
    </contour>
    <contour>
      <point x="638.4" y="500.0" type="line"/>
      <point x="518.4" y="500.0" type="line"/>
      <point x="518.4" y="454.16408" type="line"/>
      <point x="592.56408" y="380.0" type="line"/>
      <point x="638.4" y="380.0" type="line"/>
    </contour>
    <contour>
      <point x="638.4" y="0.0" type="line"/>
      <point x="638.4" y="120.0" type="line"/>
      <point x="592.56408" y="120.0" type="line"/>
      <point x="518.4" y="45.83592" type="line"/>
      <point x="518.4" y="0.0" type="line"/>
    </contour>
  </outline>
</glyph>
<glyph name="ae_with_acute" format="2">
  <advance width="676.8"/>
  <unicode hex="01FD"/>
  <outline>
    <contour>
      <point x="330.9" y="764.4444444444445" type="line"/>
      <point x="330.9" y="644.4444444444445" type="line"/>
      <point x="376.73591999999996" y="644.4444444444445" type="line"/>
      <point x="450.9" y="718.6085244444445" type="line"/>
      <point x="450.9" y="764.4444444444445" type="line"/>
    </contour>
    <contour>
      <point x="244.23592376708984" y="-5" type="line"/>
      <point x="318.4000015258789" y="69.16407775878906" type="line"/>
      <point x="318.4000015258789" y="530.8359222412109" type="line"/>
      <point x="244.23592376708984" y="605" type="line"/>
      <point x="198.4000015258789" y="605" type="line"/>
      <point x="198.4000015258789" y="-5" type="line"/>
    </contour>
    <contour>
      <point x="432.56407928466797" y="-5" type="line"/>
      <point x="478.4000015258789" y="-5" type="line"/>
      <point x="478.4000015258789" y="605" type="line"/>
      <point x="432.56407928466797" y="605" type="line"/>
      <point x="358.4000015258789" y="530.8359222412109" type="line"/>
      <point x="358.4000015258789" y="69.16407775878906" type="line"/>
    </contour>
    <contour>
      <point x="518.4000015258789" y="195" type="line"/>
      <point x="638.4000015258789" y="195" type="line"/>
      <point x="638.4000015258789" y="530.8359222412109" type="line"/>
      <point x="564.2359237670898" y="605" type="line"/>
      <point x="518.4000015258789" y="605" type="line"/>
    </contour>
    <contour>
      <point x="40.275" y="600.0" type="line"/>
      <point x="40.275" y="480.0" type="line"/>
      <point x="86.11092" y="480.0" type="line"/>
      <point x="160.275" y="554.16408" type="line"/>
      <point x="160.275" y="600.0" type="line"/>
    </contour>
    <contour>
      <point x="112.56407928466797" y="-5" type="line"/>
      <point x="158.4000015258789" y="-5" type="line"/>
      <point x="158.4000015258789" y="395" type="line"/>
      <point x="112.56407928466797" y="395" type="line"/>
      <point x="38.400001525878906" y="320.83592224121094" type="line"/>
      <point x="38.400001525878906" y="69.16407775878906" type="line"/>
    </contour>
  </outline>
</glyph>
<glyph name="a_with_gravedbl" format="2">
  <advance width="356.8"/>
  <unicode hex="0201"/>
  <outline>
    <contour>
      <point x="158.4" y="764.4444444444445" type="line"/>
      <point x="38.400000000000006" y="764.4444444444445" type="line"/>
      <point x="38.400000000000006" y="718.6085244444445" type="line"/>
      <point x="112.56408" y="644.4444444444445" type="line"/>
      <point x="158.4" y="644.4444444444445" type="line"/>
    </contour>
    <contour>
      <point x="318.4" y="764.4444444444445" type="line"/>
      <point x="198.4" y="764.4444444444445" type="line"/>
      <point x="198.4" y="718.6085244444445" type="line"/>
      <point x="272.56408" y="644.4444444444445" type="line"/>
      <point x="318.4" y="644.4444444444445" type="line"/>
    </contour>
    <contour>
      <point x="38.4" y="600.0" type="line"/>
      <point x="38.4" y="480.0" type="line"/>
      <point x="84.23592" y="480.0" type="line"/>
      <point x="158.4" y="554.16408" type="line"/>
      <point x="158.4" y="600.0" type="line"/>
    </contour>
    <contour>
      <point x="272.56407928466797" y="-5" type="line"/>
      <point x="318.4000015258789" y="-5" type="line"/>
      <point x="318.4000015258789" y="525.8359222412109" type="line"/>
      <point x="244.23592376708984" y="600" type="line"/>
      <point x="198.4000015258789" y="600" type="line"/>
      <point x="198.4000015258789" y="69.16407775878906" type="line"/>
    </contour>
    <contour>
      <point x="112.56407928466797" y="-5" type="line"/>
      <point x="158.4000015258789" y="-5" type="line"/>
      <point x="158.4000015258789" y="400" type="line"/>
      <point x="112.56407928466797" y="400" type="line"/>
      <point x="38.400001525878906" y="325.83592224121094" type="line"/>
      <point x="38.400001525878906" y="69.16407775878906" type="line"/>
    </contour>
  </outline>
</glyph>
<glyph name="E_with_gravedbl" format="2">
  <advance width="356.8"/>
  <unicode hex="0204"/>
  <outline>
    <contour>
      <point x="158.4" y="964.4444444444445" type="line"/>
      <point x="38.400000000000006" y="964.4444444444445" type="line"/>
      <point x="38.400000000000006" y="918.6085244444445" type="line"/>
      <point x="112.56408" y="844.4444444444445" type="line"/>
      <point x="158.4" y="844.4444444444445" type="line"/>
    </contour>
    <contour>
      <point x="318.4" y="964.4444444444445" type="line"/>
      <point x="198.4" y="964.4444444444445" type="line"/>
      <point x="198.4" y="918.6085244444445" type="line"/>
      <point x="272.56408" y="844.4444444444445" type="line"/>
      <point x="318.4" y="844.4444444444445" type="line"/>
    </contour>
    <contour>
      <point x="38.400001525878906" y="0" type="line"/>
      <point x="158.4000015258789" y="0" type="line"/>
      <point x="158.4000015258789" y="800" type="line"/>
      <point x="38.400001525878906" y="800" type="line"/>
    </contour>
    <contour>
      <point x="318.4" y="800.0" type="line"/>
      <point x="198.4" y="800.0" type="line"/>
      <point x="198.4" y="754.16408" type="line"/>
      <point x="272.56408" y="680.0" type="line"/>
      <point x="318.4" y="680.0" type="line"/>
    </contour>
    <contour>
      <point x="318.4" y="460.0" type="line"/>
      <point x="198.4" y="460.0" type="line"/>
      <point x="198.4" y="414.16408" type="line"/>
      <point x="272.56408" y="340.0" type="line"/>
      <point x="318.4" y="340.0" type="line"/>
    </contour>
    <contour>
      <point x="318.4" y="0.0" type="line"/>
      <point x="318.4" y="120.0" type="line"/>
      <point x="272.56408" y="120.0" type="line"/>
      <point x="198.4" y="45.83592" type="line"/>
      <point x="198.4" y="0.0" type="line"/>
    </contour>
  </outline>
</glyph>
<glyph name="I_with_gravedbl" format="2">
  <advance width="196.8"/>
  <unicode hex="0208"/>
  <outline>
    <contour>
      <point x="78.4" y="964.4444444444445" type="line"/>
      <point x="-41.599999999999994" y="964.4444444444445" type="line"/>
      <point x="-41.599999999999994" y="918.6085244444445" type="line"/>
      <point x="32.564080000000004" y="844.4444444444445" type="line"/>
      <point x="78.4" y="844.4444444444445" type="line"/>
    </contour>
    <contour>
      <point x="238.4" y="964.4444444444445" type="line"/>
      <point x="118.4" y="964.4444444444445" type="line"/>
      <point x="118.4" y="918.6085244444445" type="line"/>
      <point x="192.56408000000002" y="844.4444444444445" type="line"/>
      <point x="238.4" y="844.4444444444445" type="line"/>
    </contour>
    <contour>
      <point x="38.400001525878906" y="0" type="line"/>
      <point x="158.4000015258789" y="0" type="line"/>
      <point x="158.4000015258789" y="800" type="line"/>
      <point x="38.400001525878906" y="800" type="line"/>
    </contour>
  </outline>
</glyph>
<glyph name="i_with_gravedbl" format="2">
  <advance width="196.8"/>
  <unicode hex="0209"/>
  <outline>
    <contour>
      <point x="78.4" y="764.4444444444445" type="line"/>
      <point x="-41.599999999999994" y="764.4444444444445" type="line"/>
      <point x="-41.599999999999994" y="718.6085244444445" type="line"/>
      <point x="32.564080000000004" y="644.4444444444445" type="line"/>
      <point x="78.4" y="644.4444444444445" type="line"/>
    </contour>
    <contour>
      <point x="238.4" y="764.4444444444445" type="line"/>
      <point x="118.4" y="764.4444444444445" type="line"/>
      <point x="118.4" y="718.6085244444445" type="line"/>
      <point x="192.56408000000002" y="644.4444444444445" type="line"/>
      <point x="238.4" y="644.4444444444445" type="line"/>
    </contour>
    <contour>
      <point x="38.400001525878906" y="0" type="line"/>
      <point x="158.4000015258789" y="0" type="line"/>
      <point x="158.4000015258789" y="600" type="line"/>
      <point x="38.400001525878906" y="600" type="line"/>
    </contour>
  </outline>
</glyph>
<glyph name="R_with_gravedbl" format="2">
  <advance width="356.8"/>
  <unicode hex="0210"/>
  <outline>
    <contour>
      <point x="158.4" y="964.4444444444445" type="line"/>
      <point x="38.400000000000006" y="964.4444444444445" type="line"/>
      <point x="38.400000000000006" y="918.6085244444445" type="line"/>
      <point x="112.56408" y="844.4444444444445" type="line"/>
      <point x="158.4" y="844.4444444444445" type="line"/>
    </contour>
    <contour>
      <point x="318.4" y="964.4444444444445" type="line"/>
      <point x="198.4" y="964.4444444444445" type="line"/>
      <point x="198.4" y="918.6085244444445" type="line"/>
      <point x="272.56408" y="844.4444444444445" type="line"/>
      <point x="318.4" y="844.4444444444445" type="line"/>
    </contour>
    <contour>
      <point x="38.400001525878906" y="0" type="line"/>
      <point x="158.4000015258789" y="0" type="line"/>
      <point x="158.4000015258789" y="800" type="line"/>
      <point x="38.400001525878906" y="800" type="line"/>
    </contour>
    <contour>
      <point x="198.4000015258789" y="0" type="line"/>
      <point x="318.4000015258789" y="0" type="line"/>
      <point x="318.4000015258789" y="125.83592224121094" type="line"/>
      <point x="244.23592376708984" y="200" type="line"/>
      <point x="318.4000015258789" y="274.16407775878906" type="line"/>
      <point x="318.4000015258789" y="725.8359222412109" type="line"/>
      <point x="244.23592376708984" y="800" type="line"/>
      <point x="198.4000015258789" y="800" type="line"/>
    </contour>
  </outline>
</glyph>
<glyph name="R_with_breveinv" format="2">
  <advance width="356.8"/>
  <unicode hex="0212"/>
  <outline>
    <contour>
      <point x="58.400001525878906" y="890.2803649902344" type="line"/>
      <point x="58.400001525878906" y="844.4444427490234" type="line"/>
      <point x="298.4000015258789" y="844.4444427490234" type="line"/>
      <point x="298.4000015258789" y="890.2803649902344" type="line"/>
      <point x="224.23592376708984" y="964.4444427490234" type="line"/>
      <point x="132.56407928466797" y="964.4444427490234" type="line"/>
    </contour>
    <contour>
      <point x="38.400001525878906" y="0" type="line"/>
      <point x="158.4000015258789" y="0" type="line"/>
      <point x="158.4000015258789" y="800" type="line"/>
      <point x="38.400001525878906" y="800" type="line"/>
    </contour>
    <contour>
      <point x="198.4000015258789" y="0" type="line"/>
      <point x="318.4000015258789" y="0" type="line"/>
      <point x="318.4000015258789" y="125.83592224121094" type="line"/>
      <point x="244.23592376708984" y="200" type="line"/>
      <point x="318.4000015258789" y="274.16407775878906" type="line"/>
      <point x="318.4000015258789" y="725.8359222412109" type="line"/>
      <point x="244.23592376708984" y="800" type="line"/>
      <point x="198.4000015258789" y="800" type="line"/>
    </contour>
  </outline>
</glyph>
<glyph name="r_with_breveinv" format="2">
  <advance width="356.8"/>
  <unicode hex="0213"/>
  <outline>
    <contour>
      <point x="58.400001525878906" y="690.2803649902344" type="line"/>
      <point x="58.400001525878906" y="644.4444427490234" type="line"/>
      <point x="298.4000015258789" y="644.4444427490234" type="line"/>
      <point x="298.4000015258789" y="690.2803649902344" type="line"/>
      <point x="224.23592376708984" y="764.4444427490234" type="line"/>
      <point x="132.56407928466797" y="764.4444427490234" type="line"/>
    </contour>
    <contour>
      <point x="38.400001525878906" y="0" type="line"/>
      <point x="158.4000015258789" y="0" type="line"/>
      <point x="158.4000015258789" y="600" type="line"/>
      <point x="38.400001525878906" y="600" type="line"/>
    </contour>
    <contour>
      <point x="318.4" y="600.0" type="line"/>
      <point x="198.4" y="600.0" type="line"/>
      <point x="198.4" y="554.16408" type="line"/>
      <point x="272.56408" y="480.0" type="line"/>
      <point x="318.4" y="480.0" type="line"/>
    </contour>
  </outline>
</glyph>
<glyph name="U_with_gravedbl" format="2">
  <advance width="356.8"/>
  <unicode hex="0214"/>
  <outline>
    <contour>
      <point x="158.4" y="964.4444444444445" type="line"/>
      <point x="38.400000000000006" y="964.4444444444445" type="line"/>
      <point x="38.400000000000006" y="918.6085244444445" type="line"/>
      <point x="112.56408" y="844.4444444444445" type="line"/>
      <point x="158.4" y="844.4444444444445" type="line"/>
    </contour>
    <contour>
      <point x="318.4" y="964.4444444444445" type="line"/>
      <point x="198.4" y="964.4444444444445" type="line"/>
      <point x="198.4" y="918.6085244444445" type="line"/>
      <point x="272.56408" y="844.4444444444445" type="line"/>
      <point x="318.4" y="844.4444444444445" type="line"/>
    </contour>
    <contour>
      <point x="112.56407928466797" y="-5" type="line"/>
      <point x="158.4000015258789" y="-5" type="line"/>
      <point x="158.4000015258789" y="800" type="line"/>
      <point x="38.400001525878906" y="800" type="line"/>
      <point x="38.400001525878906" y="69.16407775878906" type="line"/>
    </contour>
    <contour>
      <point x="244.23592376708984" y="-5" type="line"/>
      <point x="318.4000015258789" y="69.16407775878906" type="line"/>
      <point x="318.4000015258789" y="800" type="line"/>
      <point x="198.4000015258789" y="800" type="line"/>
      <point x="198.4000015258789" y="-5" type="line"/>
    </contour>
  </outline>
</glyph>
<glyph name="u_with_gravedbl" format="2">
  <advance width="356.8"/>
  <unicode hex="0215"/>
  <outline>
    <contour>
      <point x="158.4" y="764.4444444444445" type="line"/>
      <point x="38.400000000000006" y="764.4444444444445" type="line"/>
      <point x="38.400000000000006" y="718.6085244444445" type="line"/>
      <point x="112.56408" y="644.4444444444445" type="line"/>
      <point x="158.4" y="644.4444444444445" type="line"/>
    </contour>
    <contour>
      <point x="318.4" y="764.4444444444445" type="line"/>
      <point x="198.4" y="764.4444444444445" type="line"/>
      <point x="198.4" y="718.6085244444445" type="line"/>
      <point x="272.56408" y="644.4444444444445" type="line"/>
      <point x="318.4" y="644.4444444444445" type="line"/>
    </contour>
    <contour>
      <point x="112.56407928466797" y="-5" type="line"/>
      <point x="158.4000015258789" y="-5" type="line"/>
      <point x="158.4000015258789" y="600" type="line"/>
      <point x="38.400001525878906" y="600" type="line"/>
      <point x="38.400001525878906" y="69.16407775878906" type="line"/>
    </contour>
    <contour>
      <point x="244.23592376708984" y="-5" type="line"/>
      <point x="318.4000015258789" y="69.16407775878906" type="line"/>
      <point x="318.4000015258789" y="600" type="line"/>
      <point x="198.4000015258789" y="600" type="line"/>
      <point x="198.4000015258789" y="-5" type="line"/>
    </contour>
  </outline>
</glyph>
<glyph name="S_with_commabelow" format="2">
  <advance width="356.8"/>
  <unicode hex="0218"/>
  <outline>
    <contour>
      <point x="112.56407928466797" y="340" type="line"/>
      <point x="158.4000015258789" y="340" type="line"/>
      <point x="158.4000015258789" y="800" type="line"/>
      <point x="112.56407928466797" y="800" type="line"/>
      <point x="38.400001525878906" y="725.8359222412109" type="line"/>
      <point x="38.400001525878906" y="414.16407775878906" type="line"/>
    </contour>
    <contour>
      <point x="314.65" y="800.0" type="line"/>
      <point x="194.65" y="800.0" type="line"/>
      <point x="194.65" y="754.16408" type="line"/>
      <point x="268.81408" y="680.0" type="line"/>
      <point x="314.65" y="680.0" type="line"/>
    </contour>
    <contour>
      <point x="244.23592376708984" y="0" type="line"/>
      <point x="318.4000015258789" y="74.16407775878906" type="line"/>
      <point x="318.4000015258789" y="385.83592224121094" type="line"/>
      <point x="244.23592376708984" y="460" type="line"/>
      <point x="198.4000015258789" y="460" type="line"/>
      <point x="198.4000015258789" y="0" type="line"/>
    </contour>
    <contour>
      <point x="40.275" y="0" type="line"/>
      <point x="160.275" y="0" type="line"/>
      <point x="160.275" y="45.83592" type="line"/>
      <point x="86.11092" y="120.0" type="line"/>
      <point x="40.275" y="120.0" type="line"/>
    </contour>
    <contour>
      <point x="118.4" y="-65.0" type="line"/>
      <point x="118.4" y="-185.0" type="line"/>
      <point x="164.23592000000002" y="-185.0" type="line"/>
      <point x="238.4" y="-110.83592" type="line"/>
      <point x="238.4" y="-65.0" type="line"/>
    </contour>
  </outline>
</glyph>
<glyph name="T_with_commabelow" format="2">
  <advance width="516.8"/>
  <unicode hex="021A"/>
  <outline>
    <contour>
      <point x="38.4" y="800.0" type="line"/>
      <point x="38.4" y="680.0" type="line"/>
      <point x="84.23592" y="680.0" type="line"/>
      <point x="158.4" y="754.16408" type="line"/>
      <point x="158.4" y="800.0" type="line"/>
    </contour>
    <contour>
      <point x="198.4000015258789" y="0" type="line"/>
      <point x="318.4000015258789" y="0" type="line"/>
      <point x="318.4000015258789" y="800" type="line"/>
      <point x="198.4000015258789" y="800" type="line"/>
    </contour>
    <contour>
      <point x="478.4" y="800.0" type="line"/>
      <point x="358.4" y="800.0" type="line"/>
      <point x="358.4" y="754.16408" type="line"/>
      <point x="432.56408" y="680.0" type="line"/>
      <point x="478.4" y="680.0" type="line"/>
    </contour>
    <contour>
      <point x="198.39999999999998" y="-65.0" type="line"/>
      <point x="198.39999999999998" y="-185.0" type="line"/>
      <point x="244.23591999999996" y="-185.0" type="line"/>
      <point x="318.4" y="-110.83592" type="line"/>
      <point x="318.4" y="-65.0" type="line"/>
    </contour>
  </outline>
</glyph>
<glyph name="t_with_commabelow" format="2">
  <advance width="356.8"/>
  <unicode hex="021B"/>
  <outline>
    <contour>
      <point x="38.400001525878906" y="0" type="line"/>
      <point x="158.4000015258789" y="0" type="line"/>
      <point x="158.4000015258789" y="800" type="line"/>
      <point x="112.56407928466797" y="800" type="line"/>
      <point x="38.400001525878906" y="725.8359222412109" type="line"/>
    </contour>
    <contour>
      <point x="198.4" y="600.0" type="line"/>
      <point x="198.4" y="480.0" type="line"/>
      <point x="244.23592" y="480.0" type="line"/>
      <point x="318.4" y="554.16408" type="line"/>
      <point x="318.4" y="600.0" type="line"/>
    </contour>
    <contour>
      <point x="118.4" y="-65.0" type="line"/>
      <point x="118.4" y="-185.0" type="line"/>
      <point x="164.23592000000002" y="-185.0" type="line"/>
      <point x="238.4" y="-110.83592" type="line"/>
      <point x="238.4" y="-65.0" type="line"/>
    </contour>
  </outline>
</glyph>
<glyph name="j_dotless" format="2">
  <advance width="356.8"/>
  <unicode hex="0237"/>
  <outline>
    <contour>
      <point x="244.23592376708984" y="-210" type="line"/>
      <point x="318.4000015258789" y="-135.83592224121094" type="line"/>
      <point x="318.4000015258789" y="600" type="line"/>
      <point x="198.4000015258789" y="600" type="line"/>
      <point x="198.4000015258789" y="-210" type="line"/>
    </contour>
    <contour>
      <point x="162.15" y="-90.0" type="line"/>
      <point x="42.15" y="-90.0" type="line"/>
      <point x="42.15" y="-135.83592" type="line"/>
      <point x="116.31407999999999" y="-210.0" type="line"/>
      <point x="162.15" y="-210.0" type="line"/>
    </contour>
  </outline>
</glyph>
<glyph name="turnedcomma" format="2">
  <advance width="196.8"/>
  <unicode hex="02BB"/>
  <outline>
    <contour>
      <point x="38.400001525878906" y="580" type="line"/>
      <point x="158.4000015258789" y="580" type="line"/>
      <point x="158.4000015258789" y="800" type="line"/>
      <point x="112.56407928466797" y="800" type="line"/>
      <point x="38.400001525878906" y="725.8359222412109" type="line"/>
    </contour>
  </outline>
</glyph>
<glyph name="apostrophe" format="2">
  <advance width="196.8"/>
  <unicode hex="02BC"/>
  <outline>
    <contour>
      <point x="84.23592376708984" y="600" type="line"/>
      <point x="158.4000015258789" y="674.1640777587891" type="line"/>
      <point x="158.4000015258789" y="800" type="line"/>
      <point x="38.400001525878906" y="800" type="line"/>
      <point x="38.400001525878906" y="600" type="line"/>
    </contour>
  </outline>
</glyph>
<glyph name="circumflex" format="2">
  <advance width="356.8"/>
  <unicode hex="02C6"/>
  <outline>
    <contour>
      <point x="54.65" y="920.0" type="line"/>
      <point x="54.65" y="800.0" type="line"/>
      <point x="100.48592" y="800.0" type="line"/>
      <point x="174.65" y="874.16408" type="line"/>
      <point x="174.65" y="920.0" type="line"/>
    </contour>
    <contour>
      <point x="302.15" y="920.0" type="line"/>
      <point x="182.15" y="920.0" type="line"/>
      <point x="182.15" y="874.16408" type="line"/>
      <point x="256.31408" y="800.0" type="line"/>
      <point x="302.15" y="800.0" type="line"/>
    </contour>
  </outline>
</glyph>
<glyph name="caron" format="2">
  <advance width="356.8"/>
  <unicode hex="02C7"/>
  <outline>
    <contour>
      <point x="54.65" y="800" type="line"/>
      <point x="174.65" y="800" type="line"/>
      <point x="174.65" y="845.83592" type="line"/>
      <point x="100.48592" y="920.0" type="line"/>
      <point x="54.65" y="920.0" type="line"/>
    </contour>
    <contour>
      <point x="302.15" y="800.0" type="line"/>
      <point x="302.15" y="920.0" type="line"/>
      <point x="256.31408" y="920.0" type="line"/>
      <point x="182.15" y="845.83592" type="line"/>
      <point x="182.15" y="800.0" type="line"/>
    </contour>
  </outline>
</glyph>
<glyph name="dotabove" format="2">
  <advance width="196.8"/>
  <unicode hex="02D9"/>
  <outline>
    <contour>
      <point x="38.4" y="880.0" type="line"/>
      <point x="158.4" y="880.0" type="line"/>
      <point x="158.4" y="1000.0" type="line"/>
      <point x="38.4" y="1000.0" type="line"/>
    </contour>
  </outline>
</glyph>
<glyph name="ring" format="2">
  <advance width="356.8"/>
  <unicode hex="02DA"/>
  <outline>
    <contour>
      <point x="158.4" y="925.0" type="line"/>
      <point x="133.57221" y="925.0" type="line"/>
      <point x="93.4" y="884.82779" type="line"/>
      <point x="93.4" y="835.17221" type="line"/>
      <point x="133.57221" y="795.0" type="line"/>
      <point x="158.4" y="795.0" type="line"/>
    </contour>
    <contour>
      <point x="198.4" y="795.0" type="line"/>
      <point x="223.22779" y="795.0" type="line"/>
      <point x="263.4" y="835.17221" type="line"/>
      <point x="263.4" y="884.82779" type="line"/>
      <point x="223.22779" y="925.0" type="line"/>
      <point x="198.4" y="925.0" type="line"/>
    </contour>
  </outline>
</glyph>
<glyph name="ogonek" format="2">
  <advance width="196.8"/>
  <unicode hex="02DB"/>
  <outline>
    <contour>
      <point x="98.4" y="-120.0" type="line"/>
      <point x="98.4" y="0.0" type="line"/>
      <point x="52.56408" y="0.0" type="line"/>
      <point x="-21.6" y="-74.16408" type="line"/>
      <point x="-21.6" y="-120.0" type="line"/>
    </contour>
  </outline>
</glyph>
<glyph name="smalltilde" format="2">
  <advance width="356.8"/>
  <unicode hex="02DC"/>
  <outline>
    <contour>
      <point x="58.400001525878906" y="845.8359222412109" type="line"/>
      <point x="58.400001525878906" y="800" type="line"/>
      <point x="224.23592376708984" y="800" type="line"/>
      <point x="298.4000015258789" y="874.1640777587891" type="line"/>
      <point x="298.4000015258789" y="920" type="line"/>
      <point x="132.56407928466797" y="920" type="line"/>
    </contour>
  </outline>
</glyph>
<glyph name="acutedbl" format="2">
  <advance width="356.8"/>
  <unicode hex="02DD"/>
  <outline>
    <contour>
      <point x="38.4" y="920.0" type="line"/>
      <point x="38.4" y="800.0" type="line"/>
      <point x="84.23592" y="800.0" type="line"/>
      <point x="158.4" y="874.16408" type="line"/>
      <point x="158.4" y="920.0" type="line"/>
    </contour>
    <contour>
      <point x="198.4" y="920.0" type="line"/>
      <point x="198.4" y="800.0" type="line"/>
      <point x="244.23592" y="800.0" type="line"/>
      <point x="318.4" y="874.16408" type="line"/>
      <point x="318.4" y="920.0" type="line"/>
    </contour>
  </outline>
</glyph>
<glyph name="combining_grave" format="2">
  <advance width="196.8"/>
  <unicode hex="0300"/>
  <outline>
    <contour>
      <point x="-250.9" y="764.44444" type="line"/>
      <point x="-370.90000000000003" y="764.44444" type="line"/>
      <point x="-370.90000000000003" y="718.60852" type="line"/>
      <point x="-296.73592" y="644.44444" type="line"/>
      <point x="-250.9" y="644.44444" type="line"/>
    </contour>
  </outline>
</glyph>
<glyph name="combining_acute" format="2">
  <advance width="196.8"/>
  <unicode hex="0301"/>
  <outline>
    <contour>
      <point x="-265.90000000000003" y="764.44444" type="line"/>
      <point x="-265.90000000000003" y="644.44444" type="line"/>
      <point x="-220.06408000000002" y="644.44444" type="line"/>
      <point x="-145.9" y="718.60852" type="line"/>
      <point x="-145.9" y="764.44444" type="line"/>
    </contour>
  </outline>
</glyph>
<glyph name="combining_smalltilde" format="2">
  <advance width="356.8"/>
  <unicode hex="0303"/>
  <outline>
    <contour>
      <point x="-298.4000015258789" y="690.2803573608398" type="line"/>
      <point x="-298.4000015258789" y="644.4444427490234" type="line"/>
      <point x="-132.56407928466797" y="644.4444427490234" type="line"/>
      <point x="-58.400001525878906" y="718.6085205078125" type="line"/>
      <point x="-58.400001525878906" y="764.4444427490234" type="line"/>
      <point x="-224.23592376708984" y="764.4444427490234" type="line"/>
    </contour>
  </outline>
</glyph>
<glyph name="combining_macron" format="2">
  <advance width="356.8"/>
  <unicode hex="0304"/>
  <outline>
    <contour>
      <point x="-298.4000015258789" y="644.4444427490234" type="line"/>
      <point x="-58.400001525878906" y="644.4444427490234" type="line"/>
      <point x="-58.400001525878906" y="764.4444427490234" type="line"/>
      <point x="-298.4000015258789" y="764.4444427490234" type="line"/>
    </contour>
  </outline>
</glyph>
<glyph name="combining_dotabove" format="2">
  <advance width="196.8"/>
  <unicode hex="0307"/>
  <outline>
    <contour>
      <point x="-318.40000000000003" y="724.44444" type="line"/>
      <point x="-198.4" y="724.44444" type="line"/>
      <point x="-198.4" y="844.44444" type="line"/>
      <point x="-318.40000000000003" y="844.44444" type="line"/>
    </contour>
  </outline>
</glyph>
<glyph name="combining_diaeresis" format="2">
  <advance width="356.8"/>
  <unicode hex="0308"/>
  <outline>
    <contour>
      <point x="-318.40000000000003" y="724.44444" type="line"/>
      <point x="-198.4" y="724.44444" type="line"/>
      <point x="-198.4" y="844.44444" type="line"/>
      <point x="-318.40000000000003" y="844.44444" type="line"/>
    </contour>
    <contour>
      <point x="-158.4" y="724.44444" type="line"/>
      <point x="-38.4" y="724.44444" type="line"/>
      <point x="-38.4" y="844.44444" type="line"/>
      <point x="-158.4" y="844.44444" type="line"/>
    </contour>
  </outline>
</glyph>
<glyph name="combining_hook" format="2">
  <advance width="196.8"/>
  <unicode hex="0309"/>
  <outline>
    <contour>
      <point x="-265.90000000000003" y="644.44444" type="line"/>
      <point x="-145.9" y="644.44444" type="line"/>
      <point x="-145.9" y="690.28036" type="line"/>
      <point x="-220.06408000000002" y="764.44444" type="line"/>
      <point x="-265.90000000000003" y="764.44444" type="line"/>
    </contour>
  </outline>
</glyph>
<glyph name="combining_ring" format="2">
  <advance width="356.8"/>
  <unicode hex="030A"/>
  <outline>
    <contour>
      <point x="-198.4" y="769.44444" type="line"/>
      <point x="-223.22779" y="769.44444" type="line"/>
      <point x="-263.40000000000003" y="729.27223" type="line"/>
      <point x="-263.40000000000003" y="679.61665" type="line"/>
      <point x="-223.22779" y="639.44444" type="line"/>
      <point x="-198.4" y="639.44444" type="line"/>
    </contour>
    <contour>
      <point x="-158.4" y="639.44444" type="line"/>
      <point x="-133.57220999999998" y="639.44444" type="line"/>
      <point x="-93.4" y="679.61665" type="line"/>
      <point x="-93.4" y="729.27223" type="line"/>
      <point x="-133.57220999999998" y="769.44444" type="line"/>
      <point x="-158.4" y="769.44444" type="line"/>
    </contour>
  </outline>
</glyph>
<glyph name="combining_acutedbl" format="2">
  <advance width="356.8"/>
  <unicode hex="030B"/>
  <outline>
    <contour>
      <point x="-318.40000000000003" y="764.44444" type="line"/>
      <point x="-318.40000000000003" y="644.44444" type="line"/>
      <point x="-272.56408000000005" y="644.44444" type="line"/>
      <point x="-198.4" y="718.60852" type="line"/>
      <point x="-198.4" y="764.44444" type="line"/>
    </contour>
    <contour>
      <point x="-158.4" y="764.44444" type="line"/>
      <point x="-158.4" y="644.44444" type="line"/>
      <point x="-112.56407999999999" y="644.44444" type="line"/>
      <point x="-38.4" y="718.60852" type="line"/>
      <point x="-38.4" y="764.44444" type="line"/>
    </contour>
  </outline>
</glyph>
<glyph name="combining_caron" format="2">
  <advance width="356.8"/>
  <unicode hex="030C"/>
  <outline>
    <contour>
      <point x="-302.15000000000003" y="644.44444" type="line"/>
      <point x="-182.15" y="644.44444" type="line"/>
      <point x="-182.15" y="690.28036" type="line"/>
      <point x="-256.31408000000005" y="764.44444" type="line"/>
      <point x="-302.15000000000003" y="764.44444" type="line"/>
    </contour>
    <contour>
      <point x="-54.65" y="644.44444" type="line"/>
      <point x="-54.65" y="764.44444" type="line"/>
      <point x="-100.48592" y="764.44444" type="line"/>
      <point x="-174.65" y="690.28036" type="line"/>
      <point x="-174.65" y="644.44444" type="line"/>
    </contour>
  </outline>
</glyph>
<glyph name="combining_gravedbl" format="2">
  <advance width="356.8"/>
  <unicode hex="030F"/>
  <outline>
    <contour>
      <point x="-198.4" y="764.44444" type="line"/>
      <point x="-318.40000000000003" y="764.44444" type="line"/>
      <point x="-318.40000000000003" y="718.60852" type="line"/>
      <point x="-244.23592" y="644.44444" type="line"/>
      <point x="-198.4" y="644.44444" type="line"/>
    </contour>
    <contour>
      <point x="-38.4" y="764.44444" type="line"/>
      <point x="-158.4" y="764.44444" type="line"/>
      <point x="-158.4" y="718.60852" type="line"/>
      <point x="-84.23592" y="644.44444" type="line"/>
      <point x="-38.4" y="644.44444" type="line"/>
    </contour>
  </outline>
</glyph>
<glyph name="combining_dotbelow" format="2">
  <advance width="196.8"/>
  <unicode hex="0323"/>
  <outline>
    <contour>
      <point x="-318.40000000000003" y="-160.0" type="line"/>
      <point x="-198.4" y="-160.0" type="line"/>
      <point x="-198.4" y="-40.0" type="line"/>
      <point x="-318.40000000000003" y="-40.0" type="line"/>
    </contour>
  </outline>
</glyph>
<glyph name="combining_diaeresisbelow" format="2">
  <advance width="356.8"/>
  <unicode hex="0324"/>
  <outline>
    <contour>
      <point x="-318.40000000000003" y="-160.0" type="line"/>
      <point x="-198.4" y="-160.0" type="line"/>
      <point x="-198.4" y="-40.0" type="line"/>
      <point x="-318.40000000000003" y="-40.0" type="line"/>
    </contour>
    <contour>
      <point x="-158.4" y="-160.0" type="line"/>
      <point x="-38.4" y="-160.0" type="line"/>
      <point x="-38.4" y="-40.0" type="line"/>
      <point x="-158.4" y="-40.0" type="line"/>
    </contour>
  </outline>
</glyph>
<glyph name="combining_commabelow" format="2">
  <advance width="196.8"/>
  <unicode hex="0326"/>
  <outline>
    <contour>
      <point x="-318.40000000000003" y="-40.0" type="line"/>
      <point x="-318.40000000000003" y="-160.0" type="line"/>
      <point x="-272.56408000000005" y="-160.0" type="line"/>
      <point x="-198.4" y="-85.83592" type="line"/>
      <point x="-198.4" y="-40.0" type="line"/>
    </contour>
  </outline>
</glyph>
<glyph name="combining_cedilla" format="2">
  <advance width="196.8"/>
  <unicode hex="0327"/>
  <outline>
    <contour>
      <point x="-265.90000000000003" y="-120.0" type="line"/>
      <point x="-145.9" y="-120.0" type="line"/>
      <point x="-145.9" y="-74.16408" type="line"/>
      <point x="-220.06408000000002" y="0.0" type="line"/>
      <point x="-265.90000000000003" y="0.0" type="line"/>
    </contour>
  </outline>
</glyph>
<glyph name="PI" format="2">
  <advance width="436.8"/>
  <unicode hex="03A0"/>
  <outline>
    <contour>
      <point x="38.400001525878906" y="680" type="line"/>
      <point x="398.4000015258789" y="680" type="line"/>
      <point x="398.4000015258789" y="800" type="line"/>
      <point x="38.400001525878906" y="800" type="line"/>
    </contour>
    <contour>
      <point x="78.4000015258789" y="0" type="line"/>
      <point x="198.4000015258789" y="0" type="line"/>
      <point x="198.4000015258789" y="649.1666717529297" type="line"/>
      <point x="78.4000015258789" y="649.1666717529297" type="line"/>
    </contour>
    <contour>
      <point x="238.4000015258789" y="0" type="line"/>
      <point x="358.4000015258789" y="0" type="line"/>
      <point x="358.4000015258789" y="649.1666717529297" type="line"/>
      <point x="238.4000015258789" y="649.1666717529297" type="line"/>
    </contour>
  </outline>
</glyph>
<glyph name="pi" format="2">
  <advance width="491.8"/>
  <unicode hex="03C0"/>
  <outline>
    <contour>
      <point x="38.400001525878906" y="525.8359222412109" type="line"/>
      <point x="38.400001525878906" y="480" type="line"/>
      <point x="379.23592376708984" y="480" type="line"/>
      <point x="453.4000015258789" y="554.1640777587891" type="line"/>
      <point x="453.4000015258789" y="600" type="line"/>
      <point x="112.56407928466797" y="600" type="line"/>
    </contour>
    <contour>
      <point x="98.4000015258789" y="0" type="line"/>
      <point x="218.4000015258789" y="0" type="line"/>
      <point x="218.4000015258789" y="449.1666717529297" type="line"/>
      <point x="98.4000015258789" y="449.1666717529297" type="line"/>
    </contour>
    <contour>
      <point x="332.56407928466797" y="0" type="line"/>
      <point x="418.4000015258789" y="0" type="line"/>
      <point x="418.4000015258789" y="120" type="line"/>
      <point x="378.4000015258789" y="120" type="line"/>
      <point x="378.4000015258789" y="449.1666717529297" type="line"/>
      <point x="258.4000015258789" y="449.1666717529297" type="line"/>
      <point x="258.4000015258789" y="74.16407775878906" type="line"/>
    </contour>
  </outline>
</glyph>
<glyph name="sigma" format="2">
  <advance width="396.8"/>
  <unicode hex="03C3"/>
  <outline>
    <contour>
      <point x="112.56407928466797" y="-5" type="line"/>
      <point x="158.4000015258789" y="-5" type="line"/>
      <point x="158.4000015258789" y="600" type="line"/>
      <point x="112.56407928466797" y="600" type="line"/>
      <point x="38.400001525878906" y="525.8359222412109" type="line"/>
      <point x="38.400001525878906" y="69.16407775878906" type="line"/>
    </contour>
    <contour>
      <point x="318.4000015258789" y="480" type="line"/>
      <point x="358.4000015258789" y="480" type="line"/>
      <point x="358.4000015258789" y="600" type="line"/>
      <point x="198.4000015258789" y="600" type="line"/>
      <point x="198.4000015258789" y="-5" type="line"/>
      <point x="244.23592376708984" y="-5" type="line"/>
      <point x="318.4000015258789" y="69.16407775878906" type="line"/>
    </contour>
  </outline>
</glyph>
<glyph name="U_with_diaeresisbelow" format="2">
  <advance width="356.8"/>
  <unicode hex="1E72"/>
  <outline>
    <contour>
      <point x="112.56407928466797" y="-5" type="line"/>
      <point x="158.4000015258789" y="-5" type="line"/>
      <point x="158.4000015258789" y="800" type="line"/>
      <point x="38.400001525878906" y="800" type="line"/>
      <point x="38.400001525878906" y="69.16407775878906" type="line"/>
    </contour>
    <contour>
      <point x="244.23592376708984" y="-5" type="line"/>
      <point x="318.4000015258789" y="69.16407775878906" type="line"/>
      <point x="318.4000015258789" y="800" type="line"/>
      <point x="198.4000015258789" y="800" type="line"/>
      <point x="198.4000015258789" y="-5" type="line"/>
    </contour>
    <contour>
      <point x="38.400000000000006" y="-190.0" type="line"/>
      <point x="158.4" y="-190.0" type="line"/>
      <point x="158.4" y="-70.0" type="line"/>
      <point x="38.400000000000006" y="-70.0" type="line"/>
    </contour>
    <contour>
      <point x="198.4" y="-190.0" type="line"/>
      <point x="318.4" y="-190.0" type="line"/>
      <point x="318.4" y="-70.0" type="line"/>
      <point x="198.4" y="-70.0" type="line"/>
    </contour>
  </outline>
</glyph>
<glyph name="w_with_grave" format="2">
  <advance width="516.8"/>
  <unicode hex="1E81"/>
  <outline>
    <contour>
      <point x="265.9" y="764.4444444444445" type="line"/>
      <point x="145.89999999999998" y="764.4444444444445" type="line"/>
      <point x="145.89999999999998" y="718.6085244444445" type="line"/>
      <point x="220.06408" y="644.4444444444445" type="line"/>
      <point x="265.9" y="644.4444444444445" type="line"/>
    </contour>
    <contour>
      <point x="112.56407928466797" y="0" type="line"/>
      <point x="158.4000015258789" y="0" type="line"/>
      <point x="158.4000015258789" y="525.8359222412109" type="line"/>
      <point x="84.23592376708984" y="600" type="line"/>
      <point x="38.400001525878906" y="600" type="line"/>
      <point x="38.400001525878906" y="74.16407775878906" type="line"/>
    </contour>
    <contour>
      <point x="198.4000015258789" y="0" type="line"/>
      <point x="318.4000015258789" y="0" type="line"/>
      <point x="318.4000015258789" y="525.8359222412109" type="line"/>
      <point x="244.23592376708984" y="600" type="line"/>
      <point x="198.4000015258789" y="600" type="line"/>
    </contour>
    <contour>
      <point x="404.23592376708984" y="0" type="line"/>
      <point x="478.4000015258789" y="74.16407775878906" type="line"/>
      <point x="478.4000015258789" y="600" type="line"/>
      <point x="358.4000015258789" y="600" type="line"/>
      <point x="358.4000015258789" y="0" type="line"/>
    </contour>
  </outline>
</glyph>
<glyph name="w_with_acute" format="2">
  <advance width="516.8"/>
  <unicode hex="1E83"/>
  <outline>
    <contour>
      <point x="250.89999999999998" y="764.4444444444445" type="line"/>
      <point x="250.89999999999998" y="644.4444444444445" type="line"/>
      <point x="296.73591999999996" y="644.4444444444445" type="line"/>
      <point x="370.9" y="718.6085244444445" type="line"/>
      <point x="370.9" y="764.4444444444445" type="line"/>
    </contour>
    <contour>
      <point x="112.56407928466797" y="0" type="line"/>
      <point x="158.4000015258789" y="0" type="line"/>
      <point x="158.4000015258789" y="525.8359222412109" type="line"/>
      <point x="84.23592376708984" y="600" type="line"/>
      <point x="38.400001525878906" y="600" type="line"/>
      <point x="38.400001525878906" y="74.16407775878906" type="line"/>
    </contour>
    <contour>
      <point x="198.4000015258789" y="0" type="line"/>
      <point x="318.4000015258789" y="0" type="line"/>
      <point x="318.4000015258789" y="525.8359222412109" type="line"/>
      <point x="244.23592376708984" y="600" type="line"/>
      <point x="198.4000015258789" y="600" type="line"/>
    </contour>
    <contour>
      <point x="404.23592376708984" y="0" type="line"/>
      <point x="478.4000015258789" y="74.16407775878906" type="line"/>
      <point x="478.4000015258789" y="600" type="line"/>
      <point x="358.4000015258789" y="600" type="line"/>
      <point x="358.4000015258789" y="0" type="line"/>
    </contour>
  </outline>
</glyph>
<glyph name="W_with_diaeresis" format="2">
  <advance width="516.8"/>
  <unicode hex="1E84"/>
  <outline>
    <contour>
      <point x="118.39999999999998" y="924.4444444444445" type="line"/>
      <point x="238.39999999999998" y="924.4444444444445" type="line"/>
      <point x="238.39999999999998" y="1044.4444444444443" type="line"/>
      <point x="118.39999999999998" y="1044.4444444444443" type="line"/>
    </contour>
    <contour>
      <point x="278.4" y="924.4444444444445" type="line"/>
      <point x="398.4" y="924.4444444444445" type="line"/>
      <point x="398.4" y="1044.4444444444443" type="line"/>
      <point x="278.4" y="1044.4444444444443" type="line"/>
    </contour>
    <contour>
      <point x="112.56407928466797" y="0" type="line"/>
      <point x="158.4000015258789" y="0" type="line"/>
      <point x="158.4000015258789" y="725.8359222412109" type="line"/>
      <point x="84.23592376708984" y="800" type="line"/>
      <point x="38.400001525878906" y="800" type="line"/>
      <point x="38.400001525878906" y="74.16407775878906" type="line"/>
    </contour>
    <contour>
      <point x="198.4000015258789" y="0" type="line"/>
      <point x="318.4000015258789" y="0" type="line"/>
      <point x="318.4000015258789" y="725.8359222412109" type="line"/>
      <point x="244.23592376708984" y="800" type="line"/>
      <point x="198.4000015258789" y="800" type="line"/>
    </contour>
    <contour>
      <point x="404.23592376708984" y="0" type="line"/>
      <point x="478.4000015258789" y="74.16407775878906" type="line"/>
      <point x="478.4000015258789" y="800" type="line"/>
      <point x="358.4000015258789" y="800" type="line"/>
      <point x="358.4000015258789" y="0" type="line"/>
    </contour>
  </outline>
</glyph>
<glyph name="A_with_dotbelow" format="2">
  <advance width="356.8"/>
  <unicode hex="1EA0"/>
  <outline>
    <contour>
      <point x="38.400001525878906" y="0" type="line"/>
      <point x="158.4000015258789" y="0" type="line"/>
      <point x="158.4000015258789" y="805" type="line"/>
      <point x="112.56407928466797" y="805" type="line"/>
      <point x="38.400001525878906" y="730.8359222412109" type="line"/>
    </contour>
    <contour>
      <point x="198.4000015258789" y="0" type="line"/>
      <point x="318.4000015258789" y="0" type="line"/>
      <point x="318.4000015258789" y="730.8359222412109" type="line"/>
      <point x="244.23592376708984" y="805" type="line"/>
      <point x="198.4000015258789" y="805" type="line"/>
    </contour>
    <contour>
      <point x="118.4" y="-185.0" type="line"/>
      <point x="238.4" y="-185.0" type="line"/>
      <point x="238.4" y="-65.0" type="line"/>
      <point x="118.4" y="-65.0" type="line"/>
    </contour>
  </outline>
</glyph>
